<?xml version="1.0" encoding="UTF-8"?>
<mxfile host="app.diagrams.net" agent="Mozilla/5.0 (Macintosh; Intel Mac OS X 10_15_7) AppleWebKit/537.36 (KHTML, like Gecko) Chrome/133.0.0.0 Safari/537.36" version="26.0.16">
  <diagram name="data_architecture" id="v4LE2JWJl_3UguIpwtq8">
    <mxGraphModel dx="954" dy="639" grid="1" gridSize="10" guides="1" tooltips="1" connect="1" arrows="1" fold="1" page="1" pageScale="1" pageWidth="2339" pageHeight="3300" math="0" shadow="0">
      <root>
        <mxCell id="0" />
        <mxCell id="1" parent="0" />
        <mxCell id="JD0N7b30WqXWXPYUDMMK-5" value="" style="rounded=0;whiteSpace=wrap;html=1;dashed=1;strokeColor=#757575;fillColor=none;" parent="1" vertex="1">
          <mxGeometry x="360" y="170" width="880" height="640" as="geometry" />
        </mxCell>
        <mxCell id="JD0N7b30WqXWXPYUDMMK-15" value="" style="group" parent="1" connectable="0" vertex="1">
          <mxGeometry x="1280" y="150" width="240" height="650" as="geometry" />
        </mxCell>
        <mxCell id="JD0N7b30WqXWXPYUDMMK-7" value="" style="rounded=0;whiteSpace=wrap;html=1;dashed=1;strokeColor=#757575;fillColor=none;" parent="JD0N7b30WqXWXPYUDMMK-15" vertex="1">
          <mxGeometry y="20.91" width="240" height="629.09" as="geometry" />
        </mxCell>
        <mxCell id="JD0N7b30WqXWXPYUDMMK-8" value="&lt;font style=&quot;font-size: 24px;&quot;&gt;Consume&lt;/font&gt;" style="rounded=0;whiteSpace=wrap;html=1;strokeColor=none;" parent="JD0N7b30WqXWXPYUDMMK-15" vertex="1">
          <mxGeometry x="30" width="180" height="31.358885017421606" as="geometry" />
        </mxCell>
        <mxCell id="JD0N7b30WqXWXPYUDMMK-57" value="&lt;b&gt;Power BI&lt;/b&gt;" style="image;aspect=fixed;html=1;points=[];align=center;fontSize=12;image=img/lib/azure2/analytics/Power_BI_Embedded.svg;" parent="JD0N7b30WqXWXPYUDMMK-15" vertex="1">
          <mxGeometry x="95" y="103" width="51" height="68" as="geometry" />
        </mxCell>
        <mxCell id="JD0N7b30WqXWXPYUDMMK-58" value="&lt;b&gt;Tableau&lt;/b&gt;" style="shape=image;html=1;verticalAlign=top;verticalLabelPosition=bottom;labelBackgroundColor=#ffffff;imageAspect=0;aspect=fixed;image=https://cdn1.iconfinder.com/data/icons/ionicons-fill-vol-2/512/logo-tableau-128.png" parent="JD0N7b30WqXWXPYUDMMK-15" vertex="1">
          <mxGeometry x="73.5" y="220" width="94" height="94" as="geometry" />
        </mxCell>
        <mxCell id="JD0N7b30WqXWXPYUDMMK-60" value="" style="shape=image;verticalLabelPosition=bottom;labelBackgroundColor=default;verticalAlign=top;aspect=fixed;imageAspect=0;image=data:image/png,iVBORw0KGgoAAAANSUhEUgAAAgAAAAIACAYAAAD0eNT6AAAAAXNSR0IArs4c6QAAAERlWElmTU0AKgAAAAgAAYdpAAQAAAABAAAAGgAAAAAAA6ABAAMAAAABAAEAAKACAAQAAAABAAACAKADAAQAAAABAAACAAAAAAAL+LWFAABAAElEQVR4Ae3dB5wU5f348e/s7vU7ehcUASOKYAUVYsQWNUUTjUaNaWpsMWrUEJP8YonGGmM0sf0TjS0IEozRqFFRsIEUu9jovcPBNe62zP95Fs8ccGV2p+yUz+R1ub2dmef5Pu9Zme/OPM8zIiwIIIAAAggggAACCCCAAAIIIIAAAggggAACCCCAAAIIIIAAAggggAACCCCAAAIIIIAAAggggAACCCCAAAIIIIAAAggggAACCCCAAAIIIIAAAggggAACCCCAAAIIIIAAAggggAACCCCAAAIIIIAAAggggAACCCCAAAIIIIAAAggggAACCCCAAAIIIIAAAggggAACCCCAAAIIIIAAAggggAACCCCAAAIIIIAAAggggAACCCCAAAIIIIAAAggggAACCCCAAAIIIIAAAggggAACCCCAAAIIIIAAAggggAACCCCAAAIIIIAAAggggAACCCCAAAIIIIAAAggggAACCCCAAAIIIIAAAggggAACCCCAAAIIIIAAAggggAACCCCAAAIIIIAAAggggAACCCCAAAIIIIAAAggggAACCCCAAAIIIIAAAggggAACCCCAAAIIIIAAAggggAACCCCAAAIIIIAAAggggAACCCCAAAIIIIAAAggggAACCCCAAAIIIIAAAggggAACCCCAAAIIIIAAAggggAACCCCAAAIIIIAAAggggAACCCCAAAIIIIAAAggggAACCCCAAAIIIIAAAggggAACCCCAAAIIIIAAAggggAACCCCAAAIIIIAAAggggAACCCCAAAIIIIAAAggggAACCCCAAAIIIIAAAggggAACCCCAAAIIIIAAAggggAACCCCAAAIIIIAAAggggAACCCCAAAIIIIAAAggggAACCCCAQLAFjGCH70z0dXV1fU3TPMIwjENUiXuqn0Hqp7v6qVQ/ReqHBQEEEEAAgVwFkmqHWvWzQf0sVOeZT9TvmepcM7WiomKVel3QJbIJQE1NTc94PP49dUC+r47AAQU9ClSOAAIIIBA1gTkqEXg0nU6Pr6qqWleIxkcuAWhoaNg1k8n8QmGfrX7KCoFOnQgggAACCHwu0KB+/00lA7eWl5cv81IlMgmA+qZfpE7+F6rf1ytgfWmfBQEEEEAAAb8I6ETgFpUE3KSSga1eBBWJBEBd7h8Wi8UmKtBhXqBSBwIIIIAAAnkKfKiuUn9X3Rb4KM/9Le8Ws7xlQDesr68/XZ38Z6nwOfkH9BgSNgIIIBAhgX30OUudu051u82hTgAU4EXqkv+jCrHcbUjKRwABBBBAwCGBCnXumlBbW3u5Q+W1WkxobwGooX0Xqhbf1WqreRMBBBBAAIEACKj+AJepfgG3uxFqKBMAfdn/82/+ob7C4cYHgjIRQAABBHwlkFFJwOkqCXjc6ahClwB83uFP3/Pnsr/TnxbKQwABBBAohECd6hg4yumOgaH6hqy+9Zd83tufk38hPqLUiQACCCDghkCFOrdNUOe4YicLD1UCoC79j1M49PZ38hNCWQgggAACfhAYrvq2OdopMDS3AD6f4U/Ps8zsfn74qBIDAggggIDTAvWqP8Ceqj/AcicKDs0VAHV/RH/75+TvxKeCMhBAAAEE/ChQ/vlU9o7EFoorAPrBPur+yBIlQgLgyMeCQhBAAAEEfCrQoJKA3Zx4gFAorgCop/qdqQ4UJ3+ffloJCwEEEEDAMYEydc47zYnSQpEAqJ6ROgFgQQABBBBAIPQC6pynH2Nvewn8LQDVK7KvUlhpW4ICEEAAAQQQCIaAygHMfpWVlavthBv4KwAK4Ug7AOyLAAIIIIBAwAQM1e9trN2YA58AqCERB9tFYH8EEEAAAQSCJKA6Ah5iN97AJwAKYKhdBPZHAAEEEEAgSAJ6PgC78YYhARhsF4H9EUAAAQQQCJjAELvxhiEB6GIXgf0RQAABBBAImEBXu/GGIQGotIvA/ggggAACCARMoMpuvGFIABx9OpJdUPZHAAEEEEDAAwHb574wJAAeOFMFAggggAAC4RIgAQjX8aQ1CCCAAAIIWBIgAbDExEYIIIAAAgiES4AEIFzHk9YggAACCCBgSYAEwBITGyGAAAIIIBAuARKAcB1PWoMAAggggIAlARIAS0xshAACCCCAQLgESADCdTxpDQIIIIAAApYESAAsMbERAggggAAC4RIgAQjX8aQ1CCCAAAIIWBIgAbDExEYIIIAAAgiES4AEIFzHk9YggAACCCBgSYAEwBITGyGAAAIIIBAuARKAcB1PWoMAAggggIAlARIAS0xshAACCCCAQLgESADCdTxpDQIIIIAAApYESAAsMbERAggggAAC4RIgAQjX8aQ1CCCAAAIIWBIgAbDExEYIIIAAAgiES4AEIFzHk9YggAACCCBgSYAEwBITGyGAAAIIIBAuARKAcB1PWoMAAggggIAlARIAS0xshAACCCCAQLgEEuFqDq1BAAE/C6Qypny4slHeWtYoC9Y3yaINSVm9JSWbG9LSkDSzoZcVGdK5LC59OiVk9+5FMrhHsRw4oET26VciiZjh5+Z1GNu8efNk8uTJMmPGDFm1alV2+759+8ro0aPl5JNPliFDhnRYRnsb7Fh+fX19e5tHfl15ebk46R800GD/16S06+rqtv2rETR54kUgIgLJtClTP6uXJz+okTcW1EtdU37/yVaWGDJmULl8a0SVjN2jXIriwfnnq6mpSW6++WaZNGmSZDKZVo98PB6XU089VcaNGydFRUWtbtPWm1bKb2tf3t8mYMe/UIYVFRW2/iOwtXOhGt2yXhKAlhq8RsA/Ahvr0/Lgm5tl/JzNUt3Q+kkv32i7lMXkeyM7y48O7ixdy+P5FuPJfvrkfP7558usWbMs1Tdq1Ci57777LCcBuZZvKYgIb5SrfyGp7CYA9AEo5NGjbgRCKFDXlJFbpmyQsXcslbtf2+T4yV+T6YTirlc3yeGqjj+8tEHqVZ1+XfQ3f6snf90Gve2tt95quTm5lm+54IhumKt/kJm4AhDko0fsCPhM4MVP6uR3/10vqzanPI2sX+eEXHV8Dzl6zwpP6+2oMn1PXt/bb+uyf1v768vRTzzxhAwePLitTbLv51t+u4WyUqz6F5qKKwCFPgLUjwAC0pgy5Tp14r9g4mrPT/6af6VKOM6fsFqu+Nca1ZnQP1cDdIe/XE/+uj3pdDrbWVC/bm/Jt/z2ymSddf+gWzEKIOhHkPgRKLCA7sV/zvhV8smapgJHIvLk+7Xy2dqk/O2MPtKrqvD/vOne/vku06dP73BXO+V3WHjEN7DiH3Qi+gAE/QgSPwIFFFiyMSnfe2ilL07+zQwfrW6UUx5YkR1i2PxeoX43D/XLp/6VK1d2uJud8jssPOIbWPEPOlHhU+SgCwYtfjMtRt0nEqt7T4yGxWJsXSpG01oxUzViZBpUawwxY6ViJKrELO4lZumuYpYNlEzFvmJWDFWr/d3jOmiHI8jxLlRj+E9TJ1rd299vy4rqlJz29xUy4cf91FwCxX4Lz1I8hhH4LlqW2unXjaLgTwLg10+fk3GZSYlVvyGxDf8VY/MsdaLfeXKQlv/UGOmkugmmEoLGlWLUvJuNRJ/2zViFmJ1HSab7cZLpMlolA7mNVXaySZRVWIE16rL/WY+u8uXJv1lmQ11avv/wKpl01i7SV3USLMSiJ5lZsGBBXlXrfTta7JTfUdlRX2/FP+hG3AII+hFsJ34jVS3x5fdK0bvfkMT8KyW2aVqrJ/92ithulZGpU2VMVWX9MltmfMV9YqQ2b7cNf4RfQHf4O1vd819erRJFny+6f8L5qmNik4q5EIue4S/fZcyYMR3uaqf8DguP+AZW/INORAIQ9CPYWvzpeokvu0uK3v+2xFc96MpJWp/44yv/rur4lkoy7lFXDPTtA5YoCOje/n7o8GfVeu6qRrnxhQ1WN3d0Oz0EUA8py3XR+5x00kkd7pZv+R0WHPENrPoHnYkEIOhHcIf4Y5tekaIPT5f46ke8OSmrE3981UPZOmObXt0hGv4Mm8ALH9fJhLe2BK5Zj8zeLC9/Vud53Hpufz29b67L6aef3uEcALrMfMvPNZ6obW/VP+guLW/9BrItTAX8+WHLNEpi+d0SWzOxoMcx3f14SQ/8pYjqSMgSLgE9vv74u5cH4tJ/a/J6sqD/XjhAyou9/d6TTCazUwHPnDmztbB2eu+QQw6Re++9VxIJa/0Wci1/pwp5YzuBXP2329njP5gIyGNwP1ane/EXfXxOwU/+2ia+4TkVy7liJNf7kYqYbAj8+ZVNgT3562bryYLufb3ahkB+u+oH++gT+hlnnNHu7QB92fnMM8/M6eSvI7Jafn7RR2evfP2DLMQVgCAfPR371uVSPO/S7G8/NcUs6SupL92RHUbop7iIJT8BPff+4X9aop7k559Z9vJpif72/8oluxbsAUJ6RICevU9PMtM8zrxfv36iO5zpe/4dTf3bUZt3LJ/HAbcvph8H7KR/+7U5v9buFQASAOePiWclGluXSOLj81QnP++/1VhppJnoKsm97hNRcwmwBFvgtpc3yj3qwT5hWH52eFe5ZGy3MDSFNkRcwG4C4O3NsIgfLCebbzStk8Rnl/r25K/baqQ2SdGnF6mJhtY42XTK8lggmTblMfVI37Asj87eIrpNLAhEXYAEIIifAN3hb95laqKeVb6PXvdPSMwbJ5Ip/DzxvsfyaYAvf1bvyiN9C9XcTWrmwlfn7zwZVqHioV4ECiVAAlAoeRv1JpbeLkb9PBsleLurUf+pJJbd6W2l1OaYwL8/qHGsLL8U9O8Pav0SCnEgUDABEoCC0edXsZ7NL7buyfx2LuBesbX/VNMRv17ACKg6H4FUxpTpC8P3bfm1BfWSVm1jQSDKAiQAQTr6ma1qhr87ghTxdrHGl/zBm8mJtquVP+wIfLCyUWobw3eirNmakY9Wc1vKzmeDfYMvQAIQoGMYX3F/IO77t0VqNK3OzhrY1nre95/A28sa/ReUQxHNXsL01Q5RUkxABUgAAnLgsnPvr5sckGjbDjO+dqIrzyZou0bW2BGYvy68CYB+nDELAlEWIAEIyNGPrR6vLp+H4F6senZAbM3jAVEnzEUbUqFFWEQCENpjS8OsCZAAWHMq7FZmMpAd/9pC0x0CRbWJxf8C+nG6YV301MAsCERZgAQgAEdf957XtwDCsui2xDa/GZbmhLodNY3p0LavtjHY0xqH9sDQMM8ESAA8o86/otiG5/Pf2ad7xjb816eREVZLgfqm8I0AaG5f0J9r0NwOfiOQrwAJQL5yXu1npsXYPNur2jyrx9isHo1q8g3MM3AqQgABBHYQIAHYAcRvfxp1H4uRqfNbWLbjMdK1ajbDT22XQwHuCpQXB/55YW0CVagnA7IgEGUB/gvw+dGP1b3v8wjzD8+oeTf/ndnTE4Gqkrgn9RSiksoS/vkrhDt1+keA/wL8cyxajcSoX9zq+2F4M6YeZ8zib4E+nRL+DtBGdP06h7dtNljYNUIC/Bfg84NtNIb3JGk0LvW5PuEN6lEkc5aGc8a8Qd2LPD/A8+bNk8mTJ8uMGTNk1aptT/Ps27evjB49Wk4++WQZMmSIrZh2LL++PgRzh9gSaX/n8vJycdK//dr8t5YEwH/HZPuI1ON0w7oYjavD2rTQtGuwSgDCuujkxqulqalJbr75Zpk0aZJkMtt3fl2wYIHon/Hjx8upp54q48aNk6Ki3GJrr3yv2hjEenSC5IR/ENuuY+YWgN+PXCp8HQCbyc10eNvW3Mag/z5wQGnQm9Bm/CN3K2tznZMr9Mn5/PPPl4kTJ+508m9ZTzqdlscee0zOO+88SSatT5RltfyWdfF6Z4F8/XcuKTjvkAD4/FgZmXBeftXsYW6bzz9WlsPbp1+JVJaEbyRAVWlM9updbNnBzob6m/+sWbMsF6G3vfXWWy1vn2v5lguO6Ia5+geZiQQgyEeP2BFwWSARM2TMoHKXa/G++K8MLpe4apvbi74nry/757roqwX60nRHS77ld1Ru1Ndb9Q+6EwmAz4+gGfPmMmUhGMLctkJ4ulXnicOr3Cq6YOWeOKLSk7p1h78d7/lbqVhfjtb7drTkW35H5UZ9vVX/oDuRAPj9CCYq/B5h3vEZ8fC2LW8UH+7YN7NUYslaH0aWX0jdyuNymLoC4MWie/vnu0yfPr3DXe2U32HhEd/Ain/QiUgA/H4Ei3v5PcK84zNL+uS9Lzt6I/Dcc8/JWT/6gcTmP+tNhR7UcubITlIUd//yv25K81C/fJq1cuXKDnezU36HhUd8Ayv+QSciAfD5ETRLd/N5hPmHZ5aEt235q/hjT9M05e67784OSWtoaJDEvKfVEym3+iM4G1GUq+l/vz+qs40SvNvVMLxJUrxrUbBqioI/CYDPP5OZ0oE+jzD/8DIhTm7yVyn8nnps9M9//vNsAqATgezSuEXi8/9T+OBsRnDWIZ2lq7oF4NWiJ5nJd7Gyr5Vt8q0/6vtFwZYEwOefcrNyX59HmH94ZtV++e/Mnq4IrFmzRn70ox/JlClTdio/8fHjYtQFd2IqPfXvuWO67NQuN9/QM/zlu4wZM6bDXe2U32HhEd/Ain/QiUgAfH4EzYqhYsbC11nOjFeKWf4ln+tHK7x33nknOxPdRx991HrDU41S9N7fWl8XgHev/XpP0bcAvFz09L7xeO5XHPQ+J510Uoeh5lt+hwVHfAOr/kFn8va/hqBrFSJ+Iy5m51GFqNnVOs3Oh6iZgPj4uYqcQ+F6ONlZZ50lGzZsaHev2IqZEl/wXLvb+HHlDw7uLEfs4U3P/5bt13P76+l9c11OP/10GTx4cIe75Vt+hwVHfAOr/kFn4l/gABzBTPdjAxBlbiFmuh+X2w5s7YqAHu98++23y9VXX215+tmi9x4QY9NCV+Jxo9DhajbDK4/u7kbRlsrUc/sffPDBlrbVGx1yyCFyxRVXWN4+1/ItFxzRDXP1DzITCUAAjl6myxgxE8HouWyF00x0kYy+AsBSUIG6ujq5+OKL5f77788tjnSTlLxxXSD6AwzoWiT3nd5XihOF61GvH+xz7733yhlnnNHu7QB92fnMM8/MbptIWH9Om9XyczvI0ds6X/8gSxXuvwqH1NQ/Yp93U3aoQJ8WE19xn8RX/t2n0eUWVrrfOZLe5ZzcdmJrRwWWLl0qF110kSxcmP83ebNqF2k64kYxS/yZnHaviMuEH/eT3bt7M+e/lQOkp/fVt1v0JDPN48z79esnusOZvudv5bJ/e/XsWD6PA25PS0Q/DthJ//Zrc35tRUWFrXO4rZ2db07uJUYhAdCXae/4w7Vy8ZgXpLwkdyNf7REvk+SIJ0N1RcNXvhaC0Sefyy+/XGpqaixs3f4mZmUfaTrsGjEr8x/u1n4N+a3t36VI/n5mX3Xyz+2xuvnVxl4IFEbAbgLALYDCHDfLtepHfep7fA888oQ8MsX6I0ItV+Dxhunep3Py99i8ZXX6wTQXXnihIyd/Xa5Ru1pKpv1a9Qno+ME1LeNw87W+5//42btw8ncTmbJDIcAVAB8fxurq6uxl2nfffTcbZZl6LOsz15dJ/x7BzNvM4j6S3OcxEXUVgMVbAf18+euuu06eeOIJdyqOFUlq3x9Jasg33CnfYqmnHdhJrjquR0Hv+VsMlc0QsC3AFQDbhP4sYMWKFfL9739fmk/+OsqGRlNuGN/kz4AtRDX5nT0kYwT9HoaFhvpsE51Innvuue6d/FV7y0uL5C8/HCb/7/Q+sksX6x3YnKLSnf3+ekZfuf4bPTn5O4VKOaEX4AqADw+xfsb3+eefL3pWttaWa39QIqcfEax7m/r2xXX/aJSvfOUrcvPNN0tVVfgeMdvasSr0e/qz9LOf/UyWL1/uWii9e/eWP//5z7L33ntn62hIZuSe16rloZmbpa4p41q9uuCKYkN+fEgXOf/LXaS0KJhXxlwFovBQC9i9AkAC4LOPx8yZM7NDs/QQrbaWEnXun/ibMtl7t9xnGGurTDff/3BxRk77fb00pbbVsttuu8kdd9whehITFvcEXnvttex48vY+S3Zr32+//bLHsnv3ncfZVzdk5ME3q+Ufc7bIpvq03aq2218/0lc/1e+HB3eRzmWc+LfD4Y/ICJAAhGgY4FNPPSVXXXWVpFKfnynb+Rj37hqTx35d6vv+AMvXqZP/DQ2ytnr70Zp6+I2+J33sseGb5Kidw+bJKv0AnwceeCB7Ys5k3PsGroet/fa3vxU9Dr29JZk25dX59fLvD2rltQX1UrM1v5g6lcbksMHlcuKIyuxvrx7p217bWIdAIQVIAEKSADzyyCNyyy23yBdPX7Pwqdq9T0zG/6pMunfy54WcDVtMOf3GBlm8uvV/8PXjNr/3ve9lv6XmMvGJBZrIbtLY2CjXXHONPP30064Z6AlT9ARCZ599ds51pDOmzF3dJHOWNMjCDUlZpH5WbU7J5q1pqW/aliSWq8v6nUvj0rdTXHbvUSyDexTJQbuqK159iiUe8+dnPWcIdkDAAQESgIAnAHqM/4033igTJkzI6+MwoFdM/n55mezay1//MC5fn5Gzb9sqi9o4+bds7MiRI+UPf/iDtHYZueV2vG5fYO3atXLJJZfIBx980P6GNtbqKze33nqrHH744TZKYVcEEHBCgAQgwAmAHuP/q1/9Sp5//nlbnwV9O+Dei0tk2EB/9AnQ9/zPv2Pny/7tNVJ3JPvTn/4kw4cPb28z1rUh8PHHH2c7+61evbqNLey/veuuu8pf/vIXGTRokP3CKAEBBGwL2E0A6D1j+xDkV8DmzZvlnHPOsX3y17Wv2ZSR7/6+QR5+sfATBU2clsx2+Nvxnn9HSnrEww9/+MPsNKkdbcv67QWee+45+cEPfiBunvwPPfTQ7FUqTv7b2/MXAkEW8Nd14zwkgzgVsB7jr4f5LVq0KI8Wt7/Lkfsl5OoflEnfrtt3umt/L/trdWe/3z3aKNPet9/b+5RTTpFf//rXHXYusx91sEvQ/UXuueee7E8ufUdybbU+Hr/5zW+Efhq5yrE9Au4K2L0CQALg7vHZqfSOxvjvtEOObwwYMED+et+fZbfYFImvfVwkXZ9jCbltXrdV5MEXmuS+Z5Ky9fNOXLmV0PrWeky5HirYt6+/5phvPVrv39UPedFJ0pQpU1yrXHf2++Uvf5l9ip1rlVAwAgjkLUACEKA+AFbG+Of9SVA7jhgxQu666y7p2rVrthgjtVliayZKbO1k0a+dXGob1cNWnquTR15KSnWtO1cbdDtuu+02GTVqlJOhB74sfbtET+7z0UcfudaWLl26yB//+EfsXROmYATsC9hNAOgDYP8YWCpBj/E/77zzxK1JWY488sjsc92bT/46KDPRWT1291xJ7vcfSe1xq2S6HSVmvNJSvK1tZMarVBlHq7L+IMVjpkq3/X4ldY3uTfu6adMm+clPfpL78+pbCz4k773zzjty6qmnunry32OPPbL3+0m8QvKhoRkItCHALYA2YJx8O58x/rnU/+1vfzs79ltfsu1wMTNi1H8iRs17Etu6RIzGpepnjZipGjEyDdndzViZGAl1si/uLVK6q2RKB4pZta+Y5Xuqx79tnzPqE9Jll10m69at67BqOxt87Wtfy7ZRD0OL6qKfI3/99deLfrCPW8thhx2WHeZXWZl/ouhWbJSLAALbC9i9AkACsL2no3/ZHePfUTB6Ip0LLrgg+3jXjrZ1c/3GjRuzz5efPXu2m9XInnvumR0qqPs5RGnRn6M777zT9SshZ555ZvbR07HY9klelKzdbqvuA6QTuRkzZsiqVauy1el+LqNHj5aTTz7Z9vTYO5av+4qwtC2gv1A46d92Te6sIQHwaR8Ap8b4t/Wx0d/29TSs3/nOd9raxNP3vTpJqQ98duIkfcsjCou+ZTRu3Dh55ZVXXGtucXFx9urKCSec4FodUS9Y/3ugH4I1adIkaWt6Zv3ftL69o493R9Mr7+hppfwd9+Hv7QXs+G9fknd/kQD4MAHQY/x1J623337blU+Czlp15zh9udZvyzPPPJM9mTQ0bLud4EZ8+srHWWedlZ31LszfVpcuXSoXXXSRLFy40A3GbJk9e/bMXl1gAibXiEWfnPWw31mzZlmqRPe9uO+++ywnAbmWbymICG+Uq38hqewmAFzrc/jo6TH++lKqWyf/Hj16yIMPPujLk7+m/PrXvy66z0P//v0dlv1fcXrM+/33359Nsmpqav63IkSvpk+fLt/97nddPfkPHTpUxo8fz+yLLn9u9Dd/qyd/HYreVk+3bHXJtXyr5UZ1u1z9g+xEAuDg0dP33/SMbG5M8KPD1Pe+H3744S+eu+5g6I4WpU8s+tkG+r6mm4u+LH7aaafJ/Pnz3azG87L1ZWLdt8PN5Oa4447LJmrMs+Du4dX/JujjmesyceJEWbBgQYe75Vt+hwVHfAOr/kFnIgFw6AjqMf76m78eo+3Gosf4629rej72ICx6HLmepe7CCy8UNy/TL1myJDtRjd3nKfjBVPfu1/06rr32WtF9KtxY9O0T/RQ//Q2zrKzMjSoos4WA7vDX1j3/Fpvt9FIff71vR0u+5XdUbtTXW/UPuhMJgANHsBBj/B0I2/UidKcanQDoHuxuDivTPZ2vuOIKuemmm1w7cbqNVV1dLeeee67861//cq0q3Xfk9ttvl5///OeiEwEW9wV0b/98F30bqKPFTvkdlR319Vb8g25EAmDzCOr73Xqe9FQqZbOk1nfXY/z1P9pB/rY2duzY7C2BwYMHt95IB97V/QIeffTR7AOWNmzY4ECJ3hWhL+PqWxluDqPUT1vUfUeOPvpo7xpGTV8M9cuHYuXKlR3u1jyUsMMN2SBnASv+ORfqsx3cm8bNZw11Ohx9iejGG2/MnticLluX55cx/k61beDAgfLYY49lk6UXX3zRqWJ3KkefRPVQqnwfLZwx07K6Zr4s3/yxrK9bJhvrV0hN43rZmqyTZFo9+EB9cS6KlUppUYVUlfSQbuW7SI+KAdK/817Sp2qIxAwLkzG1iPq1117LXr1wa4ZIXdV+++2Xfa5C9+7dW9TMS78LcJWmsEcoCv4kAHl8xvSwm1/96leOPMq3ter9Nsa/tRjzeU9fgtbzyz/wwAPZ2wJu3edufrSwvjKjJ1fpaElnUjJ/w2yZu3qqLNr4rjSl2xnCqB57kM7UytZUrVQ3rJFl1XO/KL44Xia7d9tf9ulzhAzufpDEY23/56WvWGgH/cCjfO4Rf1FpBy9OOumkbL+CXMeVd1Asqy0K6E6WVjrztVaclQ6adspvrU7e+5+AFf//bR3MV23/CxXM9rgedZTH+DuBq7Nq3QlNjzvX9+31LIJuLDpJu/rqq+XDDz9s89HC9cnNMnvZU/LOiuekIWl/OKFOHD5dNz37U1ZUJQfs8jUZOeAEKSvqtF0TGxsbs3MlPP3009u97+QfOom8+OKLs9ZOlktZuQnokTD5JgBjxozpsDI75XdYeMQ3sOIfdKLA9wRSl07deRRdK0dWj/HXE3q4NcxPj/G/++67fT/MrxWavN5avXq1XHrppdmTdF4FWNxp2LBh2VsCzRl9U6pB3lg8Ud5e8Yz6tq8u67u4FMdL5cD+35TRA08V/Xrt2rXZCYw++OAD12rVV1p0L//DDz/ctToo2JqAHqKqr0LlerVLJ3BPPPGEdNRvJt/yrUUf3a2s+hdaiImAPDoCjPF3HrpPnz7y0EMPie7o6OYyd+7cbL8APcHHZ+velL/OulDeXDrZ9ZO/bpNOMGYsmSR/nXmhvPzOP7NDFt08+ethonoOBk7+bn6irJc9ZMiQ7GfP+h7btjz99NM7PPnrLfMtP9d4ora9Vf+gu3AFwMIR1GP89eVUtzpq6TH+d911l7R8lK+FsEK1iZ4s5YYbbnDtSXfxIkMO/FYP2eOwwj7lbtHsWpk1cYOkmjKOH79DDz00O0V0p07b33JwvCIKzElAz++grxzqf0esLIcccojce++9kkhYu0Oba/lWYojyNrn6F9KKKwAu6zPG32Xgz4s/5ZRTsp3i9Nz0Ti/lXeJy7GX9Cn7y1+3afWSlHHNpHynvbO0fd6sW2k9PvMTJ36qYd9vpDpj6hH7GGWeIvrTc1qLX6cnEcjn567Kslt9Wvby/TSBf/yD7cQWgnaOnx/jfcsstontsu7HoS9/XXHNNu/8ouFGvn8vU98gvu+wyeffddx0Js7JHQo66sK/o335a6jam5OW7V8uWtUlbYel/tH75y19mTy62CmJnTwR0h0A9e5+eZKZ5nHm/fv1EdzjTIzY6uuffUZA7ls/jgNsX0/1lnPRvvzbn19q9AhC4BMAcOzbRYGw9MBNLf9kUY2hs2IhzzPXrROpUL+6tukOXalJpiUhFlRg9eoq5ywAx+qvpc/carm6YfUnU2bbDo8AY/w6JXN1A++vZA/UDf+wsnXoXyVcv6Scllf6c72prbVpe+NMqqckzCdDTLethlfrpZSwIIBA9gUgkAOYpw4obNlR8PW3I99Xp/Wh1mKvyOtRl5WLsd5DIEceIHHSwSKJop2IY478TScHesPNo4fIuCXWpXX3z7+avb/47YtZXp+X5P66U+urcZpLcY4895M9//rOrT13cMVb+RgABfwmEOgGoOX7/npIsusQw5XzF3t1R+irVUer4E8U44WSRTp2zRTPG31FhRwr75JNPskMFly9fbrk83eFP3/Pvukux5X0KueHGZY3y/O2rJJOydqvpsMMOyw7zc/P5CoX0oG4EELAmEMoEYO3YsZXlifr/E1MuUgwV1ijy3KpUPRHtG9+W1YcdJedefAlj/PNkdHM3/aCccePGZe+bWqln1HdVb/8x+V0kslK+G9t89toWmT2p42cY6E5i2sLNJyy60T7KRAAB5wVClwDUHTXqW+p70J2KaoDzXG2XuNY05PdrN8vLdY1tb5TnmgEDBsh9990XmEf55tlMV3fT/QK0oe4h3d7UuQP2rZCvnN3L1VjcKnza/1sjKz6sb7X44uLibIfRE044odX1vIkAAtETCE0CoDr3ldbFG24WMS8u5GF8unarXLe+Vhoy1i7HdhQrY/w7Espt/bRp0+TKK6+U2tranXZMFMfk67/exff3/XcK/PM36jal5D83rJBU4/ZzBOihkbpTpJ4+mQUBBBBoFrCbAPiie3T92IP718Xr3yz0yV+jfrOyVB7q20V6JToeLdB8ENr6feSRR2Z7skd5gp+2bPJ9v71HC+9zbOfAnvy1R0XXhAw7Zlt/lGafoUOHyvjx4zn5N4PwGwEEHBMoeAJQfeSBg824OU21aF/HWmWzoL1KEvJIv84ysCj/JECP8b/99tulrEz1MWBxVKD50cLHHKNGc3y+lFTEZc/Dtz95Nq8L0u+hh3eSkopt/1ked9xxoueiaH6GQZDaQawIIOB/gYLOA7DlqwcOjaXir6qh+85P/+aA/cZ0Rn6wslqWJNOWS9NPu7vgggvkwgsvtLwPG+Yn0PxI3ezl8eM7ybCvdsmvIJ/t9eHz1XJQn5Oyox+i8Exyn/ETDgKBEbB7C6BgCUD9kYfukjHSryvpgX7WXqOSgDNXbJLVqe3vy7YWs567+9prr5UTTzyxtdW855LAa6+/KlM33yJFZQX7ODvasoSUyWVjx0s85u85DBxtNIUhgEDOAnYTgILcAtAd/tTJ/xnV2oE5t9jjHXrHY3JH705S3MG5RU8pqSdm4eTv8QFS1fXaMxGak7/WS0mDLNz4lveQ1IgAApESKEgCUBuvu0Mp++aef0dHfO+SIvlF97afItejRw958MEHRU/QwuK9wNzV07yv1OUaw9gml8koHgEEchTwPAGoP3LUtw0xzs0xzoJvflqnMhlbvvPMcnqM/8MPPyx77713wWOMYgAZMy2LNjrz4CA/+S3c+I5kzI5vO/kpZmJBAIFgCXiaAJjfPLA8Y8gfg0X0v2h/3aNKymP/uxegx/jrIVq77qoeNsRSEIFVW+ZJU7qhIHW7WWljqk7W1CxwswrKRgCBiAt4mgDUNcSvUt4Dg2reNxGTs7uUZ8NnjL8/juKKLZ/4IxAXolhWPdeFUikSAQQQ2CbgWTfjLUeN6q4e6vNTZ+bXK9zhO1PdCtg45ggZd/3v1ZOF858noHAtCFfN6+uWhqtBLVqzoX5Fi794iQACCDgr4FkCoC6cX6ZO/m33pHO2Xa6Vpm8BXDl8TzE4+btmnEvBG0N8ktzYQAKQy2eBbRFAIDcBT24BmKcM06PozsstNB9v/ey/1VitpI8DjE5oWxo7foJeUDW2bF0b1NCJGwEEAiDgSQJQu6n8G8qiewA8rIW4ZbPIW7OtbctWrgo0JutcLb+QhTemwte5sZCe1I0AAtsLeJIAiGmcuX21IfjrlRdD0IjgNyGZ2Rr8RrTRgmQIRze00VTeRgCBAgi4ngCoWf8S6vL/UQVom6tVmu/MEfVgelfroHAEEEAAAQTcEnA9AWhINBykgu/kVgMKVm6deh79wnkFq56KtwkUxUpDS1EU50mSoT24NAwBHwi4ngCo2czG+KCdroRgzn3flXIp1LpASVGF9Y0DtmVJggQgYIeMcBEIlIDrCYCIsVegRHIJdvnSXLZmWxcEOpWEp2/pjjydSnvt+BZ/I4AAAo4JuD4PgLr/v2fQJ/9pS9tYsbytVbzvkUC38v6yrPojj2rztpru5bt4W6Gqbd68eTJ58mSZMWOGrFq1Klt/3759ZfTo0XLyySfLkCFDPI+JChFAwB0B1xMAdfLv707ohS/VXLdGVILDUkCB7uUDCli7u1Xr5MarpampSW6++WaZNGmS6tu6fefWBQsWiP7Rz7049dRTZdy4cVJUVORVaNSDAAIuCXhwCyCEHQCbD0ZDffMrfhdIYECX8N5h2rXLME9U9cn//PPPl4kTJ+508m8ZQDqdlscee0zOO+88SSaTLVfxGgEEAijgRQIQ+Ol/2zyuDUzU0qaNRyv6VA2R4hD2li9JVEivykGeKOpv/rNmzbJcl9721ltvtbw9GyKAgD8FvEgA/NlyogqFQMyIy+7d9g9FW1o2YlD3AyRmuP+fp77nry/757roqwX6tgALAggEV8D9f2FE1ID5kC5lDNPyw5Ed1mesH8JwNIZhvb1pk+7wt+M9fysN0bcD9L4sCCAQXAEvEoAtweXpIPKy8g42YLUXAkO6j5SyoiovqvKkjvKizqKvAHix6N7++S7Tp0/Pd1f2QwABHwi4ngCoXvKhHStn9Oztg0NICPFYQg7Y5WuhgTig/9ckbrg+QCfr1TzULx+8lStX5rMb+yCAgE8EXE8A1ICiT3zSVsfDMPuHdwia41guFzhywIlSHIKZ84rjpXJQf/3wTG+W+vr8R7LY2deb1lELAgi0J+B6AqCuAHzcXgCBXrfLroEOP0zB61sAB+7i3YnTLbuRA76lbmeE79EZbnlRLgII5C/gegIQy8TeyD88f+9pDBvh7wAjFt2Ygd+VzmXBvS3TqbSnHLLbyRE7ajQXAQQKJeB6AlBmlr6lGhe+joAVanqDQUyLWqgPbmv1FsVL5Ogh57S2KhDvHbvnBWpOg/A+3TAQB4EgEYiQgOsJgDFtWsowjSlhMzX2HykSc50vbGyut+dLPQ+R/Xc53vV6nK7goP7fFD2agQUBBBDwSsCTM5gh5qNeNcizesYe7VlVVJSbwNF7nCO9qwbltlMBt+5btYccMeTHBYyAqhFAIIoCniQAZd3rnlG4G0ID3KmLyAGjQtOcsDUkESuWU0dcHYj+AF1Un4Xv7Pt/kojxcJ2wfQ5pDwJ+F/AkATAmzW0yTeMev2NYju/rJ4okEpY3Z0PvBSpLuslp+14r5cWdva/cYo06tlNVjJXF3SzuwWYIIICAcwKencVMw/yTyjYuVY8HDvbDgUrLxPj6t507ApTkmkC38l3khwf+QSa8d7VsqvfXpDV6tIJOUHSMLOEXMDJ1Ymx6Q2I1c8Sony/SuFKMtJol3UzZa7yaMMqMq39SS/qJWb6HZKoOErPrGDFjzFJqDzYae3v6OPvao0beIGL8KtC03/2BGN/jfm2QjmFt40aZ9P7vZHWNPx5eo+/568v+fvjmv88++9g6lB9++KGt/UO/89alklj1iMQ2viiS2epNc2Olkun2VUn1/b5IKZOVeYNemFoqKipsncNt7Zxrk81vHlheVx+fq/YbmOu+vtheTf1r3PV39R8VDwHyxfHIIYhUJinTFjwos5c9lcNezm+6X7/j5Jgvneube/4kAM4f42yJmUaJL79P4msnqm/5aZcq6aBYdXUg3fu7kt7lXDViqaSDjVkdRAG7CYAnfQCaYY2n36o3DOPS5r+D9tu4QIXOyT9ohy0br+5kd/QeP5HvjPitdC7t5XkbdGe/U/a9So4f+lPfnPw9R4hKhVuXSdFHP5b4mvGFO/lra3V7Ib76H1L06U/FSK6Pij7tzEHA0ysAzXHVHD3qHsOU85v/DsJv4xsniZz7syCESowdCCTTjTJ9yeMyZ/nT0pRq6GBre6uL42Win1Nw6G7fET1Rkd8WrgA4e0SM+s8k8enFYqSqnS3YZmlmcS9JfemPYpYNsVkSu/tJwO4VgIIkAObYsaV18frpCnJ/P2G2GcuQPcW4+U6RouI2N2FF8AQakjXZWwJvr3hWGpJbHG2AfqSvfqrfyAEnSGnCv/1eSQAcPOz6m//HP/Hdyb+5hdkkYO+/i1nUvfktfgdcIJAJgDavO2ZMPzOT1M8JGKj/9u3Su68Yt/xZpCv/0fj2GNkMLJ1JycKNb8nc1dPU73ekMVWXV4n6RL979/1lWO+xMqj7AZ490jevYD/fiQTAjl6LfdU9/6KPz1E9/Oe1eNN/L82KoZIceh99Avx3aPKKKLAJgG7tliMO2jMWi72qXnp/U9YKd2c14c9Nd4qxCz1prXCFYZuMmZE1arTAsuq5sqF+hWxsWCFbtq6TrclaSX7ei7tI9bIuLaqUTiU91DC+/tK9or8M6Ly3mn1wsMQMT7vV2CYnAbBNmC0gvvTObff8nSnO1VLS/c5WHQN/4modFO6NQKATAE209eiRg9JiPG+a4q+bU737iHHNLSKc/L35JFNLQQRIABxgV0P9ij88vbAd/nJpRrxcksMncSsgFzOfbms3ASj415XSKbMXilF0uPqv523fGOt7/rf8hZO/bw4IgSDgXwE9zr9gQ/3yYUnXS3zl/fnsyT4hEyh4AqA9K158Y2VF8abRapIg1dOuwMux39jW4Y97/gU+EFSPgP8F9Ax/2Ul+/B/qdhHGNjwnRqZ+u/f4I3oCvkgANLvx3PzGypdmXmKY5gnqzyWeHwrd2e+qG8X46eX09vccnwoRCKaAnt7Xsxn+nCRKN4hRrftgs0RZwDcJQPNBqHh59tMV5em9TUN+r8YoqsmyXV7K1Kx+enrfv6gZ/g46xOXKKB4BBMIkoOf2D+oS2/JWUEMnbocEPHsYUC7x6hkD1fb/t+WoUbcbYlxiiHmB+rtHLmV0uK1+pK96qp/xzZPV44mqOtycDRBAAIEdBbIP9tnxzYD8bTSohxKxRFrAlwlA8xHp9NKsDer1VeYpw66vX191nMQzZ6rRAseo99TZO4+lslKM/UaKjD1a5IBRPNI3D0J2QQCBFgKNK1r8EbCXWwMce8Co/RqurxOAZjRj0twm9fop/WOeckq8fuPiA0zD+LJpmkNj++x/rrl+rbpZUKPGFH7+tK3S0m3f6nv03NaTv/9uYgwbLjJoDzUBhu/uejQ3k98IIBAwAUP1qA/qojswskRbIBAJQMtDZEyapB+tNfvzH6l7atq5BZnPuGVQvEYAgWgKmMngtjujv1exRFmAr8NRPvq0HQEEEEAgsgIkAJE99DQcAQQQQCDKAiQAUT76tB0BBBBAILICJACRPfQ0HAEEEEAgygIkAFE++rQdAQQQQCCyAiQAkT30NBwBBBBAIMoCJABRPvq0HQEEEEAgsgKBmwcgmkcqI0bjGpGmtWIkN4ok12V/G+q3qL+N1Cb1QJKUerpXg5iSEUnpRyiYYqRr5dqanlKcKJOYxMUwDClJVEjMiEt5UScpK6qSUvWjX1cUd5Gqkh7SubSXdCnrk/07mta0uiACDfVizpoh8sE7IosWiKxZLVKvPseplL1wEuqfuPJKkd59RHYfIjJifzFGHiqinwHCgkDEBUgA/PQBMNXJW00tGmtYKMbWxeofwIUSU7+zrzONliJtbVKkplTDF/s2JNWMiWrZKO1PA1oUL1HJQG/pUTFAelUOlJ4VA7O/O5f1FvV8hi/K4wUCdgTMFctEJj8m8tpU9dn/fCZPOwXuuK9OILZUb/uZ94nIC/8Rs0TNFPqVI0VOPl2Mfv133IO/EYiMAAlAIQ+1fiRn/WcSq3tfjJr3tv2kt52gCxmWrjuZbpT1dUuzP5+sfeOLcIrjZdKnaogM6DJM+nfZS3bpPFRK4uVfrOcFApYEGhvF/McDIk9PFknryT09XHSi8eKzIlNfEFM9DMz43lkixcUeBkBVCPhDgATAy+OgvsXHat6W2OYZ6mT/rmSfxqW/9QdoaVJJy9LqD7I/Omx9W6FnxW4ysNt+MqjbAdnEIBHjH9MAHVLPQzVXLhe54SqRpYs8r3u7CvXVgX9NFPOjD8T49e9EunbfbjV/IBB2ARIAl4+wkaredsKvfl2M6jfVffpwPYBDPZBJ1tYuzv7MWvqk6FsHu3UZIYO6Hyhf6nlwtl+By8QUHySBhfPU8z3Hbbsk75e4P/1IzMsvEOOqm0QGDvJLVMSBgOsCJAAuEBtN6yS28Xn185IYdeq+o+qQF5VF3zqYv2F29ufFefepWwR7ydCeY2SvXl+WypJuUWGgna0IZL/5++3k3xzn+nVi/u5KMW67V10J4HPazMLvcAuQADh1fPXlffUtP7bhuew3fjE9vq/pVDscLEdfHVhe/VH25+X590v/zsNk337HyJ49R2evFDhYFUX5XaBJPXnu5mv89c1/RzOdBFz3KzFuvFOkpGTHtfyNQOgESABsHlKjdq7E1z8lxsYpathduC7v26TZbveM6uvQ3Hfghfi9slfvr8gBuxwvvau45LodVEj/MB+9f9vwPr+3b/5nYk4eL8YZP/Z7pMSHgG0BEoC8CDPq2/50ia2ZKLEts/MqIco7Nabr5d2V/83+6FEEowZ8S/UXOFTNTxCLMkto254d6qd7+wdkMf49SeT4E7kVEJDjRZj5C5AA5GKnTlyxjS9IfLX6hrB1aS57sm0bAis2fyL/2nyTmnyotxzU/wR1i+CrUhxX47RZwiOgx/l7PdTPhp7ZoIbnTnhY5IJLbZTCrgj4X4CvXBaOkZHeIvHl90jRe9+UxOKbOPlbMMt1k+qGNTJl3l/lrjd+LK8vmiB6uCFLCATUDH/ZSX4C1hRTzREgKhFgQSDMAiQA7R1ddRKKr35EEu+dJPFVD3GPvz0rh9ZtVdMYv7boHyoROEv9Hk8i4JBroYrJTu/rxgx/bjdoq5pWe46ampgFgRALkAC0dnDNlMTWqTHtH5wi8WV3ZefUb20z3nNPQCcCry96TO6Z8ROZvewpSatjwhJAAT23f1CX9wMce1DNidtTAfoAbMdtSnzjixJTl/uNxlXbreGPwgjUN23O3hp4e8Uz8pVB38/OJ1CYSKg1LwH9YJ+gLosXBjVy4kbAkgAJQDOT6tSXWHKb6tU/s/kdfvtIYGP9Snnyw5vlna7/lWO+9JPs9MM+Co9Q2hJYE+BEevXKtlrF+wiEQoBbAJmtEl/xNymeeyYn/wB8pJdsek8emHWJTJ3/YPaBRQEIOdoh1qtOgEFdghx7UM2J21OBSF8BiG2aKvGlfxKjaY2n6FRmTyCjZll8c+lk+WTdG3L80ItkYNd97RXI3u4JpJLule12yUk1eyELAiEWiOQVAD1jX3zhNZKYr6b95OQf2I93dcNqmfDOb+W5T/4ienIhFgQQQAAB6wKRSwBiW+ZI4sPTJb7hv9aV2NK3AqZ60NK7K5+Xv828SE01/KFv4yQwBBBAwG8C0UkA1MN69JC+xKcXq2/9a/12HIjHpsCWretk/Du/zo4YSGcYMmiTk90RQCACApHoA2A0LJDEgt+K0cCwnjB/pvXTB/WcASs2fyonDrtCTS/cJ8zNpW0IIICALYHQXwGIqXH9RR+fw8nf1sckWDuv3PKp3D/rYvls3ZvBCpxoEUAAAQ8FwpsAqMfPZi/5L7hKPYiEOb09/Ez5oir9LIEnPrghO1xQXxlgQQABBBDYXiCUCYB+eE/is0uz8/iL6iTGEk0B3UFQDxf85wfXMUogmh8BWo0AAu0IhK4PgFE/T4rm/1KkkVm82jnukVo1f/1seXjOFXLqvtdI59JekWo7jUXACwF9xW3eulmypPp9WVu7SDY3rJXGVJ3tZ3jEjYSUJCqkc1kv6V05SHbrOkKG9BipHhle5kWzQl9HqBKAWM1bEv9snEimLvQHjgbmJrC+bpk8pJKAU0b8Vvp22iO3ndkaAQRaFdhQv0LeXDJZPl77qiszc+qHgNUnN2d/Vm2Zlx3yWxQvkb17f0UO2fU70q28X6tx8aY1gdAkALFNr0hiobrfr4b7sSDQmkBd06bsUMET1AiBPXoc3NomvIcAAhYEkulGeXXhozJn+dOiZ+b0ctF1v7fyRflw1VQ5aMAJ6iFh35NErNjLEEJTVyj6AMTWTs7O6sfJPzSfS9ca0pTemu0c+MGql1yrg4IRCLOAfjDXQ3Mul1nLnvT85N/SVV8dmLn0CZXU/0Zqmza2XMVriwKBTwDiqx9RT/G7VTU3Y7HJbBZ1gYwaIfLMx3eof8D+HXUK2o9ATgJrahbKI2+Nk3V1S3Laz82NV2z+RB6cfbnqe7DYzWpCWXZgEwA1sstIThtxhx7qx4JArgJ6hMBL8/4mry+akOuubI9AJAX0N/8J716VvR/vN4CaxvXy+HvXir7Nx2JdILAJQGra8BvVEL+LrTeVLRHYWeC1Rf+Q1xaN33kF7yCAwBcCqUyT/OvDm3x58m8OclsS8DtXOiM21xG234FMAJJT97leDFFj/VgQsC/w+qLHZMaSf9oviBIQCKnAKwseyQ7v83vzVtfMV3N/8N+y1eMUuAQgOXX4/4lh/MZqA9kOASsC0xY8pDoUPWllU7ZBIFICeqif7u0flEX37eFWgLWjFagEoGnqiEvVN//rrDWNrRDITWDq/Aey44xz24utEQi3gB7n7/VQPzuiTakG+vZYBAxMAtA0bfiPDcP8o8V2sRkCOQvojoHPf3q3zFs/K+d92QGBMAroGf70JD9BWz5c/bLo2FnaFwhEAqB6+x9miNyjmqJ+sSDgnoAeIvjvubeIfqIgCwJRF9DT++qJd4K26Pk+5q+fE7SwPY/X9wnA1teGD1K9/ScrmRLPdagwkgL6H7zJ798gm7eujWT7aTQCzQJ6bv+gLks2BTd2r8x9nQCY04d1i6flOYXR0ysQ6kFAC+iZxfS44sZ0PSAIRFZAP9gnqMu6usVBDd2zuH2bAJhzDixKJWOPK4kveaZBRQi0EFhft1SemvsHMdWsUywIRFGgumFNYJu9qWFVYGP3KnDfJgDpuuSdqk/WUV5BUA8CrQnoRwlPXzKxtVW8h0DoBZoCfAWsKcXVu44+oL5MANQsf6eob13ndxQ86xHwQkDPFLhgAx2KvLCmDn8JpDMpfwWUQzSpTDKHraO5qe8SgK0v7TNYXXD9azQPB632o4C+BfDU3NskyJdD/ehKTAggUFgBXyUA+r5/PG48qkg6F5aF2hHYXmBrqlaenHuz6EeQsiCAAAJhEPBVApCqadTP9T0kDLC0IXwCq7bMk+mLdb9UFgQQQCD4Ar5JAFKvjDhBzfHP0/2C/5kKdQveWDxBlm76INRtpHEIIBANAV8kAOaLB3ZW91mZ6S8an7lAt1L3BJPyYgAAHslJREFUB/jPJ3cwP0CgjyLBI4CAFvBFApAuarpdxdKPQ4JAEAQ2q7HRU+f/PQihEiMCCCDQpkDBE4DktGFHqF7/P2ozQlYg4EOBd1c8L0w16sMDQ0gIIGBZoKAJgOr1X25ITA/54yE/lg8ZG/pBoPnJgalMkx/CIQYEEEAgZ4GCJgCp2qbr1Lf/wTlHzQ4I+EBgQ/0KeWMxswT64FAQAgII5CFQsASg6dURB6h4L8kjZnZBwDcCM5c8IRvql/smHgJBAAEErAoULAEwTPMWFWTcaqBsh4AfBfTEQC98dp8fQyMmBBBAoF2BgiQAqZeHn8iDfto9LqwMkMDije+qZwW8FaCICRUBBBAowDBAc+rYhBmTG8BHIEwCL837G9MEh+mA0hYEIiDg+RWApLH+AuW6dwRsaWKEBHQ/gHdWPBehFtNUBBAIuoCnCYA5db8uarzfVUFHI34EWhOYvniSJNONra3iPQQQQMB3Ap4mACkj9Qs15L+H7xQICAEHBOqaNsnbK55xoCSKQAABBNwX8CwBMN8c0kmd/C90v0nUgEDhBGYs+ac0pRsKFwA1I4AAAhYFPEsAUo3lP1MxdbEYF5shEEiBhmSNzF72VCBjJ2gEEIiWgCcJgDl1YKmY5kXRoqW1URWYtfRJdRVga1SbT7sRQCAgAp4kAEmj8ifKo09ATAgTAVsCW1O18sGql2yVwc4IIICA2wKuJwDqgT9FarqBy91uCOUj4CeBWcv+JRkz46eQiAUBBBDYTsD1BCBd23iaIeZu29XKHwiEXKC6YY18tm5GyFtJ8xBAIMgCricAphjnBxmI2BHIV2D2cjoD5mvHfggg4L6AqwlA4yv77KWaMNr9ZlADAv4TWF79kaytXeS/wIgIAQQQUAKuJgAxM8a3fz5mkRZ4f9WUSLefxiOAgH8FXEsAzOmHlomYZ/q36USGgPsC76vRAEwP7L4zNSCAQO4CriUA6WTdKSqcbrmHxB4IhEegMVUn89a/GZ4G0RIEEAiNgGsJgGma54RGiYYgYEPg3ZUv2tibXRFAAAF3BFxJAMypI/qrcL/sTsiUikCwBJZVfyB1TdXBCppoEUAg9AKuJADJmJys5NSTf1kQQEBPCPTp2jeAQAABBHwl4EoCYJjmSb5qJcEgUGCBj9e+XuAIqB4BBBDYXsDxBMB8Y0QvVcWY7avhLwSiLbBs81ypadwQbQRajwACvhJwPAFIpsxvqRbGfdVKgkGgwAKqU6waDTCzwFFQPQIIIPA/AccTADXvP5f//+fLKwS+EFi44e0vXvMCAQQQKLSAowmA+fyICjGNIwrdKOpHwI8CSza9J6lM0o+hERMCCERQwNEEIFWa0ff+iyPoSJMR6FCgKb1VVmz+qMPt2AABBBDwQsDRBECN/OPbvxdHjToCK7Bgw1uBjZ3AEUAgXALOJgCmeWS4eGgNAs4KLFa3AVgQQAABPwg4lgCYr+9Zpa4AHOCHRhEDAn4VWFe7WBrT9X4Nj7gQQCBCAo4lAOlk0eHKLREhO5qKQM4CelbAVZs/y3k/dkAAAQScFnAsATBjMZ0AsCCAQAcCy+gI2IEQqxFAwAsBxxIAMc2DvAiYOhAIusCyakYCBP0YEj8CYRBwLgEQ2TcMILQBAbcFVm+ZJ6b6HwsCCCBQSAFHEgDzpb12U43oWsiGUDcCQRHQnQC3NKwNSrjEiQACIRVwJAFIG4n9QupDsxBwRWBt3WJXyqVQBBBAwKqAIwmAGTdJAKyKsx0CSmCtGg7IggACCBRSwJEEQM3/z/3/Qh5F6g6cwLq6JYGLmYARQCBcAs4kACJDw8VCaxBwV2B97VJ3K6B0BBBAoAMBpxKAXTuoh9UIINBCYHMjnQBbcPASAQQKIGA7ATBf3b+niruiALFTJQKBFWhKNUhDcktg4ydwBBAIvoDtBCCZTuohgCwIIJCjQHXDmhz3YHMEEEDAOQHbCUDMjJEAOHc8KClCAtUNqyPUWpqKAAJ+E7CdAJgxkwTAb0eVeAIhsKVxfSDiJEgEEAingO0EQD0DgA6A4fxs0CqXBeqbNrtcA8UjgAACbQvYTgBMw+jedvGsQQCBtgQaUnQCbMuG9xFAwH0B2wmAIWZn98OkBgTCJ9CQrCl4o4qKimzFUF9fb2t/dkYAgcIJ2E4AxDA6FS58akYguAL1PhgGWFFhbwTvqlWrgnsAiByBiAvYTwBMgysAEf8Q0fz8BBqaCn8LoFMne/n79OnT82s8eyGAQMEFbCcA6haAvX9BCk5AAAgURiCVaSpMxS1q3XVXe314J0+eLOl0ukWJvEQAgaAI2E4ATBGuAATlaBOnrwRSmWTB4xk0aJCtGObPny+PP/64rTLYGQEECiNgOwFQYZcXJnRqRSDYAmkfJADDhw+3jXjLLbfIzJkzbZdDAQgg4K2AEwmAtxFTGwIhEUibhb8CcPDBB6t+vIYt0WQyKeeff76MHz+e2wG2JNkZAW8FnEgA1F0AFgQQyFXAD1cAunXrJk5cBdBJwA033CAnnXSSPPTQQ6JvDTBEMNdPBNsj4K2AvdRfxZqcNrxW/bI3lsjbNkeiNjOxu6Req5DMlAWRaG8gGxmLifHkSwUPfcKECXL99dcXPA4CQMBvAuXl5dK3b18ZPXq0nHzyyTJkyBBfhaiG8do6h9vaWUuoBECPZarylUqEgzHjfSX9fh9JP/mpSIaLM77+KJSUiDHpvwUPcfPmzXLMMcfwjb3gR4IA/CwQj8fl1FNPlXHjxondCbScaqfdBIBbAE4diQKXYya6S3LxgdL0+xpJP/EJJ/8CHw9L1cfiljZze6POnTvLKaec4nY1lI9AoAX0cNfHHntMzjvvPNG3vMKwOJEAZMIAEdQ2mPEqSa0dKU23pCXzyEfqkgxjsgNzLG1Ow+tkO3/0ox+JvtzJggAC7QvMmjVLbr311vY3CshaJxKAuoC0NVxhGiWS3nKgJP+ift/3oUhdY7jaF4XW+CgB6Nmzp/z0pz+NgjptRMC2wMSJE2XBguD3r3IiAdhoW5MCrAsYcck0HiBNf+8uqTs+EnM9+Zd1PJ9tWVHpq4DOPPNM2XvvvX0VE8Eg4EcBfTtAz4IZ9MV+AmAICYAnnwJD0pnh0vTPXSV5y8diLtvkSa1U4p6AUeGvvrO6k9Ntt90mdh8Q5J4YJSPgH4EwPAfDfgJgkgC4/ZHMxIZK03/3kNTv54v50Wq3q6N8jwTMSn9dAdDNHjBggNx8882ikwEWBBBoW2DlypVtrwzIGtsJgGEaXAFw6WCb8UGSfGOYJK9dIubsZS7VQrEFEyj35/QZY8eOlauvvtr2DIEFc6ViBBCwJJCwtFU7G5lGRiUAtqcTaKeG6K0yE/0k/V5vxvKH/dB37ebbFuoZ/fRy7bXXMr2vb48SgRVSoF+/foWs3pG6bScA6mvCBmG+GUcOhpnoIal5AyUzUY3jT3KP3xFUPxfSvYefo8tO66unCr7yyiultlZP+MmCAALNAnp2wKAv9m8BiLk46AiFjt+M6bH8B6mx/CnJPDqXsfyFPiBe1d+9p1c15V2Pvh0wadIkRgfkLciOYRTQfWT01MBBX2wnABnTXBh0hILFnx3Lf5Ak/6zH8qsTP2P5C3YoClKxz68ANJvojoF6BrRf/OIXTBbUjMLvSAucfvrpMnjw4MAb2L55b04f1i3VFNsQeAkvG2AkJNMwXFKPrRFzOZf6vaT3U13GAxNFevTyU0gdxrJ+/Xp58MEH5fHHH+fZAR1qsUEYBQ455BC59957JZGwfwfdro/dZwHYTgB0A9QDgfRIgK52GxP+/fVY/n3UXP01Yn68JvzNpYVtC5SUivH4s6r/rCP/CbZdj0trtmzZIs8++6z85z//kffee09Mk45ALlFTrE8E9GV//c3/iiuu8MXJX7P4IwF4Zfgc1RHwQJ8cJ1+Gocfyp57NMJzPl0enAEHtPliMO/5WgIqdr3LTpk2i50d///33ZeHChbJs2TKprq7OXiFoampyvkJKRMAjAf18DN3bf8yYMdlOsX677G83AXDmGoYpuh8ACUArH0ozvrukXiuXzEt0lWiFJ7JvGbsMCE3bu3btKscee2z2JzSNoiEIREDAmQRA5OMIWOXURDPRX9Jv95D005/xaN6c5KKxsdmvP7NnRONQ00oEfCvgSAJgGMZb3APcdoyzY/nn7yaZCZ+qzhH0jfTtJ7/QgQ3ao9ARUD8CCERcwJEEIJ4y3krFo90JSI/lT6/eU9KPzlfD+T6K+MeK5nckYAwmAejIiPUIIOCugO15AHR4xlHvrVC/Vrkbqk9LZyy/Tw+Mj8PSjwHu1cfHARIaAghEQcCRKwBZKEPeViMBvh4FtG3tVWP56/eR1ITVaiy/msSHBQGrAoOGBHb4n9Umsh0CCPhfwLkEIGPMEcOMQALw+Vj+yVvE/ETd52dBIFeBocNy3YPtEUAAAccFHEsADMnMMUPerzkTGyapZ5rEnKPu87MgkKeAsffwPPdkNwQQQMA5AccSgLgkXk9JOqVCc6xM55ppryTG8tvzY+8WAobqdsMVgBYgvEQAgTwFGvPc74vdHOkEqEszjni3Wv2a80XJIXhhJnaR1Nz9pel3a5jIJwTH0xdNGLi7mr9TdQJkQQABBOwJ1Njb3elv64ZMUR0BD7EbVKH3NxPdJfXZrpKZqCbxSenHHLAg4IyAMWJ/ZwqiFAQQiLqA/tJta3HsCsDnUbxoK5oC76zH8qfWHiRNt6Ql849P1Mk/U+CIqD50AgeMCl2TaBACCBREYJ7dWh29X5/okXkztS5Wq4IK1jXOWKmkq9VT+h5ZLOZGhvTZ/VCxfxsCJSUie49oYyVvI4AAAtYF1Oy76hK1vcXRKwDGsLlNaiDAK/ZC8nBvQ43lbzxAmu7vKqk75qqTf52HlVNV5AT22U9EJwEsCCCAgE2BWCw2w2YRzvfYN03jGUP8Ph9ATI1XGCGpyer+/mc8x8juh4j9LQocFPjuMRYbymYIIOCygJnJZKbZrcPRWwA6mKJY/J+pTOpO9dLxsu02Vu+fiQ1VY/kzaiw/k/g44UkZFgXU8D/j0MMsbsxmCCCAQLsCsysrK9e0u4WFlY7eAtD1GV95Z536NU2/9tNixgdJ8vW9JXntEnXyX+an0IglAgKGHvvfrXsEWkoTEUDAbQH1BN5HnKjDlW/p6rmAjxsiRzsRoN0yzER/Sb/XU9JPqm/8mWg/sdCuJfvnL2COPizk82Tmb8OeCCCQk0B9KpWakNMebWzsSgJQFJd/ptLyF1VncRv1uv62Ge+hxvIP2DaWP73B9fqoAIE2BfTl/9FfaXM1KxBAAAGrAqr3///r1KnTeqvbt7ed47cAdGXGYR9sUr9ebq9it9aZ8U6fj+Vvksx4NZY/zVh+t6wp16LAcNX7v2dvixuzGQIIINCmQJ3q/f+HNtfmuMKVKwA6BnWP4jGVqRyXYzz5b25KXXrVwNXpJ7YMNjcxlj9/SPZ0WsA4yrv/DJyOnfIQQMA/Auqcen1FRcUKpyJSt+rdWczph5almmqXq9K7uVPDF6UmzZWxN5OPF+9p1hi9vniXFwj4QMAoKxPzwcmif7MggAACNgTeLy8vH6m+XDfZKGO7XV25BaBrMEbPaFC/HtSvXVoymQ3GrMa7Stc03V9yGCd/l5Qp1paAedhRnPxtCbIzAggogTo17v80J0/+WtW1WwC68HTavDseNy5VLx1NNMx64+3U4yXlmWUGE6traBbfChjHn+Db2AgMAQQCIZBRJ/4fVVVVOT5rnasJQOlRHy5IThs+RRF/1RHmRuPD5JNFqcxn8QMcKY9CEHBRwBim5v0fvIeLNVA0AgiEXUCd/C9Tl/7/6UY7XU0AdMCGKfeYhr0EwEzJQvOlojXJ2YlD1OOGXeu34AYwZUZXwPzaiXxYo3v4aTkCdgVUnz/zF6rT3x12C2prf9cTgPi6oU8ne32yVJ21d20riDbfz8jy9KtFi1OvJ0arE/+gNrdjBQJ+E+jRS039y9h/vx0W4kEgIAK16pv/j9XJ35Vv/s0Gjt6bby605W/j1ElpEfO2lu9ZeL0x9V78laabS3ukXkt8WZ38XY/TQkxsgoB1gRNPUT1sXM+vrcfDlgggEBSB99Pp9Ei3Lvu3RPDkcro5dWBpyqhaoCru17LyVl7XpT+Lz0k9Wby/NEqnVtbzFgL+F6isErl/Ir3//X+kiBABPwnUq2BuVSf+G9W3/0YvAvPkm7VxxOKtqjPAH9tpkB7L/1rTn0rrUhOLD+fk344Uq3wvYHzzZE7+vj9KBIiAbwTq1b3+O9RJ/0vqkv81Xp38des9uQKgKzLnHFieqm1apF62nKwnY26IzUlOLO5nbjD66+1YEAi0QHmFGH97TERfBWBBAAEEWhfQT6abrU72j6oH+zzm1Nz+rVfV9rue3aQ0DnqrPvnK8D+q+/k36XCyY/knFFdkVsQYy9/28WFNwASMb5/KyT9gx4xwEXBRQM/apzv0rVPf8hepn0/UXP5vqnv8U9W4/rUu1mupaM+uAOhozKnDKlP18WebnizqYi6MD7cUIRshEByB9Q1biwb1fOONmuCETKQIIBBVAU/6ADTjGkfMrW28rewJTv7NIvwOl4B5Eyf/cB1RWoNAmAU8TQA0ZMXm1F3q12dhRqVt0RNQN/QWVqQr9GebBQEEEAiEgOcJgPHWW8mYKVcGQocgEbAoEDflCmPatK0WN2czBBBAoOACnvYBaNna2iNHTVNjEA5v+R6vEQiowNTKl2YdGdDYCRsBBCIq4PkVgGZnM5G5SL1ONv/NbwQCKpBSo2n1Ey9ZEEAAgUAJFCwBqHphzodK6vZAaREsAjsL3F750sz3d36bdxBAAAF/CxQsAdAsFeXpa9UvPTkQCwJBFFhany7/XRADJ2YEEECgoAmA8fRb9aoTwsUcBgSCKGBkjAt6TZtWG8TYiRkBBBAoaAKg+StemvUf9ethDgUCwRIwHq2YOvPZYMVMtAgggMD/BAqeAOhQmoy0vgqw9H9h8QoBXwusSDUWceXK14eI4BBAoCMBXyQA3aa8tVk9LfBsFax+QAILAn4WUJ9R85wur7++yc9BEhsCCCDQkYAvEgAdZOWU2VMMMe/uKGDWI1BIAcOUv1S+NPu/hYyBuhFAAAEnBHyTAOjGlBdvulx9u3rbiYZRBgIuCLxf3hD/pQvlUiQCCCDguYCvEgDjufmN6XTiu0phi+cSVIhAOwJqtEptJpM51Zgxo6GdzViFAAIIBEbAVwmAVus8bcZ8NUXwBYERJNBICJimnNtp6pxPI9FYGokAApEQ8F0CoNUrp8warzoF/ikSR4BGBkDAvKPy5VmPBSBQQkQAAQQsC/gyAdDRV3QdeIX6RWcry4eSDV0RMOUl9Zhf/VlkQQABBEIlULCnAVpR3Hzsod0SqfQsNe5qsJXt2QYBhwUWZdLpUZ2mvbXe4XIpDgEEECi4gG+vAGiZzs/P2JiJZ76lXlYXXIoAoiVgyCZTjG9w8o/WYae1CERJwNcJgD4Q+qmBpmmeqF42RunA0NaCCjSpPiinVL0086OCRkHlCCCAgIsCvk8AdNurXp79qinmD9XLjIsWFI2AFtAz/Z1d+eLsl+BAAAEEwiwQiARAH4Cql2ZPVP8wjwvzwaBtPhAwjcvUTH+P+iASQkAAAQRcFQhMAqAV1D/Mt5mGXOuqCIVHVsAwzN9WvjyT4aeR/QTQcASiJeDrUQBtHYrao0fdpC7UMiVrW0C8n4/AHytfmqWmomZBAAEEoiEQyARA3aQ16o8cdYe6GvCzaBwmWumqgCm3q4l+LnO1DgpHAAEEfCYQqFsAzXYqazErXp51sRqmdV3ze/xGIC8BQ27m5J+XHDshgEDABQJ5BaClee2Ro36pnh1wU8v3eI2AJQF98p8y60pL27IRAgggEDKBwCcA+njUHjVS3bs1blUvQ9GekH3G/NgcdfFILlcn/9v9GBwxIYAAAl4IhOaEWXP0wScbpqmHb5V6AUcdgRVQk/zIj7MPnApsEwgcAQQQsC8QmgRAU9QcdfARhphPqJdd7NNQQggFqs2Y+a2qF2e/EsK20SQEEEAgJ4FQJQC65TVfPWgfScf+rRo2KCcJNg61gPo8LMiIcQLT+4b6MNM4BBDIQSCQowDaa59+dkAmER+pugNMaW871kVK4NVMcfJQTv6ROuY0FgEEOhAIXQKg26ufIliRLjteJQF3dtB+VodewLyjIl1+VNVz76wLfVNpIAIIIJCDQOhuAezY9pqjR55kmMb96n36BeyIE+6/a1Rnv/Pp7Bfug0zrEEAgf4HQJwCaZvMxB+8Rz5iPq5f75U/FngES+MjMmKdWTZ09N0AxEyoCCCDgqUAobwHsKNj5xZnz1GXgQ9UIgbvUOjWTMEtIBdTs0Mbd6lgfyMk/pEeYZiGAgGMCkbgC0FKr9qiDj1E5wAPqvf4t3+d14AXWqHkgflLx8uynA98SGoAAAgh4IBCJKwAtHStfmvliqrF4hLoOML7l+7wOsoA5IZ2I783JP8jHkNgRQMBrgchdAWgJXHfEwV9TE8Po2wIDW77P66AImCtNiV2ihvf9MygREycCCCDgF4HIXQFoCV8xdeazFeXpYerG8bXq/WTLdbz2tUDGFPP/NWwtHsrJ39fHieAQQMDHApG+AtDyuNQeMWpfiZl/UnMHjG35Pq99J/CqOk6XVL44+13fRUZACCCAQIAESAB2OFh1R478phjG7WqowOAdVvFnYQWWqXH9/1cxZdYj6kPLSI7CHgtqRwCBEAiQALRyEM3jh5TUNXX7qTrNXKlOOj1b2YS3vBPYoKq6RQ3tu9OYNm2rd9VSEwIIIBBuARKAdo6v+dURFXWp0otUEnCl2oyZBNuxcnqV+mDWqr4ZdyVTTTd1nfZutdPlUx4CCCAQdQESAAufgOovf7lrUXHTxeqE9DO1eXcLu7BJ/gIbTTHuyiRif9LPdMi/GPZEAAEEEGhPgASgPZ0d1mWvCKTLzlG3oC9Tq3bdYTV/2hNYrRKs+5KSvr3blLc22yuKvRFAAAEEOhIgAehIqJX15oEHFtV2iZ2kpp39qVp9WCub8JZFAfWgpjfUXAx3V2xKTzLeeouhmBbd2AwBBBCwK0ACYFNQTS08Qo1Jv1BBnq6K6mSzuKjsXqO68Y/X8/armRnfj0qjaScCCCDgJwESAIeOhjl2bGltrP6bhiE/UEUep34SDhUdlmIy6tv+DInJw3WpsvG9pk2rDUvDaAcCCCAQRAESABeOWv3Yg/tn4nKyevrgd9Q33dGqiqjOuJhRH7DpyuBfRqxoQsWLb6x0gZsiEUAAAQTyECAByAMtl13qjj2wbyYd+5a63P0NNa/AWLVveS77B3DbBhXzK+qD9aSZNv9dOW326gC2gZARQACB0AuQAHh4iPVtgrpYw1fUKILj1NwCY1XVI9RP3MMQ3KhKz8r3gRjmC2LGXqhIl73GhD1uMFMmAggg4KwACYCznjmVtuH4gzuVNqbHZIzYlw1TDlY3Cg5QVwm65lSI9xtvUVXOUWP134iZ6RlNmdQMJurx/iBQIwIIIGBXgATArqDD+289euSgpBk7QCQzXHWaG6quFHxJVbGn+ilzuKqOiqtXG8xX/RjmiWl8oD4o78di5nslU2YvUq/1t34WBBBAAIEAC5AABODgqbOt0TD24F1SRno3I2b0Vwetv+pXqCci6qYuvXcz1VUD9V439XeZShiqsk3a/kpCSr1f8/n7uvd9TfZv01Tf5mNr1Pl8rfp7uZjm2owYS+OxogV02Mtq8X8IIIAAAggggAACCCCAAAIIIIAAAggggAACCCCAAAIIIIAAAggggAACCCCAAAIIIIAAAggggAACCCCAAAIIIIAAAggggAACCCCAAAIIIIAAAggggAACCCCAAAIIIIAAAggggAACCCCAAAIIIIAAAggggAACCCCAAAIIIIAAAggggAACCCCAAAIIIIAAAggggAACCCCAAAIIIIAAAggggAACCCCAAAIIIIAAAggggAACCCCAAAIIIIAAAggggAACCCCAAAIIIIAAAggggAACCCCAAAIIIIAAAggggAACCCCAAAIIIIAAAggggAACCCCAAAIIIIAAAggggAACCCCAAAIIIIAAAggggAACCCCAAAIIIIAAAggggAACCCCAAAIIIIAAAggggAACCCCAAAIIIIAAAggggAACCCCAAAIIIIAAAggggAACCCCAAAIIIIAAAggggAACCCCAAAIIIIAAAggggAACCCCAAAIIIIAAAggggAACCCCAAAIIIIAAAggggAACCCCAAAIIIIAAAggggAACCCCAAAIIIIAAAggggAACCCCAAAIIIIAAAggggAACCCCAAAIIIIAAAggggAACCCCAAAIIIIAAAggggAACCCCAAAIIIIAAAggggAACCCCAAAIIIIAAAggggAACCCCAAAIIIIAAAggggAACCCCAAAIIIIAAAggggAACCCCAAAIIIIAAAggggAACCCCAAAIIIIAAAggggAACCCCAAAIIIIAAAj4V+P8UKEhh8kqAewAAAABJRU5ErkJggg==;" parent="JD0N7b30WqXWXPYUDMMK-15" vertex="1">
          <mxGeometry x="54.5" y="360" width="112" height="112" as="geometry" />
        </mxCell>
        <mxCell id="JD0N7b30WqXWXPYUDMMK-9" value="&lt;font style=&quot;font-size: 20px;&quot;&gt;Bronze Layer&lt;/font&gt;" style="rounded=0;whiteSpace=wrap;html=1;fillColor=#ffe6cc;strokeColor=#d79b00;fontStyle=1" parent="1" vertex="1">
          <mxGeometry x="400" y="210" width="240" height="20" as="geometry" />
        </mxCell>
        <mxCell id="JD0N7b30WqXWXPYUDMMK-42" value="" style="shape=flexArrow;endArrow=classic;html=1;rounded=0;fillColor=#dae8fc;strokeColor=#6c8ebf;" parent="1" edge="1">
          <mxGeometry width="50" height="50" relative="1" as="geometry">
            <mxPoint x="280" y="328.96" as="sourcePoint" />
            <mxPoint x="440" y="328.96" as="targetPoint" />
          </mxGeometry>
        </mxCell>
        <mxCell id="JD0N7b30WqXWXPYUDMMK-3" value="" style="rounded=0;whiteSpace=wrap;html=1;dashed=1;strokeColor=#757575;fillColor=none;" parent="1" vertex="1">
          <mxGeometry x="80" y="170" width="240" height="640" as="geometry" />
        </mxCell>
        <mxCell id="JD0N7b30WqXWXPYUDMMK-4" value="&lt;font style=&quot;font-size: 24px;&quot;&gt;Sources&lt;/font&gt;" style="rounded=0;whiteSpace=wrap;html=1;strokeColor=none;" parent="1" vertex="1">
          <mxGeometry x="140" y="150" width="120" height="30" as="geometry" />
        </mxCell>
        <mxCell id="JD0N7b30WqXWXPYUDMMK-25" value="&lt;b&gt;&lt;font style=&quot;font-size: 14px;&quot;&gt;CRM&lt;/font&gt;&lt;/b&gt;" style="image;aspect=fixed;html=1;points=[];align=center;fontSize=12;image=img/lib/azure2/general/Folder_Blank.svg;" parent="1" vertex="1">
          <mxGeometry x="155.94" y="240" width="69" height="56.00000000000001" as="geometry" />
        </mxCell>
        <mxCell id="JD0N7b30WqXWXPYUDMMK-26" value="" style="image;aspect=fixed;html=1;points=[];align=center;fontSize=12;image=img/lib/azure2/general/File.svg;" parent="1" vertex="1">
          <mxGeometry x="203.48" y="253" width="40.58" height="50" as="geometry" />
        </mxCell>
        <mxCell id="JD0N7b30WqXWXPYUDMMK-27" value="&lt;span style=&quot;font-size: 14px;&quot;&gt;&lt;b&gt;ERP&lt;/b&gt;&lt;/span&gt;" style="image;aspect=fixed;html=1;points=[];align=center;fontSize=12;image=img/lib/azure2/general/Folder_Blank.svg;" parent="1" vertex="1">
          <mxGeometry x="155.94" y="360" width="69" height="56.00000000000001" as="geometry" />
        </mxCell>
        <mxCell id="JD0N7b30WqXWXPYUDMMK-28" value="" style="image;aspect=fixed;html=1;points=[];align=center;fontSize=12;image=img/lib/azure2/general/File.svg;" parent="1" vertex="1">
          <mxGeometry x="203.48" y="373" width="40.58" height="50" as="geometry" />
        </mxCell>
        <mxCell id="JD0N7b30WqXWXPYUDMMK-34" value="&lt;b&gt;Object Type&lt;/b&gt;: CSV Files&lt;div&gt;&lt;br&gt;&lt;div&gt;&lt;b&gt;Interface&lt;/b&gt;: Files in Folder&lt;/div&gt;&lt;/div&gt;" style="text;html=1;align=center;verticalAlign=top;whiteSpace=wrap;rounded=0;imageVerticalAlign=top;labelPosition=center;verticalLabelPosition=middle;" parent="1" vertex="1">
          <mxGeometry x="106.06" y="470" width="138" height="120" as="geometry" />
        </mxCell>
        <mxCell id="JD0N7b30WqXWXPYUDMMK-6" value="&lt;font style=&quot;font-size: 24px;&quot;&gt;Data Warehouse&lt;/font&gt;" style="rounded=0;whiteSpace=wrap;html=1;strokeColor=none;" parent="1" vertex="1">
          <mxGeometry x="700" y="150" width="200" height="30" as="geometry" />
        </mxCell>
        <mxCell id="JD0N7b30WqXWXPYUDMMK-10" value="" style="rounded=0;whiteSpace=wrap;html=1;fillColor=none;strokeColor=#d79b00;" parent="1" vertex="1">
          <mxGeometry x="400" y="240" width="240" height="530" as="geometry" />
        </mxCell>
        <mxCell id="JD0N7b30WqXWXPYUDMMK-35" value="" style="html=1;verticalLabelPosition=bottom;align=center;labelBackgroundColor=#ffffff;verticalAlign=top;strokeWidth=2;strokeColor=#d79b00;shadow=0;dashed=0;shape=mxgraph.ios7.icons.data;fillColor=#ffe6cc;" parent="1" vertex="1">
          <mxGeometry x="487.38" y="290" width="65.24" height="79.1" as="geometry" />
        </mxCell>
        <mxCell id="JD0N7b30WqXWXPYUDMMK-44" value="&lt;font style=&quot;font-size: 16px;&quot;&gt;Raw Data&lt;/font&gt;" style="text;html=1;align=center;verticalAlign=middle;whiteSpace=wrap;rounded=0;fontStyle=1" parent="1" vertex="1">
          <mxGeometry x="420" y="386" width="200" height="30" as="geometry" />
        </mxCell>
        <mxCell id="JD0N7b30WqXWXPYUDMMK-13" value="&lt;font style=&quot;font-size: 20px;&quot;&gt;Gold Layer&lt;/font&gt;" style="rounded=0;whiteSpace=wrap;html=1;fillColor=#fff2cc;strokeColor=#d6b656;fontStyle=1" parent="1" vertex="1">
          <mxGeometry x="960" y="210" width="240" height="20" as="geometry" />
        </mxCell>
        <mxCell id="JD0N7b30WqXWXPYUDMMK-14" value="" style="rounded=0;whiteSpace=wrap;html=1;fillColor=none;strokeColor=#d6b656;" parent="1" vertex="1">
          <mxGeometry x="960" y="240" width="240" height="530" as="geometry" />
        </mxCell>
        <mxCell id="JD0N7b30WqXWXPYUDMMK-37" value="" style="html=1;verticalLabelPosition=bottom;align=center;labelBackgroundColor=#ffffff;verticalAlign=top;strokeWidth=2;strokeColor=#d6b656;shadow=0;dashed=0;shape=mxgraph.ios7.icons.data;fillColor=#fff2cc;" parent="1" vertex="1">
          <mxGeometry x="1047.38" y="290" width="65.24" height="79.1" as="geometry" />
        </mxCell>
        <mxCell id="JD0N7b30WqXWXPYUDMMK-46" value="&lt;font style=&quot;font-size: 16px;&quot;&gt;Business-Ready Data&lt;/font&gt;" style="text;html=1;align=center;verticalAlign=middle;whiteSpace=wrap;rounded=0;fontStyle=1" parent="1" vertex="1">
          <mxGeometry x="980" y="390" width="200" height="30" as="geometry" />
        </mxCell>
        <mxCell id="JD0N7b30WqXWXPYUDMMK-11" value="&lt;font style=&quot;font-size: 20px;&quot;&gt;Silver Layer&lt;/font&gt;" style="rounded=0;whiteSpace=wrap;html=1;fillColor=#f5f5f5;strokeColor=#666666;fontColor=#333333;fontStyle=1" parent="1" vertex="1">
          <mxGeometry x="680" y="210" width="240" height="20" as="geometry" />
        </mxCell>
        <mxCell id="JD0N7b30WqXWXPYUDMMK-12" value="" style="rounded=0;whiteSpace=wrap;html=1;fillColor=none;strokeColor=#666666;fontColor=#333333;" parent="1" vertex="1">
          <mxGeometry x="680" y="240" width="240" height="530" as="geometry" />
        </mxCell>
        <mxCell id="JD0N7b30WqXWXPYUDMMK-36" value="" style="html=1;verticalLabelPosition=bottom;align=center;labelBackgroundColor=#ffffff;verticalAlign=top;strokeWidth=2;strokeColor=#666666;shadow=0;dashed=0;shape=mxgraph.ios7.icons.data;fillColor=#f5f5f5;fontColor=#333333;" parent="1" vertex="1">
          <mxGeometry x="767.38" y="290" width="65.24" height="79.1" as="geometry" />
        </mxCell>
        <mxCell id="JD0N7b30WqXWXPYUDMMK-45" value="&lt;font style=&quot;font-size: 16px;&quot;&gt;Cleaned, Standard Data&lt;/font&gt;" style="text;html=1;align=center;verticalAlign=middle;whiteSpace=wrap;rounded=0;fontStyle=1" parent="1" vertex="1">
          <mxGeometry x="700" y="390" width="200" height="30" as="geometry" />
        </mxCell>
        <mxCell id="JD0N7b30WqXWXPYUDMMK-47" value="" style="shape=flexArrow;endArrow=classic;html=1;rounded=0;fillColor=#dae8fc;strokeColor=#6c8ebf;" parent="1" edge="1">
          <mxGeometry width="50" height="50" relative="1" as="geometry">
            <mxPoint x="580" y="328.96" as="sourcePoint" />
            <mxPoint x="740" y="328.96" as="targetPoint" />
          </mxGeometry>
        </mxCell>
        <mxCell id="JD0N7b30WqXWXPYUDMMK-48" value="" style="shape=flexArrow;endArrow=classic;html=1;rounded=0;fillColor=#dae8fc;strokeColor=#6c8ebf;" parent="1" edge="1">
          <mxGeometry width="50" height="50" relative="1" as="geometry">
            <mxPoint x="860" y="328.96" as="sourcePoint" />
            <mxPoint x="1020" y="328.96" as="targetPoint" />
          </mxGeometry>
        </mxCell>
        <mxCell id="JD0N7b30WqXWXPYUDMMK-49" value="" style="shape=flexArrow;endArrow=classic;html=1;rounded=0;fillColor=#dae8fc;strokeColor=#6c8ebf;" parent="1" edge="1">
          <mxGeometry width="50" height="50" relative="1" as="geometry">
            <mxPoint x="1160" y="328.96" as="sourcePoint" />
            <mxPoint x="1320" y="328.96" as="targetPoint" />
          </mxGeometry>
        </mxCell>
        <mxCell id="JD0N7b30WqXWXPYUDMMK-50" value="" style="endArrow=none;html=1;rounded=0;entryX=0.167;entryY=0.667;entryDx=0;entryDy=0;entryPerimeter=0;" parent="1" edge="1">
          <mxGeometry width="50" height="50" relative="1" as="geometry">
            <mxPoint x="600" y="450" as="sourcePoint" />
            <mxPoint x="440" y="450" as="targetPoint" />
          </mxGeometry>
        </mxCell>
        <mxCell id="JD0N7b30WqXWXPYUDMMK-51" value="" style="endArrow=none;html=1;rounded=0;entryX=0.167;entryY=0.667;entryDx=0;entryDy=0;entryPerimeter=0;" parent="1" edge="1">
          <mxGeometry width="50" height="50" relative="1" as="geometry">
            <mxPoint x="880" y="450" as="sourcePoint" />
            <mxPoint x="720" y="450" as="targetPoint" />
          </mxGeometry>
        </mxCell>
        <mxCell id="JD0N7b30WqXWXPYUDMMK-52" value="" style="endArrow=none;html=1;rounded=0;entryX=0.167;entryY=0.667;entryDx=0;entryDy=0;entryPerimeter=0;" parent="1" edge="1">
          <mxGeometry width="50" height="50" relative="1" as="geometry">
            <mxPoint x="1160" y="450" as="sourcePoint" />
            <mxPoint x="1000" y="450" as="targetPoint" />
          </mxGeometry>
        </mxCell>
        <mxCell id="JD0N7b30WqXWXPYUDMMK-53" value="&lt;b&gt;Object Type&lt;/b&gt;: Table&lt;div&gt;&lt;br&gt;&lt;div&gt;&lt;b&gt;Load&lt;/b&gt;:&amp;nbsp;&lt;/div&gt;&lt;div&gt;&lt;ul&gt;&lt;li&gt;Batch Processing&lt;/li&gt;&lt;li&gt;Full Load&lt;/li&gt;&lt;li&gt;Truncate &amp;amp; Insert&lt;/li&gt;&lt;/ul&gt;&lt;div&gt;&lt;b&gt;No Transformations&lt;/b&gt;&lt;/div&gt;&lt;/div&gt;&lt;/div&gt;&lt;div&gt;&lt;b&gt;&lt;br&gt;&lt;/b&gt;&lt;/div&gt;&lt;div&gt;&lt;div&gt;&lt;b&gt;Data Model: &lt;/b&gt;None (as-is)&lt;/div&gt;&lt;/div&gt;" style="text;html=1;align=left;verticalAlign=top;whiteSpace=wrap;rounded=0;" parent="1" vertex="1">
          <mxGeometry x="430" y="470" width="180" height="280" as="geometry" />
        </mxCell>
        <mxCell id="JD0N7b30WqXWXPYUDMMK-54" value="" style="endArrow=none;html=1;rounded=0;entryX=0.167;entryY=0.667;entryDx=0;entryDy=0;entryPerimeter=0;" parent="1" edge="1">
          <mxGeometry width="50" height="50" relative="1" as="geometry">
            <mxPoint x="280" y="450" as="sourcePoint" />
            <mxPoint x="120" y="450" as="targetPoint" />
          </mxGeometry>
        </mxCell>
        <mxCell id="JD0N7b30WqXWXPYUDMMK-55" value="&lt;b&gt;Object Type&lt;/b&gt;: Table&lt;div&gt;&lt;br&gt;&lt;div&gt;&lt;b&gt;Load&lt;/b&gt;:&amp;nbsp;&lt;/div&gt;&lt;div&gt;&lt;ul&gt;&lt;li&gt;Batch Processing&lt;/li&gt;&lt;li&gt;Full Load&lt;/li&gt;&lt;li&gt;Truncate &amp;amp; Insert&lt;/li&gt;&lt;/ul&gt;&lt;div&gt;&lt;b&gt;Transformations:&lt;/b&gt;&lt;/div&gt;&lt;/div&gt;&lt;/div&gt;&lt;div&gt;&lt;ul&gt;&lt;li&gt;Data Cleaning&lt;/li&gt;&lt;li&gt;Data Standardization&lt;/li&gt;&lt;li&gt;Data Normalization&lt;/li&gt;&lt;li&gt;Derived Columns&lt;/li&gt;&lt;li&gt;Data Enrichment&lt;/li&gt;&lt;/ul&gt;&lt;div&gt;&lt;b&gt;Data Model:&amp;nbsp;&lt;/b&gt;None (as-is)&lt;/div&gt;&lt;/div&gt;" style="text;html=1;align=left;verticalAlign=top;whiteSpace=wrap;rounded=0;" parent="1" vertex="1">
          <mxGeometry x="710" y="470" width="180" height="280" as="geometry" />
        </mxCell>
        <mxCell id="JD0N7b30WqXWXPYUDMMK-56" value="&lt;b&gt;Object Type&lt;/b&gt;: Views&lt;div&gt;&lt;br&gt;&lt;div&gt;&lt;b&gt;No Load&lt;/b&gt;&lt;/div&gt;&lt;div&gt;&lt;b&gt;&lt;br&gt;&lt;/b&gt;&lt;/div&gt;&lt;div&gt;&lt;div&gt;&lt;b&gt;Transformations:&lt;/b&gt;&lt;/div&gt;&lt;/div&gt;&lt;/div&gt;&lt;div&gt;&lt;ul&gt;&lt;li&gt;Data Integrations&lt;/li&gt;&lt;li&gt;Aggregations&lt;/li&gt;&lt;li&gt;Business Logics&lt;/li&gt;&lt;/ul&gt;&lt;div&gt;&lt;b&gt;Data Model:&lt;/b&gt;&lt;/div&gt;&lt;/div&gt;&lt;div&gt;&lt;ul&gt;&lt;li&gt;Star Schema&lt;/li&gt;&lt;li&gt;Flat Table&lt;/li&gt;&lt;li&gt;Aggregated Table&lt;/li&gt;&lt;/ul&gt;&lt;/div&gt;" style="text;html=1;align=left;verticalAlign=top;whiteSpace=wrap;rounded=0;" parent="1" vertex="1">
          <mxGeometry x="990" y="470" width="180" height="280" as="geometry" />
        </mxCell>
        <mxCell id="JD0N7b30WqXWXPYUDMMK-61" value="" style="shape=image;verticalLabelPosition=bottom;labelBackgroundColor=default;verticalAlign=top;aspect=fixed;imageAspect=0;image=data:image/png,iVBORw0KGgoAAAANSUhEUgAAAgAAAAIACAYAAAD0eNT6AAAAAXNSR0IArs4c6QAAAERlWElmTU0AKgAAAAgAAYdpAAQAAAABAAAAGgAAAAAAA6ABAAMAAAABAAEAAKACAAQAAAABAAACAKADAAQAAAABAAACAAAAAAAL+LWFAABAAElEQVR4AexdB2AcxdXe2b2T5N5l44J7lQu25SJZzb0bF0QvMTWE8EMgCSSBxAQSSAJJgARCqKEay9i4d6tYcm/Ylm1cMc1gMC64SLq7nf+b2XJ7p5Osk06yZL+173bqmzff6va9efNmRlHoIgQIAUKAECAECAFCgBAgBAgBQoAQIAQIAUKAECAECAFCgBAgBAgBQoAQIAQIAUKAECAECAFCgBAgBAgBQoAQIAQIAUKAECAECAFCgBAgBAgBQoAQIAQIAUKAECAECAFCgBAgBAgBQoAQIAQIAUKAECAECAFCgBAgBAgBQoAQIAQIAUKAECAECAFCgBAgBAgBQoAQIAQIAUKAECAECAFCgBAgBAgBQoAQIAQIAUKAECAECAFCgBAgBAgBQoAQIAQIAUKAECAECAFCgBAgBAgBQoAQIAQIAUKAECAECAFCgBAgBAgBQoAQIAQIAUKAECAECAFCgBAgBAgBQoAQIAQIAUKAECAECAFCgBAgBAgBQoAQIAQIAUKAECAECAFCgBAgBAgBQoAQIAQIAUKAECAECAFCgBAgBAgBQoAQIAQIAUKAECAECAFCgBAgBAgBQoAQIAQIAUKAECAECAFCgBAgBAgBQoAQIAQIAUKAECAECAFCgBAgBAgBQoAQIAQIAUKAECAECAFCgBAgBAgBQoAQIAQIAUKAECAECAFCgBAgBAgBQoAQIAQIAUKAECAECAFCgBAgBAgBQoAQIAQIAUKAECAECAFCgBAgBAgBQoAQIAQIAUKAECAECAFCgBAgBAgBQoAQIAQIAUKAECAECAFCgBAgBAgBQoAQIAQIAUKAECAECAFCgBAgBAgBQoAQIAQIAUKAECAECAFCgBAgBAgBQoAQIAQIAUKAECAECAFCgBAgBAgBQoAQIAQIAUKAECAECAFCgBAgBAgBQoAQIAQIAUKAECAECAFCgBAgBAgBQoAQIAQIAUKAECAECAFCgBAgBAgBQoAQIAQIAUKAECAECAFCgBCoIQh88cUXtb799tt7T5482aiGsExsEgKXFQKuy6q31FlCgBCodAS+/vrrpj7O79AYe0DX+RWFhYVn0Og7ld4wNUAIEAJhIUAKQFhwUWFCgBAoCYHPPvusPWPagz6f707G1NocBRnjCudsCoKkAJQEHKUTAhcJAXaR2qVmCQFC4BJBYP/+/f00zf2gqio3MMZcEP4KU5miMgYFQFVUlZ1HV5u1aNHi7CXSZeoGIXBJIEAWgEviMVInCIGqRYBjWA/BPxwC/wEI+Qlc0THSVyUTYtSvcCb+K/gWFoBaUAJGI3NO1XJJrREChEBpCJACUBo6lEcIEAIBCOTn50dB6F+/b9++X0O8x0HCi/8Q+ELmc4Qh8hEOoQSIaQBSAALQpAghcHERoCmAi4s/tU4I1AgEMNqvX1BQMJ2p6i9VpraGEmCa+QPN/U7TvzMMC8Cp48ebx8bFsaIa0WFikhC4DBAgC8Bl8JCpi4RAeRHYunVrW03THjx3/vydEPx1nSN9OyzM/WggeNQfNA3QoFmz70ag2OLy8kL1CAFCILIIkAIQWTyJGiFwSSCwYcP2Li6X7zcQ6zfpXHGL2X3M5gsprxhT/Ia531YCTNO/zNTZJq7yxVAIfg8lgFm+AFgSeDPIkAJwSfyFUCcuBQRoCuBSeIrUB0IgQghs3LgxDk57j8BkfwNM+C6M+iHzHeb+oDDKIV9OA+yG138G2Hi/Y8eO+wQ72AgoD3UTZT7qoew5WBNaNGvW7McIsUtkCAFCoAIIkAWgAuBRVULgUkFg/fr1vXVd+SVG6TdCVmtyfG869mHYX8KoX9mt6yxDVfWZXTp13RsCi5lwCEwUlcVIA4pFbV3XhTPg2yHKUhIhQAhUMQJkAahiwKk5QqA6IZCVlZegupTHMHofiw8G61i3L0b5cqQfIqyyHzVVfQ/LAP/Ts2fPT0rry+HDh1u4XK4vQVRzOAQub9GiuVgSSBchQAhcZARIAbjID4CaJwQuBgLZ2dm9MCJ/HII5vZjAN836Ml1u6CM389kLG/5b8AX4b+/evU+UlWdMA6yEMoH9AuzVAjqUgiubNm36VVlpUDlCgBCoHARoCqBycCWqhEC1RGD16tWY41f+6NP5FDnQl2Z+jPgFt8iAz54090uXP8YKIPAzkPSfq666am05O/QByEIBEA2J/0zFVsHXgdbfy0mPqhEChECEECALQISAJDKEQHVGYPHiVR01F5+BUf2NGPXDHw+CHuZ+YeoPET6GIs8riv7KoEGDjlekX3u/+65enYKCr2ABqOeYBtiFaYBeFaFLdQkBQqDiCJACUHEMiQIhUG0RWLx4cWvOtF9pTLkHAj/aKfCl4DcVAUMJYJ+pTPtnVJTr1fj4+HOR6tTnn3/xL2gc9zmmAYTiMaR58+bltSpEijWiQwhc1gjQFMBl/fip85cqAhD89b268lus4X9AVXiMYdqHDR4CH98w8xvmftF/5B/B7Y+eIs/bQ4cO9Yq0SF6c6y9xrv1M7ghgbxqk3IM2SAGIJNBEixAIEwGyAIQJGBUnBKozArNmzdKio2vdhUn9J2DGjxVmd2PUbzvhIW6HjzJN/VNs06avxsXFVeoWvXAGXI12hzqmAc7HxES3atiwYZkdCqsz7sQbIVATERAbfNFFCBAClwACs2d/PNrlivpE5/rLGObHyp37MNIXlxUWMYTPK1x/0uMp6jw0NfXflS38JQOK8m/TC1BaIBCuVVRUdIuZRzdCgBC4CAiQBeAigE5NEgKRRGD27Nli975nMboeI3fuK3nUDwM8m6lp7NGRI0d+HkkeLkQL+wZoX3755Q5VVXs4LBD58APoeaG6lE8IEAKVgwApAJWDK1ElBCodgTffnNuwVq2iP8G5724IVZexLa/w6jdM/E7TP8L7NJX9dMyYMZmVzlgJDWAaYCr4/MjiUygCCCfHxsbmllCFkgkBQqASEaApgEoEl0gTApWFwPvvv39DdEzhHpj0fwabOpx5YdgX5n75X3zhgwupRfh6snatmD4XU/gLXlq3bj0XHG0y2TS448qDIo8uQoAQqHoEyAJQ9ZhTi4RAuRF44733Orh1/m+M+seYI+gAJ7+gUb9lDTiK0X8uV9U8F2O5o0aN2opyhoZQbk7KV/Hzz78epWl8meDddAj0gVJXTAUcLB9FqkUIEALlRYAUgPIiR/UIgSpE4JVXXnHHxNT+Fbz7H4PwrGWu25ce/Va4BNO/pQQ4FYVjUAg2YmngJswbbPZ4PJtHjx59rKq689VXXy2FAjJaKgFiIyKVvYBpgAeqqn1qhxAgBAwESAGgvwRCoJoj8PrrryfhPJ3/QGjGXXjULw/wOYXRdYMLKQTGRkDGSBwKwefQED6BZSFfY2wn2tp96tSpPePGjSuMNDxHjhzp4HK5d4LH2iYPZ6Ki3G0aNWp0MtJtET1CgBAoGQFSAErGhnIIgYuKwN//PqtWvXo/PgNBeT8EP/6J7XvFun7pPOcc0QeHP1G46ybVzZNVzkarmoq9+Fk9oz4Evhh1S1qBYVMYW6Z5sVWwF20dQZMHFFU7qDF+AF78Bzh34SAfz9FDhw4du/baa4UJP+zr66+//j9sR/S86I9oV1G0R5o3b/rXsAlRBUKAECg3AqQAlBs6qkgIVB4CL7/8Wl9V099lTMOyOWkmNwS/FNymEmCEiyCkoyzPev+oX3l72tSptwkOX3lls/uKK44lYvkfzO7KaAj2vqBpKhShlAChaEhLglQW7LAU1kZ5Q3CrOsgcQ/hbcPgVqhwDv2Lf/29VlR/DqX8/wjHxPFg4jXIIx5x3u71nrrzyytNI048ePToXZa82lYAvmzVr1gHlPIJnuggBQqDyESAFoPIxphYIgTIjIHbyO378hJjrf0IKdqfAt0b/RtpSRJ/CiDwa0no5ysKKH2ghgDLw4JQpV+NQn8Br2bJlsbrORqHGaNAYCgHfCoK3FKuAQyEI5MHwLzDblcpHUNhQTKA0oJ7kz+/8VwiePcivK9pGWNE09Sc4Jvh/gdxSjBAgBCoLAVIAKgtZoksIhInAP/7xcruoKP42pGWyFMhBwlYISQjR7xSN/XT6rbfOsch/8MGHf4DCMMMQ4oawNcM+jMivmTJl4sdW2VD3zMzMdj6fkgQBPASyGP4GYrMefEthHsIS4EwP4jGUEmAIf8NyUIpCIJSA/c2aNe2Otss1rRCqb5RGCBACJSNACkDJ2FAOIVBlCPzzny/cqmraixB+9W0hCUFrhU1hvJkp+tTbb7/9CydjM2bMUDt37bFcUxUx12+MyqVglmGc6qcOhRKw0VmntPCaNWsawXSfCBUgCe0KhSAewjnG4MGk71QCnGE50jeEvVPwO8NWnySvpgJhWQhg0bgFVoB3S+OP8ggBQiAyCJACEBkciQohUC4EZsx4M6ZBg9P/gZC9zRCI5kjZFKp+IcnyasVEj7v55pvF/HmxCxsDNWeaazOEdOsQSsBxl0tNmzBhwq5iFcuQgJMFo+GhH6+qrkSw1R/CGj4Eaie0hQG/UyEIEZb5honfEvKoZk4JhLQK7IUC0BN9ICtAGZ4NFSEEKoIAKQAVQY/qEgIVQOC5555rA+/3jyAYB4QcFUPamum7o9zakOnTp5e6TG7mzJkDIFlzIJVjhLAVgtaoLwXzN1ACUsePH7+vAizbVXNzc+vFxNTtA8c/OCuyPmgTSxRZN7TbMNQ0gNmPUL4AAXxK5YApN8Ih8AO7MQoQAoRApSBACkClwEpECYHSEXj22WdTdEWdhVF0c5i9IQSFkDac7WTYMo3De15lvO8999xzsHSKRu6HH354M6TsO1IISxrmqNwYiX/hcmlDsba/TLTK0l5wmb1797b0+Xzd0Scxl98Zn7aqql0JwX4l9JEmlnJwAYVgd9OmTXqhrh5Mn+KEACEQOQRIAYgclkSJECgTAs8889f7YPL/B4SkWwh78bGUAGdYKgRMvePee+9+o0yEzUIfZmT8DVR/GUoJAP2vXZo6EkrA7nBoRqIs1v7Xxq6D7UCrMT6NNE2Dr4HaCPrPdCgEffxTAxKP65s0afJhJNolGoQAIRAaAVIAQuNCqYRAxBF44YUXos+cO/9vCOc7LIFvj4SlEiCUgYB58fU/u/cezLuHt2+/cArs3r3Xe6qmXF+CEnACBoGxmA7YEPFOhkHwwIFvYqNjvC9B0Zkm+m1gYWCAFQmHGjduLKwIRWGQpKKEACEQBgJ0GmAYYFFRQqC8CODkHebe/+lNtU+dHCtoyJP75D0wLM7vM/KxUw7jvwxX+Iu6UACwQY/vNjSyBKcBhjolsBFX2LIlS5YMl41dhC9sB5weFVW0C+xNM3ssDzC0wrrOOxw/fvzui8AaNUkIXDYIkAXgsnnU1NHqgMDytCHxZ2LqPHmiXbveJ9q2b8nd2McnaBrA9AXIu//nP0uqCM/Ce//cufMZmG6YKNoIYQ3wwBJw79ixY1+vSDvh1N2/f39rzeV6DrxcK3mSfgrWqgAGxQV2AMNfQeDyHT6dMBUQcuVDOO1SWUKAECiOACkAxTGhFEKgUhGYlZ6uNfjq8KPYvOd3Z2Jb8JNXdqj9Y8tWih4VY3n9I4t9jznyXHFiH4zjq5s2bbCpPPvui1MEmzaNfR1C9ZYSlADR1jMbNqz7nbAcVFbHIfjrQ6I/AuXmQQj52n4hbwl/9VPO9euxffD/kN/bysdUyZ8wFfBYZfFFdAmByxkBUgAu56dPfb+oCCxPvOoqbID7LqYD4iDolYImzZQfr2ilnMWnsEks9u+x5sUhJBX2Heb033S7XK/cfvvth8Jl/KO5836DgfVTUALEEFsux3MqBBDMizHvfuuIESOOh0u7tPKbN29216tX724I/z+g3WayzcBRP7quvVa7dswvxUgf5wMMhNBfi3I4lFD2/xzw6YK9AXAAEV2EACEQSQRIAYgkmkSLEAgTgcVjO0W7Tzd4Cm5+D6Gq7ZPD3W7lfJOmSkHT5kpBs1ilsFkLxVertrAQCDP5Ry6N/Xr69OmfhdPcRx9/PEJT1Lcwum5lTjPI6QcrjPsRKAHXDh8+vMy7BpbUPrYXdsXGxl4HdeP3EPxdhOA3RvVQPswwJiV2Qsf5Rdu2bVc56XzzzbF/QvY/IPlCADy9gY2I7nCWoTAhQAhUHAFSACqOIVEgBCqMwMrEvglcUd+GbOwU+KOE4DSpe2vXhmWgmVLY/AqlMPaKQk9s7LOFuv5n7BGA7X4DLxwqVAspjXWXq5Gb88ZYbtdYdbFGjLPOGGE/BGEcLUfjpjXAUgKQVoQB+m+x0c8/yjMlkJ+fX9fr1bHKgf0CbbS1rA3y7lcCjiD4+/bt27+L9opNOxw7dqwu58oW1O9iKgE+KAEDGzZsuDWwlxQjBAiBiiBgvVsqQoPqEgKEQAQQWNG/fwMWw1+HyJ8myNmi3/ErdQQV7nYpRY2aFnobNPqisEVLr+eK1qq3ceO6OBiwMQSnfzdAv+AtZvovpgT4FYI8bBo0PTU1dX9ZurZ+587m0V79fjR1LwQ32veP9B3h71Sm/RnrG17u3LlzYWl0oQRchfx1sHbEQJkQVoMNsAKIJZHFFIbS6FAeIUAIlIyA831ScinKIQQIgSpDYHXSgLuxJu5FaABRVqPFfqhIsBUEqxDuPMqteOA/4MW0gSf2CsUXi6kDTCVAKSgm/B2j/lArBESasCw8Xr9+3Rfj4+M9jmZkEHPzbNOmTSlM0+6AuE+HcIbSgXl7p8JhhHdoqvpi7dq132vTps35YDolxaEE3Aea/zJ9ATD9od4FK8BrJZWndEKAEAgPgWLvlfCqU2lCgBCoDARWJ/UfBBEvdsJrG/AjZcpxCH4N6Q2d7ULOFruMJKbwmBgoA80VH/wIvOZdgVKguFymsDZG64EKAVqxhDlje2GC/1VycvJC0QimB1riYKDbcAbAdAjnzsUFvlQCcBQxm4ezDl7s1at7VjHmyphw7PvvM+AYcY2pBIiVEd3q168fUUfFMrJCxQiBSw6BEK+NS66P1CFCoEYisDQhoXG05nkPzI8xHAHkmP9rCPv0lJxN69cmJjb1ujydMK/fgzPeFeUG4jMIP+poYR8w6hhdD/6hc01T9KbNpIVAh6VAfHiLFgqDo6EQ/BDexZQDjMBXQBAXIGssyrik4EfEVhRgqoeJfzM2LhQH+Xx41VVXVdhzH5sB1dc534i2ugolAA38t3HDhvcYvaJvQoAQqAgCwe+FitCiuoQAIRBhBMSeAU2/Ofw3iORfOEgXYQe9X6TlbnrJkSaDaxMSanncvgSsJxiGlQXX4AcuFAP/Zf7ijVvgz1/E9IYNFd6suaLjo+DDMYWg4MOiooopBLbgZ+wo5ulfxuh8Zt++fcvkM+Bn6MIhKAE94BS4AW3UhWKiQxEZ3KBBg00XrkklCAFCoDQEAt8ApZWkPEKAELhoCGQlDZiOEf3LYADe+wYbnCmv1T2j/yx+y5Zi8/MWoznJg/spzHcDHPNuQVpzo2rgz96iZ9Wx7lYpLmYcGmHGAasPFEwhKLEtZVhtDsUAyxUxOsfSRDYfAvp1+AUsC+UvYNEs7x1KQLqYEkEb4toKBWAQ7t7y0qN6hAAhEGAkJDgIAUKgOiOQkxw/BLvmzAGPsRafMMAvjypk6YM3bCh1u9y81IEJqJuHepZch5nfouK/+5MQ8kecQX9hmPwVLEtUhWKAD2vRUtFaXHFCi42dpbij38UUQK6/cMVDUAKexTTAw1ACBLHfwSEQKwroIgQIgfIi4PiJl5cE1SMECIGqQmBN0oAOusqW4YfbSbYpf8F8p4+p44ZmbfiyND5y0wa/hXUCt5Uq+IMyQ74gkFg83Z+CVQEKwyoEtVGTE/pnB19RCs5twzz+3iZRjT/tvGRJqcv/SuMf1gXXiRMn4IfA0jD9UIiVBf2xy2B+aXUojxAgBEpGwP+rLbkM5RAChEA1QiAvMTHW6/Yuwo83XrBl/oiP6JyNTM3ZUOIcfO7IIS2Z13sAVcQmQfISdbFO4BHY8I8iEIsjCFtCwDZDMqYLOIb20toQi7wg1UBU978+ZMgfFZkBl5nlU9xR37o6dm6otmjhcV3RhmtXtOLuK1qfdjVq+CNG94UY3Z9CRS/8CU5h3V8R3P7Ogh+xBFB+EI7FZ7JIgxKwqX69emJvAJoKCECbIoRA2RAo5SdbNgJUihAgBKoegWWjetepXVgrAyN6ebyw5IAp30Imj07O3PhJSRzlDR34HAT3Q/YPX4p19mzi6nW/KqlOfnpc1LkTtVt7Fa0DRDE+egccJ9xB0ZWWcMwXSkKH4Lo2fSvDTrADDvUBHNWuo2iwGrhatlHcrfBp3lxxtboS4dbYChgWBbGxEEz/xsoDeUaAXKkA4f8bLAt8xmqG7oQAIVB2BPy/xrLXoZKEACFQDRDIj4uL+qFp7f9BEl5v/JDxzZUfIKDHDMneFNJLPm9UYizz6EcgfWOsLqDWV4NT1l/JZkCkl+MSNLHdcC9YD+IUpveEOO8P+r1Ayl3MSlAafcfbyAqyqGjFjZMS3TggSSoGUA6i8YmCoqBFRwkloBCffpgK2F0aacojBAiB4ghYv7PiOZRCCBAC1R4BsUyw5XdH/gdBe5PFLAb1JyHJRyRnbthipTnva4fCF4Aptzl//Fi7P2zwqg2ZznIVCYvliK56Sl9s3DsQo/cUrvA00Gtk0zQbd/Jg54UMFCvJXfUbnHQ1bnKcxdTaU7Bn1xxMCuzSYwp2xy/Yci4kCUokBAiBAASK/aoCcilCCBAC1R4BoQS0+v7zNzH6v8VhV/+B+dQRiTnrtgV3IG944gCV6/4T//AWwJ4Brw5evf7u4LKRivMZirp1bVJfmCiGQRmYCLqJ+IgdDR2X/3XkDyE7IOIoHjoorBiHuaLsUrmyG3MGO4HL7uj6J/bEZeQXha5CqYTA5YlAeD+tyxMj6jUhUO0REAJ2XfbgNyBcbxPMmj/s4/CdS8HIvph5fN2wwRtQaKD9AmDsRL1Gp1tUlZDcOja5mc+nT0L7T+Ij/AhspmW4jF82/xcuD0dBth99zme6vgsKQr6u8F0/FkUfGJqVRU6EF8aPSlyCCITx+7kEe09dIgQuIQSEErA2e9C7+FHfIKWp8ev+XNe0hKQVeV87u7phRMKtWFb3vwCpC+/6wSvXznOWq6zwltEJneDV92+MzkeV1EaZX05lLuhoCRqAeQmrwB5YJnbDl2CnUAyY4tvRd+n6z6wCdCcELlUEyvPTuVSxoH4RAjUeAeGxf+p4/QUQaFKwih845ve341zB1MFL/JsFZaalxdTSCo8iu6F8CRhvgncGrVx3a2WCINqtH+N9FKcdPoJ2nI6IolkPVhe8heWHd1k8wJ9hFtK+gWNjDIRzPUVR4VjIG2Ik3wjKQxPkNcFSQaSHd/nlv6gXGDMp/YD0baC/TeVsm+7zbjvYqM2+azMyfOG1RKUJgeqLACkA1ffZEGeEQLkQgJCtG6MWrELlgZIAfuUY3S53nSia4Nw2eMPwxHcx+W87D6Ls8SONWjevLCG3ZUzCaIWr/wI7xiZGzt4xtlbT9Xt+KIo60CDGc97Iglufwqb3XbrmLWfR4PDm/v3dStPaTVVNbyWXJiqsNUT6FVAM2uLeEUQ6QsZjD+PwLr9aYIfOgsIOrvNtoLkZixM39knI21Pe1RPhcUOlCYHII0AKQOQxJYqEwEVHYHNa/6Ye1b0Ggqqb9SPHaPZ/g1etm464lGjrRyROw2h7tmDWLqOpKYOW5a2JZAc2jktr4fZ5nkej19p07QaVk0j7Td+EvP9agnTbmKRTSKsvy3LlT32X5T5m1ytnIB9KUWG0tyMsCl1wUFIcEIgDKfHpjLArHLKGOmArBdiCmW/inG0A7Q1uj3dDr1Ubvg2HHpUlBC4WAtbP8GK1T+0SAoRAJSGwNi2hk6rxDRDvje0mVOXJwSvW/V7EP8FmQoV6ne8QNHYGhATDC+GvA1asFeb5iFxbRydOQ/v/AeGmfoKyHcwCsA+x5d+DAxdnfePPU5RtY5L3Q6jCR0BoKuzDfkvWXO/Mj2RYTJl4TzfuqatKf0yV9MdqiP4Q7b3RRpQt4u1A6JaNbEchrhxByfVIwUfNOVS/xSeVZVUJzRGlEgJlQ4AUgLLhRKUIgRqJwLoRg0cwzpbgh+6yhvkQdNMHrlj/lujQxhGJ8zANMEnYAMyXwR4oAD0q2tnNI/o3ULWYF0DU9Cmw6Qvzwxdo855+S/KWhGpn+5ikPNQTywTFteWqJblyy2MjWvnfQinw/NhITJ+kYQPCVBxFLHipLVq2xbwdEKmBl5FlFjBup1ExF/MwOYz71viOF21yTsUE1qYYIVB1CJACUHVYU0uEwEVBYOPwxP/jjD9vNY4ffYGu6kmDl2/YsmHkkDsxDfCq80Wgqrxz/2XrDljlw73DhJ+G5YhvQeS3DaqLE4yVN7zemIfjV64UZv6Q1/axSXORMdnMPAUFAGcRX7xLKARFZxoPgPhPA/+p4EQoBHUER6aYdwREqv8y8s1SdmHlHIBYr+g8B/QyTxVFraWliH7MKFR1CDh/91XXKrVECBACVYoAlv29jh/77bJRBGBaP6J5ouKZq6CZzlR7nwDMAojr/+KXr31RhsL4Eh7+DWp5n4IZ/ReoBh88x8WUo7BETL9q6ZpljtSQwe1jU16BleJuK9PHlVhMA4ipimpxCadDV7NaD8NK8SQYCvAfkDLeL+gD+IVS5I8HBoUfwWpYCJa6dG15n+U5h/0FKUQIVB4CAX+8ldcMUSYECIGLiYBWq+h+vSBqEHiA4xsO1YGHvO4uevezhm3Gtz/51QkkNXKMBoahXFgKgFjXrzLvbMi4PnY/QVDSZMoinFQovPnLJsSZfsysKUm5NFWsGihbXbvxyglsm5CUpvnYHyC/04Qa5ZDjskGzvzIs8xwFrEkQmQQtySqEOnB4ZJMx1TDZy3zK5tFD9mHp4VIf58tYTEEWbW1sQEXfkUdA/r1GnixRJAQIgeqGwKZRiT0hZDbiR284/YFBTA38CvvxYnteNtbPLzt5qEHLpmV1XNs2NnkyPPreQv0GkgYaMF8sRbAo/Lr34twXEHeIQn9LoUI7xyX9H/hxTFnwW3stzn0nVNmqStsJwa/r7Am0lxKyTdk7vhkqwRH0Ho6PgZeRHZgmYrYK4UDHERRFCqArrMbmA3M0TZ1fnSwhgjm6ajYCgWa6mt0X4p4QIARKQWDA8rW7cKjuQ1YRYe5H/E8wPXuMNDFGxT+mNGx/+sv+VrmS7mLnQTjsPQ3hPwfVGgh68mNU+BbSbXifxbnPIzlIppVE0UjXGTsmNQhUFHddVTuWXqPycndNSOqzY3zyEq6zTLCSYrIk2bNahRBfgR6O6LMkdwB2NzxtjfRx/x3m+p9A3lLUOyGwCagooxJxI13ky7SAYjGgMQ4nIb+m+/Sjm0cOydw8KvH+jaNS2hil6ZsQKD8CNAVQfuyoJiFQ4xCIX5H3n02jE8diVAnPf3lFYTneBCl7TAEkUhnXxDSA/8AgWdT/9cmoUXW2rz/3DgTaFEc1q8AWzadO6bU85wsrIay7zo4xnORjiUHwKqYAqvTaNiatnUvjT3Ku34j+wSIf1DykPpLECoqn+izK3WLlYkQ1SGQIsa4yNrfPojV7RB56w3aMGYI9CJg4fyEZ8RRYY7pa9SylARYZI0lUMDPNFKFcwVijpME6kqYq3uehCGwC5blIn10Rp02LB7pffgiQAnD5PXPq8WWOgKaze3XGUwEDTPYQPdIlwA+KEDxwwhuO2zP+VH9o+4SEVj7fufkQdv38qUYIQm/RmTre9MSM3PPBeWWOqyp8AHS7OARglSkA+8cOql+gxTymcP0BMBBliWFLGJtGe4zo9cd7Lc7bbDOJwOYRI4BnYTcrzaPz760w6sMOkPcp4uLzjkjPxwZJHsWTAutCCnKH4VF0L0kRsJQAoRVIXjiekLHT40AoEk9jemcddnt8O8rFPuy9KPeEoE8XIXAhBPx/1xcqSfmEACFwySCwZVQSvOz5K4Y08XfLfiEw5az+XUGj4PXq28cldYHkWQHhc6W/llQjhNIwq+jb8zcH13GWK0v4kymJsZrH9a2j7PGeC3McGwk5ciIUFNMZuzal/ATK0J9BsrmTrBS+xleWqmqPxy3IynXmW+Ed45NGwC6wwoz7eg1cE2XtbmiVKe2+dVxiW1VnY2CRGYPnMhxN4owD2XDwzSCDLCPXLINUhArAwwKV6W+fLopeSssLS0Oc8uzfO0FBCBAClw8CEBRs66jETEjtVNFr+0VgBqQJW1UGYw5/g4UKluf1xch8KeKxVpocsaIO6L25r06Lu8rqOGjVD3WflZ6u9Tj/bRHybB8lneuNK2tku3N8SiIsFy/Aql+S38NezvRf9VqQuzAUv1bazgkpM3DC4h+MOP8W/Law8sK9yx0KzzRJ0rlvDEz+Y4BwryBdwCYJCwAu+SXTHFH4YfD3fVx/C0dC77ArUIAQMBGwf/eECCFACFxeCGwaM6Qrptp34iWAE/ZwybeBZYQWcf6rvkvynhVZ2yAkma4vRhBmblEUhc23B9b3z91bt3l6JIS/oC2u/AkpmAZQmskIvmDxHthzQTbmvCN3YcTeyKVpf4EAvRNUzd4gZEhU0dBxRGacP3rulbJYNXaOT84EmTRREVMEa3ouyg29YkAUCPP6ZGxaa10pGiutA3A4RPX6fpGPGCJG3J/q74ZsbC0wfEE9XjCnLH0Jkz0qXkMRsDXsGso/sU0IEALlRGAA5qRh8hb79EvxJ4S6XwoKomqy+N46bki8JfxlGVSyCkLcrD1T13NTJIW/aBOWCawEEO2Ynwj7AeyZmHKjS9X2QGre5e+NbFm06YUj3z+LXGqnuIVr/lUWgXkYmyCh3mCTAm6qdP7zxysW6rMk68u+S9a+2m9p3rR6av1YKAKToLy9C6rYRAiX3QkEzEtAZz0nhBIZ5zP1xtGfbRyV+FjeqETbimOVp/vlh4Dr8usy9ZgQIAQsBHS3+49qkecWOJAFbLcrhYfCk7aOTuqjYVMamMcbOEf9oj5GD/td0VGTrspYU36HP4uR4ndhAYizxBn46VS8SPgpeyantYOZ/hWMjkfJ2uaA2WoHaeu5j93bc3H29nCon6+tC+9+KAFGLZC1d1cMh05ZynZesqQQ5RaIj9h9sWF00WhME1wLpWUimq8H5QBZRsdkyB8V7LVE3590K/yxTSMSPsQukC8OWhHozFgWHqjMpYEAWQAujedIvSAEyoVA/IKs73HgzZ/sypAQhvCXKY1VVclBqAkUBHs0KeQJPkVYsnZD97mrYCaP/AVl45hoR15GoEIKAMQh2zsp7afYf38HnBhHmX0w+mpETsBEfm/3/tlD4hZnhSX8BY8+FV78zktllaYAOJuBk19B32Vr5/VblndTYX29OTo0FdjNRHfPWuUkfAaGMskIsmjoCbcyrm/CNtFr140cPElgZNWh++WBAFkALo/nTL0kBEpEoK5S/8Uzyo8PQsa3Ci4EwY9tav2XLSEY/z2c3Oz17/4SkQlhH4Bj1hy22Wa5FYDd44a13evSXwNnI0LJOByGNNuruH7ea/6qb5X55eMfG/WMMQfd5s1V5U53iRnrhCVmrvisTU+o5T7FxmOEdz0Eu7AMRDkMA1LSw2oAOPDNlQRsdDBv44iEbRu48seBq9bNQ45hQigfHFSrhiBg/rZqCLfEJiFACFQKAtvHJP8CkuDvFvFgc3/Ai4IpOb0GrBkazhI3i25Z7xitP4ZphyeN8qJ1fqz7/OyA5XllobV30tDbFab/A5IuQJEx636PEfN93T7OnFUWWiWV+XRiWlOvwsWyRdOiyg/ELcjpXFL5qk7fnJbWlEdhmofrd8LK0cMp2g0pj2/jv8Ea559AGfzjgJXr55IiUNVPq2rbC/hdV23T1BohQAhUFwTEzn5cO/cZ+GlaovA33xa4YZcetg4yYwH2p/8obn5WuY8OLqn/e65OuwdC6T8i35qS0IpqNcD8t+H0VlJFM/1g+ogG3kLfy2KaIlRRjHoXcsV9T7f5K74OlR9OWv6ktJvhYCc39zEEqvJm3ILs28OhUVVlsf9Df13R7wa2N6LNuqJdybNpbjH5l+wgKR/Y//VIo9bvRdzJU7ZAXxcbAVNjvdhsUPuEACFwMRHos3w55ozZixcW/kILgNeAogxB6Bmu6/t2TUjZsGt8yiO7J6REbNSrYsQvBL8l/AU2HldhmaYBPr06NdlT5NkBi8YNklvBsf3hpyHxbu46P2tiJIS/4AtgiI175GW0w9Yaser33X957hacCXFPYS3WEjzfAw43GowbHTC7YSXFQQn4X5vjX25fOzwBexHQdakh4Hzel1rfqD+EACEQBgL5oxMaezXXV6gSE/BiQMSI+1OdgtlqQuYythNSe46u+Ob0mr+m3PPgMN0PgQDPddKG+fq60sz1HBsI7fMcfxxj2sdQT7PqOu4bcfjRjZ0/Xn3QkVahoNiwRyts+i1Gzg2t0TNWTXTvuiBrb4UIV2HlLcMH9faprruBG6wu3CWatvoiw1aE8cW6yh5OXL6uxvStCmGskU35f9E1kn1imhAgBCKJwPbxye9ifflNkqb5djBu/ldFsPCXOf4vZ9UDkCRzuKbO6TEvUxxDbImSC7IsrAmYXtjnJIbdgH7XdV7mn0NV3p+e3Ix7tPegqowMkS/a/dvp2NOPxf93iydEfrmTdk8aOh5OhOYOgbJ7X3ebn906nL6Wu/EKVsxPS6t71uUZhS2cJ4DUBHCPjZfwbfz3U7fjCMAQoyvsJV+h9kRyLp054AepZoaktlczWSeuCQFCINIIqLryKob7NzlN2tb4X6RJOe9oVMYdGkFAvli7z5Rfq1z/9d5JqV/uYepcOKLN7Rodm8MyMnwOMsWC0bWijnk9XqT7KWLiIeQUwP4pwxO4RxeOfK1tQv5q32Onwpsw6l9u50UwoDF+jRCLxhQ6JlC4shhNS0kZwWYiRkocI4yTBCHs2aTzSlEaeI2xuBWQOVYGWMnGI5A9kiXcmJ55gEV5b14/fNAfzvtqvULnDUTs8VQ5IfFE6SIECAFCQCKA9zzbOSFZ7JDXVfoDWLjgTeF8WdjhUMLfzLTLWDWRINO48h3IzscSwzlqUcwqc2MbqyX7vm/y0AJEou0Eha/p8nFWwPa6+6YOux/S91nQjfKXs0NbNMamdZiz+oidEsFAfnp6lFb03Tcg2cgiqyt8ao952WIpXrW5No1I6qBq+jWYmknHc40Xkt3QUBzfRtBMB+uhnQLNPmF9hggZdXarin7/oNUbV5uZdKtBCJAFoAY9LGKVEKhsBCBI+U5F+R9EtW1qd8h42TzKIFt+++MyJNJNIR+U4yguCog9/u9AU3fo0edP7Z2cukhV1Dl1fXWXtFyw4JxFCnehKLS29AdUtC0AQvhG+b5/CYIKdEJeb7oa8J+1fytTKBGVcmmF349BvxqZslO0Uahy78pKaSxMoltGJ3RiTIPQ59dg8yMccoSJCotR8YwQdkSLh8Xj5XI3Q7HRk9wS2kgyGJFhI6GHrqgr1w0b/Bq2Fvrl4CUbyrRKI8zuUPFKQkA8QroIAUKAELAR+EQcEqRp0tErQHBz9hbmi5tA+A9D4Tqigv0CMQN23MwJqG+2IMvYBY2AGT0PybQUwmkORiYLPYytQno/s5q48XNn3fVqNzhfm3ndH0GAScEkMmR9g0gR6j/Qce7q/4j0yrw+nTz0Y7B0tSU9sTZyZfd5WaF8ECqTDZv2Tpj3fZp+I8bn18FfAic3Gpccr5vS3hL6IsdQCPwpiBfh2eZAVVjAdXVhYW3+XdQ5/ROUaG+S8isR6LSs6a8OPUP5gqns7sRV65Za5elevREwfjLVm0fijhAgBKoYARyRuxvCu7uzWUwJ3B63MPtN4fmunI9NZqo+GlJALIHrJcoZLxP/KyVY+MscOzu4tE3ApANhpCjCCaA2PrjMipzdgl0Cn0RCO5EacDEF2/mqUzvPXpkVkF4Jkd1Tk69w6a7PIf9MKypmz3Xl3i7zsypd8XB2Z/OIEQ1c7oJpUHpuxk5/qciTS7vt0T4SDBmNbyNg3WQcScLKsgTifIFP8y13juA3jUx4GXR+Ktozq2YjOABpeCZGivw2M80bcvhbRXrhL4ZmbT8p6tJVfRGgKYDq+2yIM0LgoiGgqnwuDpWxFQApflWlhWAoLiMfwjl/FYLi8+v9U9NaezxQBpg6BuVGQFY3FOWsS9YVERkwYnaanW6LeKsa5vSZnNcPUCQYf9uiZBU07wfB8/gOGSs/DUqvlKjbp90KgesS/TAEH/PgkKHZldJYENHN/fu73bG1xPTDzVwpnAScjEOIHFJfYGZFbR7tgLIL+QvhkLlgf4PWG0Jt8rNp1JCR6M89jrmCT895o8e43Z7Gbs6fQJ+nowXNT9J4fgILKIo/iWbRo9YMG/zT5NXrxaFFdFVTBMTzo4sQIAQIgQAE8sclDeKqul4kypeElCjs+biFWQ8GFAyK4HQ6V8tGymCuwzKADXJgTu4Ls7IclUrR4Cxvvn2Kv4QgQoon2jWLZTElzxulT+76Qdb3dqFKDPAZM9T9n+TshQDsbA2NcV/UZV6mWE5XaZecmnG57uCKfhvai7XatkbeIm4a5iUPMt3IhMLGsnQIfJX5FvZduv6z0phcP3ZQfc2rwRVEudKgAVVCZWkDl6/NseptHDokTlf1v6DF8Y52LJaQbHLClHejVe/P41duOWXVpXv1QYAsANXnWRAnhEC1QeDYOdeWZnX1MxC2dW1pzAwLQGlMmkvCclFGfB47MGVUrJcXjYIAGgstQMyPCwdAqVUUE+Ri7Fg80Sou78UjiheiZp67UBU+CVWiABzYljMe0xCdBS/ygB3c4RvxgYhH+hKH+tQriLoGLd2JDZiTIVglRFLoCqwMAW80iziWPFpKwDmElqD4HJ8vZlH8ypVlFsCaVxVnQlzp6MurTuEv0gdm5uXjNgFLAYcChBcQ7inS/SzhWQpOMDVR6HMlrh2WcEPi6nXGroOiIF3VAoESfm7VgjdighAgBC4iAvkTklfArD/CYgEv9OweC3LSrHi4dzFy3rdjTX+m6GKqQJyeNwg0sGNfaMFvv5zsgNWiEC7FL8jCrSrjs7y6/l7nOVlfFi8RmZT9U4ZlgVKqLX2ZcrZI4y3iMrLORKYFRdlzdUov7lPugWOh2JRJTqlIWW8LfHOEbcbN2ynI/4WKT5/jdRcsjV+wxbmiokysbR6dOB5CewGejQXx1y5PVFzfrKwS5/PFlISngfshNPB7fGr7WTR5NFrGFIny2yFZG54DYbtImZiiQpWGgPWQK60BIkwIEAI1E4H8ianihf6E4F68KPDW3otDbmy/AJFekevI+KRGRTHukYqujoZygSVrijyxz34p2QHRSmihL9sPKCd5hUM6z4Rj3Ovn1CYfxWVkCIfCiFwHpw4fANpyJAuBhgtfTHm985zMOyvagJg+ia3Pp2DYfB+Ipkp6aEQ2YxI32jQiZs5pjPo/xpTLh1q94ysN/4zycbJ1bHIz3ecTpv/mVjuwIEwbuDJvTlkobhg1sL3uVf8FfsfJ8iYRm38E8H8R97pvoV0Ey4Jo5ZcJ+ulUfoPUAiFACNQMBPInpgyDIBJL8YyLKcd7zM9uakUjdT8wddhPQOtVtOOSNO0GhWx1RKwGzaQQOVYJ5/0blHtV0V0vt5uz7KgzozzhA1OHzgRX11l1hYxTGRvYcc6qTVZauPf8cWktmIvfhXriBMRWor4tNGWkmBIgRvYLMe8ws+4ZtqR9VlaBKFbRa8voIfPg+AenQqN9KBZz41fkTQ2XLsz96aDwIuo1t30BTCKGTsAP6hqbmrJqw45waVP5yCJQxt9QZBslaoQAIVD9EdiPEaHHpR6TnBpvCg8UAOmZHynuD04b9iiEwp9BPkDWB0REY+abqqwvLGc5U5gW4P4GFqv/tbw7A+6fNjRO5ewTcKM5BPTWTnNW9y8PHp9OTB0AE/+D6Bvm+I2dDCVdk7jdBgBCWFgxlsEBYKYSo86P5HSD4B3HBN8Nof2KQ9U4hb726Lci72uRH+6Vk5zczBXlheKlX233A0QMBUBSOwtl467k7I2V4jsRLr+Xa3nn7+RyxYD6TQgQAiUgsGdiqjjpLlYIYPGyiDnNakVixCn8AQ7uyPknaN4vm7bfRFL0+yAoMiDsrrfaLYE9DILtiiUVCU4XhwG9prv4Ex0+WPVtcGZpcSgrYovfybIMQJGCjSt3d5q7+tXS6jnzUIftnzR0HLYM/hX6liry/ELRIX4lcdnGJnTybRdXZuKEwUpxctw2MqWzrvq2gZU6Bi+CS3Zv/LK8Cu9psC5t8J2c8X+AYl2JAwJm10TPFZ3xp5MzN/0OT9GfLAvSV1UgEPavpyqYojYIAUKgeiCwe2JqJgRVmvWicGvRzTvNXW5YBcrJ4v6xY6PV2oXv4JUPUzEuk7g56oeAZjdzld+AUwkNYetvRwhvdzmEvp+CP/Qj2v8rr+t9tv1bFzahH542dBDWwq2DlPLLKq78UKDpbcsyGhd99sUU3IS19w/Da75HsLSzBS/4Q94XmNN/V+f8nV6Lcvb4WY58SPgd1I/25IKycMg0lBEcw9w/YW0qm4F1BxG41qYldOJMfwekBgtywQoP0/lHMWf1W+O3hO+0GAH2LmsS5vrcyxoD6jwhQAiUjMBufxZc9bi3nj8efuhg+ogGLKZgqRT+QvBL4S9EvwwUQrinq1xbAxv7BCd15Hs1jXd3MdYb4QeRtxifQotEsTsShHHA/phNOcrVQ5NPKmddOz5LHwVfhwtcTP2zIGHUF98ixv91IeEPwV8fWwb/hkcXHIZC8zo8BnqIrpoUDDrGN+bx2XuM8+Hd+2W3w46Lv61s4S+abRjtnQFepPAXcYQL8ZDvipTwFzQTs9YdKOK1kiH4n0XUofsYKGBh47TzdbXs3CFDWorydFUdAiH+DquucWqJECAEqjcCuyemPAKh/IzBJVM0VemLE/m2l4frvZNGtnS5fEvw0untl4Cm6FeUAizhm9pu9uolh68Z/hvQFwJXXuaI//12GStvstLEff9NY+tHe4vGQbDcCNE1FkmGE6GzUGlhvyiCs7vylsftfrDze0tOB1c5lD50EuPqPFncX+ecJ8rXtqTNh/LTRzeO8hY9AFr/hyoNLbHnr44Q/mMqAFsus1d97ui34zKW/RDcdmXGt45OGgEmlqEN6CbGBV4e77c096nKanftsIHpus7eAH05JSAnPczGcTviY74xQ7O27K2s9oluIAKkAATiQTFCgBBwILBnYtpPMNJ9U44Nka4pamqX+atzHEXKFDw8La2bj6tL8cJpG0L4n8Ue/ld3nL1iFYQA+2za8P0o09EU/II+13V+VYePVpXoNX44Pa2Fi7lvRX0soQvYxCYEf465disXFXEdQs7N7TJWrbOSv544sXZh9DlhBWkr0mQx8cX4ix1mr/4/kea89qcnN1O87ofQz/tAy7aW2PVQGGEceqRngMirXedmCfN7lV87hw9qDoUHihxvIRiSXVLYxlOFriHmZk6VxlPO8EE9VJ8ilhZ2FS0HYXOcqer45Mz1GyqNASJsI0BTADYUFCAECIFgBFSF245ywv7tU5WY4DIXiu+fMjwBwj9XCn+7sD3yx1w8HyeEv8j6/JqRw4KEv0heXJrwFwXaZ2R902bWir+2OebpCEP9DaCxSyoaaNS+i4LyEm1b/+wkUa4DUnM+u3bEL81UxRNz/nGE21pxQQ7lCjF0f85KE/fPcDjQwSlDn1N97sPA6VGUgfCXpZ3FDmJvgoeiFN6y69zs2y6W8OczFNXrjnob3LWwmEP4nI/xWytb+Iv2sPxvt6uWMhCSf77VvuPeBNreqtzUeGHRoauSESAFoJIBJvKEQE1GwMv4N05Bpio+7NxX9mv/tGETsU3uStRoImuZMtG8ncRa81FYlmdbFHRFv9Mx8reqmFMQF26XZWV5r/xw+cw2esOr4Gx3BwTul6It+cGXOYnv6FIxRcCFOn/77JoR7x9JH9Ufo9OHivHDlf9YSwm/nDK8yaFpw//qY+4DIP4QmqpjcSnbEpvzcmUl09mkzlelduk8L/Mf7T8ueVc9q25l3retT/o1Rt6jAtrg/NEBS/Oq5CAl0a44dXDI0A1T4FXyfAAfRqSOjimXrNSBhpNoiAKUFBkEzN9hZIgRFUKAELi0ENg7MaU9zPOHRK+EQOOqMrH73KyFZenlwWlDb8fk+isoK0/NswbEQuTiOo7DZEZ3ysjcYtESwtTrYl8hHm2loWRu24yVyVY83Lsw4eu1Ch+AFH4EdRsE13ean21ztCgkM8Q5A36/AqxbFzmnvSyqk6/wdEF0dMwv4K0vhH4De1IBRUQp8H0Wae/Ct+DFzh9l5ouK1eHaNj4lEVsFZ4MX6S8h+WbKir5L8rAbo9nrKmY0J3XgL9C2cBC0fREEJ+BNHAf9k9ScTe9VMUuXTXNkAbhsHjV1lBAIHwHGXXIbXWM0C8Hms072K53WvsnDHoPwfw2lpKDxl8arXlHEMsJhTuEvEj0quxU3p/AXcqDMo39BI/hquWDBudazlj/t0l2dMRKfHZwvuZFfIsewBsgyRpqhuJiVhCUA/PzLrRTdEhMVcwj6wBPIMpUKm8i3KPVbV2FRm05zMn9anYT/Dmy9rOr6B+im/5lwdlJTvLeDe6G3XJQrJXvjP9Dw9fhgJUTAJfj8X1bqgOkBqRSJGAKkAEQMSiJECFx6CGhul1h7b1+M6aVOAfD0dG3/1GEvqSqW2MmBsPNLho+qOksLNacP1eJOqyEhTiGRdmD0L5b7Vfi6ImPJd61nrUjH4UY3QY4HeNuLtiwFRzRkWihMxgObVhV2LwT/c+Ctqagnhvrm7TCs/fdFaefbd5yT+XTbRbknjJzq8Q1+ma4rb+B+pZMjnGr48z5LNnzpTLsYYewIiI2f2Ei0fTKofQ2K22uZyQPtv42gfIpWAAFSACoAHlUlBC51BM4VnQtQAHS4aJfUZ7HZzQHv9+9Dct8bugz/ApvppLabu7LY5jZHrh05BHV6iHqmTBV77D+DMGRW5K42M5e972Z6D8bU+VY7NnVHgh1EwA6LgkxpZJeXcQ5nQ3bbkeO+Lh1nZ77UJmPd+YD8ahL5ZGzyz8HKZMmyn6e5MP1XG/N6UtaGXM71YWDvuADdgbuKJaKvZCYPuNnPOoUigUCJP+ZIECcahAAhULMRiNLkPKzdCQwjQ74zxMl+LOb8ChS81i4cEOCHNdWd2vGjFfsDkq0I1wNHeKpyqA1vOMvKjuSdu7QzGFUeE8N+h5AxwnaCHSjWtJ3D+TPtM1b37jB75dtV4T1fjJEyJmwfm9IXPP8tqPjRIk/RXUFpFz2amrN5G4b8I8DI90HMqOjDm6uT46cFpVO0AgiE/DFXgB5VJQQIgUsIAd2l1g2QklyVPgHOLu6fmta6MMq9BkfIl+Sstx9HwKa2y1h+2FnPCovdAVE3QHGA7/zfWEaGzyoTqfsXN44e6PMo2+AUaCgcoZQAszFb0CPuDNvzBYz96sg1w/64+e7+7kjxF2k6eycNqYdVGDNB1/atQBhWFX7noFUbj0e6vUjQG5K1aTvnmrAEBG857cIUzPurkweOj0Q7RANelwQCIUAIEAIlIcB4VL1A4ccLnWX3TxwaB2e/tSgTZ6U759ORtkdTPKmd5i3/wsoPvuMlhJ38lNoi3WzrG19tz1siHqlL+CZ8ff2oxzTOc0Gzc2CfglqxM82AHQ8qJ08FZI81/qFh7sFpIzsXy60GCQU+9WWw0SWAFab8t+/SvIj4VgTQjWAkNWfdTmwWFEoJiMLeFBmrUgYkRrC5y5YUKQCX7aOnjhMCZUCA69jQxn9hGaDtqf3plLQkrilrkNvGVMB1pAAAQABJREFUXyIgtEPhrrR2c9YcDUgNikC+Bpr/GftnWQ7oCSJTYvSbW0a1P6r9mA3t4kkMfd2WlhGiglzuGCL9QkkDmaJvPXjNiKkXKliV+TvGpdyDqY6bgtrc5z7nsjc6CsqrVtGkvE35ODxJbAh0OoixWlDkFmSn9OselE7RMBEgBSBMwKg4IXB5IeDfzlb0G7vkSAvAp5PTJsNMvxxJgU5xFjhM2eLhbNiFTg48kj60P6r0s6rhfqrI7RKj1ohcR28cfavuY9vhoS+cDEu6jsD2AAcziMvyX3VxkM/sQ1OH/1EcdVx+MpGpuXPckHiY+YM32SnAqXzXxWVlnYlMK5VPJWXNlq3Yh0I4LwZYnvCgGnNdXboqIaFV5XNx6bZw0f9QL11oqWeEwCWAgI9fEdALHy/YNyXtpxCWYk19rYA8O8LWaz59RPe5qy44x6xz7c4AP3/GXgp1II9NuoyBIzeOb/TVDaM/xJK9/4F+/YDFBH4x78V8/t+jfJ6e2I4YQoZ3LCP5koqJbf8eP7grZ644qKikQpWdnj86oTFWW2SgHee8P7qoPNx38drtld1+pOmnZW/IhHIlLBkBPiF4jFdqmmcxThEMsFJFuv1LmR4pAJfy06W+EQIVRUBlbf3yUpxep/0KgkSM0HFir3khYIcVJcfrLRhVlu1uYZqvg5o32rvo4ZAcn6YHj1qtVsp8x6h/qJt7PsGGPHAsFJwZLTh4FCmbYLYf2PqDZQ8Xqq7pmBa4xm7ALgjXRIXPReGTdl4ZArAjTNLOF2YdmjS8eRmKR7QIxz7/PpfrbRBtF0CYsYy+S3NfCkirQZGUNZs/Aq4/C2YZj6p3ESv8YBZ8PILzKH5hBEgBuDBGVIIQuGwRgLBvK2WoiQBGuDc440HAZBe5+Phu8/N+DEoPGS04p1+HDP9ImfM3Onyw6tuQhcuQKLzxv7px1Ayd85UQDG2EHLc+sroROasr7NFWvoYJrWau3Pb59SNhKmd/s8iLItaFbXzfuXLWqqnnC89fCUvBo0g3NvcBKAFXUFTkIakvd+nrDqSndQooW8mRXZuSfoMmxgc1c8hTFFXtlvwF8XjBaGrupv/imfwlRMHxTY5+Fio9RFFKciJACoATDQoTAoRAAAIq5wE7x/kzA6UeRspLXA34mLiMss8vQ5m4w09PgTlee84RDyt4NH1sjxanmmyEieIPkL5wFEf14I+izNV93q7YDOgvYonh4clpDTGqFHsNSFO57JG/Wxv1Wt67BRNCoWk7a8VfYH9uD9n/FxSxl0L6ixvNifKiXZEO+0F7HJ+YfWBKWk+ZXslf+WNThkGZeSKomUJV0a+LX7nyVFB6jYym5Wz6LRhfGMw8/v4ezhwS7/x7Ci5C8RAIkAIQAhRKIgQIAQMBztgF58Wxnc7HRa5mk8Px3N8/DcsHFcW/lIvzmSXtE1DaswAN9tV1I37u03ybYa+/yhC8lgC2758jdHWrmcuntslY/ZWgJ+q5ol1vItjepi8qy4t9w7hvanB/OmasPNV+9spHcVJdTxRdZJX2320C/iRFaQl9JFP015kY6fD2CcNaYZPmD8CBbQoX3EAJeaDX4rzNkW7vYtFjmIU6V4TtnDnfLXhwIq4rykurk/oPuli81cR2SQGoiU+NeCYEqgCBT0bJOfpSTdh4Ac86FXvq2riMDHtUXBbWVAbnP//FvT4tbBPu4fS0Fl9eN3IRTPov4qS+WsLLzRAJtlgQTmP/iPIVxbWauWK+vzlFgdLwAHQA4V0uhYjDql+kq95plqLgrGOFxW6GHWavmgCP+qtRWS5xtFu0A1ZpeW8Ky8TKg1OGB67HDyhS/sjm/v3d2LDxQ/AS66QCVt68anHOK860SyE8bsOG0z5dmQSFz+9kauAehef4/uJBg/zTSpdChyuxD6QAVCK4RJoQqMkIREUV9gb/ckTpEJDGqMt44b7Txd30xvj/bvGE08/DP0mLwQjuFkFIkmHKQiwX3BUOjc/TR07C1sI7UGesVU/QEnwaH75Z5Wxg65nLH4oNmpb44vpRgzAylgqHbF9+CSpc0ZlyX7uZq9daNEu7d8jInB+lK73QHnbas4k4QgYvZl4Ln6KvEscrl0azPHkxzWuLExOH2DwYrGxpcE4r5jRXHvrVpY7w9s9JHtRjVUr/UaqmJsMasCEEbx1iXN4a6+wYoj+VmgQM6SIECAFCoDgCuyel3osXBF6mxmvCucMfUl7r0jftHjZjBiyv4V0Hpw27AdMG78taIIQJ+yHtZpdN6IqVA54i/e/YfVDOz1s0DA5FjMMBkT3eWm/4r1BbCX+RPrqxoupbISMDnBuF8BQm5HazVt4naYb5deiaYelcV15FNWxr7L8MxclIkd9cOcB9PKHrgqzgve79lcII7ZqYPI3rLANVAAHWNoi6unLcxXz9eyxeeyQMUhe9aF5iYiyP8nXw6XpH+GZ0wKkTHXBvBcZaAUex2ZRc7id7aYJs3qTuY4SNb13hCSPztq6/6J2q5gy4qjl/xB4hQAhcPAT6Gk2Ll6pDxCrKv7vOy7qfzcuy379hsniXTZErOe0+Kpvw//y64QMKCvV3wQlM6WKJnskTiBmM8I9Vt/v+1u8t+TIUPyjDvmD6Wyjc1p9vCE3kZX/f8MSD/vTwQh1mr86Ax/827lNng6s+onYI4S+SOzGNzcXJiSM6L1kSsLmNyAzn2jMuqYuXszdQRwJhYKD4cNLhDT0WrzkSDq2qKpuZ1r9plKr2gB9FNwj3zngWHeAM2lHcdcVbT2CGY4ElO7ASlZstbMgg/EtIAbgAgqQAXAAgyiYELlsEuJKEZVeWmDUEmsr/3u3j7F8iuVxvZ7ksTlfSRHUhwnHymzBfl3qJffyPsJOP6DqfgXaNg3ckAwYLCH4BUvdf+eHKeaUR+uLaEQ8jf6LRtqMkU45E6+70cKcyHBRksFNG1oEv0hMSCny1/g3hNr0kiMB1khJ1/nXcb5HdCCZUhvjmif1r+zg2+5GbHIkKJhY6e6TXkuwVZSBRqUXWpQ1uxzXWDd75PWCR6AYfjW74W+qORoU/hP03VfLmi0Z/wmDyB9D6FkoDnDzVjXohfz2MupdtUfz90UUIEAKEQCAC+ePSWjCNf403tcPyD7HG+BpVUVfBbj+v69zMTwJrXTi2f8qwp3Gu66OGBGDbO3y0ql9pQvDw9WntmM/1DignOambLy6fovJ/nT9f8PiF9h74/PrhyTCVrwYN/6DHkDHnYLpPavfRym1O+hUN758y9Beg8Sw+qmzGlGd+sSagVB7rMi/rT+Vpa9fElLcg82/zD5KlQvVG70U5d5SHXnnrrE1IqKXVVeN0n+8qOJT1xmi+D/jqjd41tPsKJu0wGvLzLNQW5JiZdhkZCKjzLeocBGAHmK4c0hn/inH1W13Rj2mq+vXZOieOjVtyoELWlPL2v6bXIwWgpj9B4p8QqAQEdk1MvQEvdHue3nhRmN/mWwOv6N2aor7iieJvlGX9v9iop+H3DT4Huy0ECa6yGzrNXjWzJPYPTRt+M7SPfyG/gTT3m+2a5bcyRb27bcbyLSXVt9IP3TC8ueZlWxFvaaWJuxA96MMN7TNWfehMj1T4AM5L0FX2LhqqEyjkRMvyvw8cjOw2PzsznDZ3TUi9C7X/GyBIOc/W6vwwKi4jP6zVGOG0u34svOt1V39s8xwPQd8PfhhiqqML+DCXHppCG30Tl3lDIECYl6QAfIPyu1HyAJ71QUXXD0LIH/C6zh4cmpV/xqBI35FGIPAnFWnqRI8QIARqJAJwAPwv3uAQNLjwlvC/KIyQwywAY4ByQmfsmeiG/IXgtfPOzh+YOmwK4nPMtAMdtSbdQjnqiQ16dJf2Muhe76wvwmj9DEaXj7djjV4MVTe4vJw+UE4Ik/jQ4DwQewpOf48XS49gwt5pafGqj4k9A2INgYhv47/Vyjc+j9I3bnHWN1ZCaffdE5P76ZzloUyMXwHgB11RUYPKcvZCabSdeWKKgRe4+wLreAjkePA8ACZ8zNnjPEhcRl+MgN0vK93M9JcJUAB+gMVlF+wi+UjdhTL50SrbNWjVRv+SPtEAXVWCgN8cViXNUSOEACFQExCAcBkp+JTiHm9pvy+AeK0bSoDVD0zpNsLc61+KTip344jgn3Sdm5Vr5TnvoHmXX3Fgz4YS4PuvGZGG+eK3YR6XW/mKpvytsflel/rzTjOXf+GkW1r4c+XEU8gfWrwMn9u2R/IfFGVl8awIpnT7KGvz3klDU5iqCCVEeLIHXy1UF38PJwiOvNCKih3jkxph1D0bBBzCXzkFhCZWVPhvFw6FXp4ArBPwhBOUQh4H4OGiYbArnr8l9s0kmVEs7E/woMBORLfimeerOtvl8XnycbpfqUdDS6L0VWUI+H9bVdYkNUQIEALVGQExysTuddK0br8gzIBxM7/tTKM3MooD3FF3RtePM59C3BYHB9NHXKl7fYdQUoPp/igviGrv9ILPT0+PiuHfPwlN45coAzcBP3EQ+UpT+f3tMlbPDQe3I9OGTcROhvNQ30/MILDjHPMNKcu0RTjtlVZ2z+S0dhg6rwAinWxQUMExin+4+/zsv5dEQ/Qhf0LKPORPlPUNIh7gNb7X4vCc/sToXvVFxyteNRHz6obAV5Rm4mk5x+p+3qwHKQv4H6rJP8AtRM5OrD/cAgc/MdWypV7TMzsrczqiJJwoPTwEgn8Y4dWm0oQAIXDJIZA/PuUpiMzfWe5/9kvCDBg389vOdEhZmaa++/VJffrQrCyvAOjTqcNm4FyBP4gwhMWvu8zN/JsIi2vflBHdVaa/h2p9ZYKfpg+KwL+LPAWPXcjJT9ZzfB2ZNqIDNvXBFri8kSMZQf6d4tIHtp+Z9VlgeuXHdk9NvkL1acIRsZtoDTg4v85DderTY2HOfpEcfOVPTHkUAvlpkW4KZlTnt/ZatObd4LLB8c0jRjTQtMIkmN1TMKJPwRr5/mjcLWk5Cht0JVcO3kwWZWGZVwBcd2CZHYS9vtWnsi1RJ4p2xW8JbzMoR7MUvIgI+H9qF5EJapoQIASqDwK7JqSIfda7G+Z6dh7hH/GiMLaZRcD/0jBCfrO+Iw9ZmD9+v6u76a2iZ/s93x9CxSuRfNLnK7pSCHSIE3Zg6lBsNsSEt3wtUU5cgio+21D/no5zVm2SiWF8iZ0GlbNaHhjoZ1UzxJo8xGcEtvFdY6VX9X3vpJEtGfNkg59OIQRubvf+2alshlgo5792jU8dyhhfgTqaKfzFWvlHei7M/qu/lD+0eWJaU83rS4LFIRXbG+HDegML6ahn4IBvI2DdZLyE0f8BMLMOz3g90/m6M97onZZS52+RQjUVAfFbo4sQIAQIAYlA/tXJPbiP5YuIfDkwtrhH/+yJu7am9dMUsfc9uxcZTfwvDiPkVAL8dRHiyjMKU3OwHnyxSIfk+lOXuasfOzRpeHOvqr+BeuNES476Z2C2/8OXx30vlFfQHJo27L+geZdsz/nFlTs7zFl10deH508ccaXKvNkAp51gT8piUyAjel+PBdnYfdG49k4a0tKra8Ks3twux5QXei3MecAqsx/e+efU6DQQGg4z/DAoCXHIsx+RpTSI8lLIBwt/kS7T9LN4EptRZi18/dZrLnVdvyVrvhP16Lo0EbD/SC7N7lGvCAFCIBwEMPoXZuZH7TpcebTnopy/WHEIpHo+7rofAvsRvDzqG+nGa8QhxGWyTIXkhyw6hISOiJ9Tmbs9172DuMpfQ9ywKljEGVuAPd5/jlP3PreSwr0fnjrsJ1Ag3gyuByae7/jRqnLv9BdMr6LxfeOTOvg0LQd8tZK0EBAXbj+oLlcX4dSXmZbmalZXX43kZJmHTGCWcbq257b656IGQ1APh+Aejns88g2HbpSRQl5UwBUo/GWKbMRs7iAKr4NSt17nvrU0upeQXVZf8jd6WfWYOksIEAIhERACp2kd/XMI8iusAjhpL7H3wux1Vty6i21ouUsT2972MtKMV0kJSoAsgtHlG5BIRRju34MERO2aX0FQPdDl48yPjJTyfWPfAGxAwwWvtYMoLP/8uD6+vBaFIFoRi+65OgUHCbEcCOGGgqgplOGXx/8NX4Cf75yY8izm7MXuhZYg9yGYhz4OwB2nH4ocfz0RDxD+AZmKjtUVO5CfrXItS1V8a/ssX3tMEqCvyxYBUgAu20dPHScEAhHABjMTISTksbmmID9bcPRso5IcvIQ3eR1W9y1QSTcolaIEiAKMn4aDv7QamC8e+JPxl5TCWr/DigDklf/CKoMGik8X/gKdg6jscxUWDW67KPdEUHq1iOaPT03GEsFlkN2GDwQ0IYSF4+QT+PwRn4At8W0BHyz8URDPDt/2JZSF7ViSkY1lF1loI7d3NcXA5pgCVY4AKQBVDjk1SAhUTwR2jE/+GMPyqy3uVFVZFLcgZ4IVD3UXu/vV+abufIieMab4t4uVZg2AXNuOzz1dP1690a5QzgDaZjhhcDYk59QgEidVjQ/Gsb2fBqVXq2j+pNR08D5LDPMDRDi4DJTpZr5ZKKAs5zgXCGvuMcLXfWp2oVq0ZvCSDRVSqqoVSMRMpSBgzBtVCmkiSggQAjUFga1wNlN8ynghYizbvI8rH1yIf3GAziejRl3jji5cDQE0UE75y0oICcnsGGJIgcWVs/BOn/HVKf7PoVmZconghdq4UP7BqcMfgoF7qjWlYJb3Ybva66ur8MehQbV+LIgeDbynAvKJ5RD+2ANA2YzVAWJFQXa0m+eFu1TyQrhS/qWPACkAl/4zph4SAhdEwOXR/g/GZpcQoqYScFarpYqNZy54uWM8aajUGh/4k0HoyxpC3BtKgIj6FQF+6nTzM88PnbclIsJ//5ThCZzrT9tNyoBs8JedP8pcZkWrw11OmfC6w4FR+ukCZTLQqif5KvvI/xAAXqmo+kpPYczy+JUrT1WHfhEPNRcBUgBq7rMjzgmBiCCAEXwdzs7fJQW3IbeFEvDxhXbK24Y9+6N8/C8QwHcLRqz6Qgkw4oKYGTLpwrrQsu43dSH8lAwjr/zfcimhomegObeTCpr6X5c5q//pTLtYYbF9r8ulTmQ6mwC+xgGbOhYqkqfShf/36FsmNu5Z6eL6sh6L1x65WP2gdi9NBEgBuDSfK/WKECg7Aq6CO1G4sSmjhQkAH/290gjsHJ88nvn0V1H2Cmt4H1BfkGCKDzvG3QnLwkOI9hIJsgxj9yNeIQVArFjwaL4PQL+VoOm4cj3uplIhcaRVaVAcpay5lMkQ3NPQcBq29XFJSJ1cmJP7QbwXACB4+SsrsExyRe/+a7azoE2BnCQoTAhUFAFTV68oGapPCBACNREBIUgb1/buw/i9vcU/Xgr7eg1c0z2U8BHbykbHFP4DI/npjvLm8N//OkEIK9z4nXHzc94QmwupXBUe+ubyPJwGoLOrui7M/MSiEe7906vTnobi8ai/Ram3HNGYe2CnucurfHnb7nHD2iqaPgXKjhD6ifioUtsxOxYg6B2jfkyN7IT3/gqmayvOaz/mxC/Yci5cLKg8IVBeBMgCUF7kqB4hcAkg0CjGdz3kUXshPrG9rOwR4v8MJfyxLn2U4it6DSP5NuZEv1FefEPCyfG9RUNRHhTCX2TFzVuzG57uz4P6b0RclPOpXOwF8DMRD/fC6XqTIGgfEY36BSs7A8JXV6Xw3zNleBdF98GJTwh9X38JgeiMnylnEOky4wSQhm8CX6J6+Ioey9YcDbf/VJ4QiBQCpABECkmiQwjUMARmpadrypmjj1lsi3XkUAJ+UHy13rbSxF04r7l5nadxWA12ADQkvCHLIMwdQ3Ah3uSidc5+F7co+wUnDVVzPce93p8jrZ7pIzAZ5e9DdYe4dNYIHd49FSNtn/6GYFWUMJuHtUG5o9vc8lsUQrdWPDV/4tA4KDATGNMnKj7vEFHC7oAdcKRJEhzOe8pCxtUFvPZ3OT0z8ouKU6YUQqDqEXD8fKu+cWqRECAELh4CW8cMuQPyXGzJ67+Y8tRVi3MftxK24yAaletiJN/OkrZGeUctBK0Y5PLTvRZm/9aq77zvnpTyMqwHP7XSmKbGd/84c4sVv9D9cFpaTEEDZS3a6htQliuPd5uf9VRAWoQikOls3+RhA+DoOBUKkjDvdxKkbVlvB4wGzWgRCuQwlS/0eVwLey1ZfdDIpW9CoHohQBaA6vU8iBtCoEoQyE+Piyr6kT0uJJkQWuZI/kev5npeMCBXBrjPP8O4fh/yzWG/wZoxghdDcFPsmzRw3OyLvRbkhBT+oqZPVz9UGZcKgKzp9YlNhsqsABTWU14Es30Fv6Jps/UPu87P+pNIitTFYRnZU3h8COO+aZ8yZQrXfW0Ebdmu1UhAROYJv4NFXFEXuVjR8m4L8n60itKdEKiuCJACUF2fDPFFCFQiAgWnG92lMqWt1YQw6WO72OfjF2R9v31MUpLOzr3FdKWjpRlY8k4KXRFBwNgvQFAQEf5mzwVr7BPqLLrOe8/4rJzdW1KFoIwVJLjKJuL2hLNMSeE9E9N+IpwK7XxDC9l+hte7XbJiZ5QvIHc0PFpnKPo7bW/hsatBs7lowuq3P+Cnj7xt4GkRY9rCHn0zN4Xym/CXphAhUP0QwJ84XYQAIXA5IbB5RP8GqhazD3Ibp/GZ43iunMQcf5yisYehGDwIPLBhn3HJEo43hSMoZT/E5Ky9ta+48dqMDLH/fKkXzhvAun1+jSyEbeyivHrzzhc4cnbvpOTeuqKuRx1jv3wEwMN3isoGdv846zNJqxxfYkqhsL4+CgceCdO+UEYa2WRsyW+nKMzl8rmaX/Fp0Vefv+D1qov6LMn60p9LIUKg5iFAFoCa98yIY0KgQggwV8wfMKKNlaNaHDcnZB1j6lqmKeLo2a7SGuCQ8rIECpn+f/ZgWBRB2YWeb8/ffO2WCwt/yTTX83Bcr6EAwHWvUFX6Ib3EHfvE8cM6V2ehjC38EcY2uOza7vPDF/756Wl1lQJ9HPoy7bzCx4FOXclXCV+sVm1eb2Aiq5eQotTtN1BTY2Kao+4rJRSnZEKgRiFACkCNelzELCFQMQQ2j0roBgn+cyn0BSkzwBUIRTGuNi+hBIioP0UIe3Pe30yEiXxV/bNaevstWzxWvQvdVc624ghA+4JzQakKgM5dr4CVrnYFI/Bwj4VZWUFpJUblbnwMu/FhpM8L+Cj0KsbWYsxaorvWpdWpy+sNSmL1EiH0+w5gzO22ssS9MXCIgRJQ4EykMCFQExEgBaAmPjXimRAoJwJwUsMmPsbWuZbQgxFAXpjPxt2hBiAqUxwC27YGwCTvOqdObp+VFZYgVF2+Az6fZisXsAYEevQ7+pU/MeUeCNsbZJLppQil4+2e87NfdBQLGcQa/Sbc4xkPs0U6+jAKnyjRl5IurV59pW78YKX+kDSM9CH0XQFC31lNoNEcnyPORAoTAjURAVIAauJTI54JgXIgsGnkkEmYfx8jFs1LmW4Idg8Eo1sGhYS0pgQcY//i1gC+TY9Wx8YtyToTLhtd5+cd3TU+5Sw0C2NPfM6FBaDYhe10r8LSO/9+/mAC7K2P8dYpcZvfnVentMEOg1NAbJruxRp9eOcVI2wN/UHM1bCRIkz79RNTldq9rlKYFqJ4cQIi5Qp8SAEIjQ2l1iAESAGoQQ+LWCUEyotALubSWQH/l1FfCFMoARCCuP8evng3IdhT5AVaAxz2AFlWFFB2w4owut/HWScNWuF9Q9HgOxR+APc+ghg+HfaPHVS/s+PsehEvVHUx7x9jU2fKUTfzTeu8cEmhnYZA/qS0TtynTwOpqTjOeAB6JoiWeLkaNzGE/pBUpU5cH6x8sH0dS6wTIqNliDRKIgRqHAKkANS4R0YMEwLhIxB9Xv8zhL3cwteQkMaI+lCDln/rdPrrWpYCgLsUy/ZAOXBa4CD38pH9VuR+Fz4H/hogeQBiGgqAaE1hBe6odrjvEBFxFajRLyGrsxGT3x6ds+t6Lsr7WsTyJw6J47om9hCYyHUdI31ZpsQvV5NmSr3BSUo9mPdrd4+D0Ndsh8YSK5WeISwAdBECNR4BUgBq/COkDhACpSOwcVRCIgbGP5OlxEgeAhP/z2Md/k/E0r2NIxPnaoz93hKkUiyjsJSrUiOQysIXTHGP6LciSwrh0lssPRckD1oKhijJPXor3KQC8Mn4pJ+htZsMmW58I+9eOA+e3zUh5WnUm6rrShdRT14Ws1bcvLuaxUqBXy8hWanVuRs6A4uH8COwfAmEQ6MZDqoaHBXb9kYFJZICEAQIRWsmAqQA1MznRlwTAmVCYP/YsdEnvCdfhZzE8n7zQgTOdb8dsHztpyJl4Iq127E64DB25mkvy5gFLdmKEfu3GlNG9lka/rI7q0nnHQL+K1O9kMk4G7C1CHwyMbkf8yl/F2HDkC85+BHfjzPma+tUGpz1RXlxqcKRDwK/btIwc6SvSiEvpzuMIvJbrmYoWfiLjYo24pOLz0p8ovHJw8d5kQLgRIPCNRYBUgBq7KMjxgmBCyNwwnMCh/2wHoZznyHZIdAz45PWvSDFm0WCsbnQCh6SIhfS15KPqPEDZ+qoPkvXSGXBKl6xO4MCEHC1FscMK77CWWg/WnIpGZFl6iFeT4RkktEFK6aw6BilzsBEpe4QmPd798NmPW6Dd7MDwoERPg4ob1T0hwRFeQlesvDJER9YBfbibl9QFsT+A158nO9K8gGwEaJATUbA+Uddk/tBvBMChEAQAhuHJSRC4P1GJEsZKEQoU77TmHozm6HoAcV96lxF1R8y0jBGF0qAovzoY/rYAUvz7Pn5gDrljXD9KzEqF5dsRWGt3dGFOGYYWw/jEkI6+HLKfSHka/Xpp9QWjnxYuqdCCfCb9/0i3gj545Im50dRWI7uUScPn/zgtpxx5J+HEiCUAukkaeY1cZahMCFQUxEgBaCmPjnimxAoBYHcIUNw7K7+DorItW2mGIQsY9P7rTSc6ZzV+yflrt28dsg3WCbYwkjn53ycTxy4fJ0wh0f0Un3aVz7N0D+gaoh/10IdkTvyGQoBmrMlvtG04D+qU1elbvJQpQ6W7glzvyhrWSpkqSBZDy0GdNj/s3cdAFIUWbuqe2YzGWGXXXLOOUpagigSDIjiKYqKiAIehgO9+xXv9AT0MIJiQlEMKCBRco6Sc06SlpzD7s50/9+r7p7pHWZznN0qnenK9eprdr5Xr9IhpJEJf6XL5VoQGhp6WORN39cmZLcrAEXTV1zmlgjkTQSkApA334uUSiKQKQQcIfrHoL9KNJy2SBLeD5svXD3bb8UjkLOzthkj83vAqwm4te9BkP8yv3kzGelSXFAyMD/vrUeQPwVJHRDOfDhKlmJhrduzcMzrO6PKoC9E+ihJ6XbTPsKmqZ9SJkPTmYbP8vDw8FNGhZn63oLSfW01SAXABob0Bi4CUgEI3HcnJZcI+EVgdYeWOAxHe9JIxJhekCPfGFHs8nB/BdZ2bF56vaJ+AVq9B+luXeOPN164eq6/vBmN23pX24q6qvUGcT8Jceg4YsHhnvrQuKUQcGcQC2nYBCb+9iykQRNz254np9kf4nmjhM88P0e4F3SEKCgKZW/evDklg6N+b4OM7bcH4JcKgA8gMhiYCFh/c4EpvZRaIiARSILAqg6tyitM2wRuLO794+aXNByS02rpmgNJMiPwZ6cWvUGk4+AtgSE02eWfwK6AH3zzZSRMpK8p7kdAyA9DHuz7t5zH0G9FQASFBdeuy0LvjGWhTTGvHxRkjPRR0Bj1IwuN/DHsx/MIvBXxpDDijTQRRkDE0tNIoA0FKxRFmeB0On9DXLpPL4QloSYa2uUVVvgiUNd1nzgZlAgEFAL0tyKdREAikA8QmIMtf8XiL65AV5p6usOZCzaAri0WrVvgiYNnxb2tiwXFu8fC24fi8UOA5QH6880XrP2cwhl1mzrfWUZXGJQK9gg+za16bvuhMSOUYiVYWBts22sdy9RSpYnOPYROHj/hg8WLF6ty6dKlxtAE+mIi4RFkK5UM+VO/hCJA6fhcRZAUgffhP2bJltoTCgCdSEhkbz82MAZ1+O5mSK0qmS4RyFMI3PZ3maekk8JIBCQCaUZgdWzLTzFAfoEKWH/YsIe/0GLJOhrhexxM/p3BZd8gT4wno64Pa75o7WhPpnR49BFM2bCmRQfO1Gdh178PRY27BSwhfOrCaJw5a9Rmoe06s+BGzZjiwDpF/2RP0YLArXRF4b8WK1aMFAzhQM7Oq1ev3sMU5VksCbgH+RWT7JHuVSYojpyZloDnJFVV38QzTYoA2vkLxcuKSoyvOii70xaWXolAwCGQzJ9owPVDCiwRKNAIrIxt0Vth+i8CBJPs4P+01eK1gy1gVrdsGaqG62/CJP8q4jCaNUlR10c0X7z2LStfWp802teY/jiqeQ5lKtxezqyfEuBVS0eykOatWTBG+47iJU0ypjRrpG8QtjdsELZPeHjx4sVH3d4Wjja8ebM8Vvo/AwXjaZTEGgCjPJE+fFQNPvSksPDfhP8D5B+F5xURmcwXFIA1SGphS26NMrS7QDqJQMAiIBcBBuyrk4JLBAwEVnRsVo1rOp32JxytgoM9f0ECCxlqRrE1sS2awzowURyjS0QoEsRCuo/SQ/5itL+yRQdcnfesm+l0857Ds5rPqNSsmxrAngKnkznrNWYhbTuw4JrYSYfRP9G94WjNP0Ke9XwkN9uMmIaeLEY1lsBI12lLnl+HxX5HkfB/yPPv69ev91EU9R8I10adIH1PI9SGUAaQForP65qm9UWZ/iD0lBY+XkReu5MLAe1oSH9AImD9JQak8FJoiUBBR2BDp8ZFbroca3DOLy1Us9yeBD2+ZezSLZd2PlQ76PKFiBE4W/cf+GOHrd3rQIrjmy9aNxDxxI4pug2dWpfTuPsZ5HwK5BxtZDZ+Pvz9iKhlK7LgNu1YSNM7mRIebhAujb7pPzEKJxKmkiJ8Aab9SW63+5uYmJgtcXGnLyGpiC1dlEdYg9m+ZNGiRX3J2K/sIHV+Iz7+XkXXh6PsnaI+IYPRtk+YFhd+hYqG4knz/Ukc6pqEiEdtkVh7wA2Liy1SeiUCgYSAtAAE0tuSskoEbAhMfugh9dbZv34CjdYUo1pKw7W5mqrdG7twy6XVbVvWvXxOm4hYXHbvZXmTsH9o3mbd83xRyuT/Z8dWTTXOXnYz94PIKX4vxGBayEFDaTHOFyEeFsaCm7SEib89U8tVMIieMvh3MEawNbAHTAQn/xAVFXXDm03cFVCEtBKjtOHD9660kj/VBYKmgrPoc+vWrU54vofhP7CwyeQ1B1Bkf3yag+x7ouwR+O3OV+nwvSDInlf6JQIBgYBUAALiNUkhJQK3IxB15uho7HG7x6Azsd//gqIpXU6VLHd0VSz/h87c/wYN0mU2MLMTF5IH+RibFq+F9OO+xwEbORiZ+dcua9GNK/xlzPG3FSqCnTPNfKI6VKaWLc+CYjuxoEZ0LG+wl1+pSVHOa+rHbr+/dF371u3WJlSsWPGIrSq79ySK1jKs9kYl9I1FC6vtmdLjDwkJWQhib5yYmPg4yv0Hn7IIk5LgqcYM10PEWvjvQ9paTyJjl2x+8gpcfeJkUCIQUAhIBSCgXpcUViJgILCybbMnQIovETnTRncQ/A2wGUau+tXos0cXgdra2bhNcLgoqekLLocW79P1jz/ogpskjrYRFr116eG1K2AyV2hKgWiXnHGYkOETQbC+A3P7DVkQDutx1KyNHIZpn8rcNq/PeALIez7kmVi2bNlpINbb2qa6be6qaNrkZpKClAHUnKlFd2iXzjn4DuT+a0JCwhtY/PcKwmJaxEcZKI14Uhi6osxy+P05aQHwh4qMCygEpAIQUK9LCisRwKH27Zu31nSdTu4znM5uYg9/TygAtXCM3x+gS3G0rm3Qb+VcHlzIdV/XmX/EWxH0pJMANaa8wOMvDgSPlyTyFdRvNiBsBmYBXqQYc+ISHiJ+pQjWwVEewdBGBuH1hrdjYv3rYKfzB8ztnzerSMvDTv2e+rFYL8MWAHujIHWabhgOJeB3KAFfAafadmXJzBuO50woAXch/zr4fX8rpQJgAiUfgYuA7z/qwO2JlFwiUAAQWNG6WTVN06eBeIMESWP3G8beA0BiQ2EF6ErWAGJMg0GNb1IE8PmTuxzdmsxc55lrX9GpaSVF46+hPmzl04PN+syyohqBKMWrlasyJ1by04p+7nAI07kY6wvzg8iGVtGuzq/AevATFvV9U6lSpQxdJITFAVxRqFXD8mCQs368VKlSt51kaLScse+goCAy9TfG4sMP0RZtZfR1hRExA3ma4On0SZQKgA8gMhh4CEgFIPDemZS4gCKwvE3DOzSu06K2kiBaQiEeTPwLiHcMxVGEGI3TI6kisD3IoXdtvmwVnYTHVnZqXI67HS/j1P8BID5B/D5rBCibIHq1QVPmbN8Z8/zl0JSIFWmC7G2qAsIrYab/KqJQxG9lypTxKBkiczq/MI2BGQPD7mCqMKiBL01nNWnKjtE9WUMG4vyAtfB/BrIPxdNethQCv+GzxR4Jv1wD4AOIDAYeAlIBCLx3JiUugAgsaV87Qtccc9D1qtR9ImC4KyDdJy0eTjKCNwNQBPY6Vda5+aI/z9M9AZru/idziQt5nHai85SFqYCXKMkcNLffnLbwYTZBECJymKN9ymvqF6cw2p+IRX3f1KxRcx8JlEWumGjD+0X7/5dmUd1+q3E4HLQ2YCs+mEJhkT6ZmiFsu8tApEoLgA9IMhh4CEgFIPDemZS4gCFA2/143JFJ4EMyRZsjcQHCHUIRQAItwrMrAuYY9piiOLrEJyYGrWjX/CNNcz2L+BArI00NkLMGvLxCZWHmV7G4jysq4q1RODKa5I/sGtpcDMXjixs3b/zepEmTRFFJFn6htVK06M/eH2gAS7KwCb9Vob9boAC0Q+IifGJ8MvmO+H2nBHyyy6BEIO8jIBWAvP+OpIQFGAHwIF92+vAXePSwYPAlboonRUCQpqkIIHwS++Ye19zuf+Bw/KeRI5iMBj5TA4wHBTOlSQvmwN59BUf1GqRrqg+iQbOQGYXR/qC6dep+ZsmSLU8d0xmiPbQND7zHSpUufShb2vKpFErAPlMJWIyk8j7J9qD87bSjIf0BiYD8RxyQr00KXVAQWHJnk1HYvIbT9zxk6Ok6KQLW6J0iKQd9Iyu2u/E9+J4HRUCMXD2UbmRirEgRprZqz9SWrRkPo5P6zNG+0YxZE2pJEkbdjL+xc+fOX2rXrn1BZMriL9RNpvViRm8MmaC1LM3iZlKsDlgcghJwDzLROQC0ENCfc/uLlHESgUBCQCoAgfS2pKwFCoHFbZq+AdM3XdxjsjvoHEwuxsQmEv6tAXRmjt4hqUXAKMAjowTxK01wNYCT/vwN1cDgeS/bW2GQ4QZkauJNYZFYpf8+4p4yasza78KFC5eH7KKXok18cSX7zf++vUC/d0MJ6Iv4afh49CdbvtTOMrBllV6JQN5EAD8U0kkEJAJ5DYFFrRoPBvm/RXIREXocAiAmxCWJRRzFe3IJDwVFPiTw8pWY2rc/c7w4nPHmrbCrHeffmPmNB75vD6/HDXsdER0nEs100OGTGKl3TNpa1oRw1n8lqkk0ZX5h///SrKk9fbVACZiOEhOSKSUtAMkAI6MDBwGpAATOu5KSFhAEFt3Z+BmQ7EeC0E3SpYfpNVBAwFADksQmVQRULORr2JQpQ4YxZcAQxnEbHw7m8ZQnD0rj4htRmYg3ahNhDVkHtWjR4gra+Y9P47RrcPyGDRvCjMqy7htkX0nIYAhCFR+NjIw8nHUtpK0mKFm18JmC3P2SKSEtAMkAI6MDBwE5BRA470pKWgAQWNS6SR+w+OfoKpiaKB4Gf4sMRYwBgqBxMx6nAIpIz9RAEKbRG2PnWutYxouX8KBGuYxy8HGGY3WVsShTA+29YSSYWUVGPqFBgwbiIB93YuKXijP470itKiQyLPSVQ0LCaDHgE2aprHkoShWhbJgd5FxZkjUVp60WkH4FKCEj8HwMFgCYSZJ10gKQLDQyIVAQkBaAQHlTUs58j8Cilo0f0jUd++rt1/baxvlEzKYjrydoBvQQrPdr2Ybxoa8x1u0BxosVRyYjl5n3Bur/StOUhhjZt46ICJuCVf397XWa+XHznYZKDGds9dNeJ0m8jSKN63137tz9rJUvK54g3jpGPYbEOWX+R7ulcRjQx2hvL9p/Ap+UyJ9ElBYAQkG6gEZAWgAC+vVJ4fMLAvOJ/Dn7Ef0Rf5Mmb9tW+Qv6BQGb43wxQjb5GIf18GaY17+zLXb5hwozv5lswXMApT7T3K4Jbdq08Vxre/Xq1Ycxwo6iTES31q5/hF5r1KjxWaswPevXr//b1m3baE68J4WN/ML30a5duzbUqlVrE4Uy62DMqG9tPRAqQDYfAATiL4o7AV4F+b+IEX84wmJHhE8/SBQ674B2KFhOWgAsJOQzYBGQCkDAvjopeH5BYH7Lhn1Avt+DesSo007eKSoCGOHrbWIZa4TzgRzOJFZ8YIObfNkfOKlv7J13tpoHcsPWwKQOcUMpxkP+hml/SaNGjXDuwO3OoarP4Rrf1shfQigLRv4QXee/btu2rUm9evU8ysXtpVOPOXTodGkMrPExZdLZIRwrfDT1kunPAaIPiY+PHwzyHw4cYCpBmz7kjzCWTPCZSBqBD03L0ImAlpMWAAsJ+QxYBKQCELCvTgqeHxBY0KJRbxDqRPRF9ZjrzYV6ySoCRYsJ4tcbgY9ooR/lJ03BKHcBoW8Uzj5r06b1oeQwWr36z47gNxz5RyN/OEMLuAFPf9RHodsc9v7Hbd26YxCSfzJ36hl5uF7J4QiafuzYsS647vfmbQXTGKGqrnokiLXuAcrL0jQWTXM29Fm5devWY7duxf8HcJWzCnrhs2LYLOAwAp+NFINyvicexntySo9EIEARkApAgL44KXbgIzCvRaO/YRD9HXqiWoxrkLERslbsizjq7h2lmLttLGN16KhexILBjPxI43wTxqtjg4OdP7Vq1SoNJKy9KYiW6vWwH/9nkyaND1JUcq5+/To/b9++naYBHqE8gq6FJUBvc/Xq9Z9AlA+CNDNkHkex+jqOMBDqBzqGupYkJ0dG4q9du3YXtjWOBlj1DR1HoGd2nzAX4TlutzIiKIiv92kjwSd8xScsgxKBgENAKgAB98qkwPkBgbkY+aMf34J7VUE7BheJgTj1TwSJmOG0UqU1vVU7Ra8P4sewWAz4jTzxKPCbztxjO3bstEZkTsPXqlXrOoAA24isHvJna5o0afRxGoozLJR7RlHUGiD/BuJWQlN2MHfPPXv2fIY6MrQwEIoDLACWw3GGmr7UCmXmef369YZQJkah/s4GzXvIXuBN0xmAYR7aGOF0Oun0P3/OVwEQNyv6yyjjJAKBgoBUAALlTUk58w0CfzQz5vzRIcz5G0vviIl8FQG9ZKl4rX2nYL1mbYUrRPyUQ4y5jyE0HiW/6tSp4+n0AgPyf9OHCG8oCn8K9d+2TsBf3VgQeB0L/+5z6/p6iHMH5RFSiR7w/rt3771ao0a1V1AfNZNmh8z1rdE/Cu2PiYk5nubCfjJevHixPA4W+g8Ulr9BFkX02avwGCV0fZ6iqv8G8a/2U0VKUdICkBI6Mi0gEJAKQEC8JilkfkFgXvOGvUBExlY/8LlJ/+ieVxHAOf1XQfyFtLoNcVMPzPyC+DFI1fQlMJGPDQlxzIiNjc3QIrSVK1fGgqzbiskDwYggb85exVa/PenBGKv+j27btqsXaHUBqgkSyotZH8R9ad++fREYdQ9Mq1Ih7gDQWQ1DCxIVLU2PPPa8ly5dwl0C7HVw/iA8cfuh6Uz5EIJo+ixdV98OCwsSZx1YWVJ4+v5WSgUgBbBkUmAg4PuPOjCkllJKBAIQgbnNGz6IIfZPIEvj7w6ERJxEpCfoPyT0kiu2U7jWqFkhMvUb8ewqkie6XcrYbt06785Mt0F6fOXqNSMNskbLYGp8z2nRtCmZ7dPt6tWrtRzrAfpA1l+gRTgM8jasAQg/u3fv/oglS5Y8kRZlJTw8vDYEwDY7w5aga3x5egU6fPhwSLFixYj0X0fnoAQQuqK3ZOJHd3XAz38HDm+jvc3prN/3t1JOAaQTQJk97yHg+48670koJZII5AME/mha/wEQz09gIQfREjmDmkBTDsdZV/u7uLtJs5KcVvWLFH030se6EhMn9uzZM0vIZsXq1Q9j6qCZyYZEj2cUppPp3xLJECwd33Xr1p26Y8eOvujX9yiGxYxYWmhsDyT94tEy0dF3YHT/SOq3ByoNLfInaTAbkdaROQ3nFZj7H0X7b8NfnpA1uuQhfxxrrE+GEvBORETEjnR0z57V97dSWgDs6Eh/QCJg/QYFpPBSaIlAICAgyJ/znyGr0/iDwzd5uHLe1bT5OXe7TtUZbuYjU7/4D3vPu3Xr2jMzxOyLy5w5c4ILFS4KpUKvKNqhtjjr0bJlS9rnnmm3Y8fuJzAd8DXqxqJGqtvoo2iL8QMI9qxatequ5Br666+/PkXaCyQU/rsQExNdEmVTVUzOnz/fGeWwsp81MNoU5akaksGFL7K4/Be3DKZrisNXTigWWxBX3xYfhvrTsNvCVkJ6JQJ5DAF5FHAeeyFSnPyFwMxm9e/HmFiQP/XMYDTtFguLeO/my69FuDp0qa7TzXxJnPZNWsgvSZFUAuGFCsE0rle0smlYRJhV5E911qlT8zsQbS90EGcJGGN5epodrgLfmgMHDjws4vx8gWAbCmzEF1+fWv/PnDnTAJ952CkwH2UbUJXe8mLP/teIr1GkcOG+mSV/U1xaV2C5REn+FhTyGcgISAUgkN+elD1PIzC7Wf1uis5/BjE5TSKkBXcLXdjudnPw0ElMdQSTydzj4EU4AXvVF3rissCzfPnyOzAu/qcw/aM+NLP3enjoy1lQdZIqsDDwd9TeEZHGMcKeroleFoYJ/mcoARP3799f2F4QRE3nINS3oMDAP1nzf1xcXMXTp0/j1ESGA3r4XSbti6KY4cfhPDqtZ6hatGjRZ/BJ8UwDuwxp8NsVgEydeJiGtmQWiUCOICAVgByBWTZS0BCY06heB7DSryAkLGwTNHVB09mAruu23NV93Zb94Lwifsifcm7r3bv3tazFi48C+QsCA3EmYhrg8S7Yype1bRi1QQlYq2nuVuj7dqt+oQeILxHzOLY0bjt06FAPK/3o0aPVkD/cCOt0y846K816YrQfeepU3CcI70FVjyG//bfrJsI4w0CrXLx48eexEPCoVS4rnlBQnPhE2OqKs/mlVyIQsAjY/4gCthNScIlAXkJgduN6zTWFVpuzEJAVrYr7XtPU6t3Wb/kCZnKDD3W9iEdmI8YIcn7AE58FnmXLlrUCeT1JVYlmOHvrzjvvXJ8FVSdbBRb8Hbh+/VoLzMN/K5Qc0bCR3exqeWAz/dChwzNA/rWQ0shKpfRgVfVYALCyv+jx4yffcbncwEWnFf5BRkeohE6K0vtut7tiyZIlXixZsuQJis0GR8oTXp3HpfvsBU9J6ZEI5CEEfFe25iHRpCgSgcBDYHbjunWx5HwO2KIQiGq/ounPdd20bbFvT3RFw4JAUx3wPugKnyxTACZPnqyCaMfSujoiVjSz8tSJEyN9ZcmOMM4VoLUA/fbs27ccOHwEfyFSBkSfzQYR7u7WtHsRd4wW7ZnucFRU1NmTJ0+GgdgHw1owDEkgYKMHZj+u4VCET3Ax0RhcFnTOKpiNT2E9sdUvLQA2MKQ3cBGQFoDAfXdS8jyGwMwGDapqTJkPrgoF1b2lXL5e1x/5m2J7zsu3TwWAsI9mVbdKlir1AuoSC+TwvKJr7r6YXvC0m1XtpFRPjWrVJmBKoB4Ie4nIRwxu9xim/PJE8CJJ1zdhR8BAkP8BrOAfiUgP+SL9OhZRjEZ9FSMjI1/PIfInaT0yGLIzqQCYQMhHYCMgLQCB/f6k9HkEgd+b1imra9oCENkejFgHdt+wPbVtZ25iPB1jc8+omMKK7sqKLi1atKg8qn7bY2TgbHC7tu0OZ0Xd6a2jZs2aRzAN0RELAJ9D2f+il0VFr9Ffkg9h/GeZKfj9iHhQJHnTYU3gnyucj4qMLH2GSuSkgzJSXMFRzOgDbS2kpuUUQE6+ANlWtiEgLQDZBq2suKAgMLVevVKKW/kB3PBG943bO+CTGvnTJQAu+8hfKAP0Je4HyBxyICrwlDIetcDsTo5PbtemzUThzaUv2taHcwA+U1UFlwjh+mNP562RvyUYVCDyGoJjn73+YYLTWRmj/Zcx6s9x8jelKkPkb3PSAmADQ3oDFwFpAQjcdyclzwMITG7cuIiiJ+CymaAHu2/YmOb5aJeLX1CsS4CJW8xZemwbzLRSvnjx0iegjHQR1TJ2XFUYjbzzhMPFPHROIG2jS8QnyNZ1BD2WgATEQ4HRRpYtW+5kbgsOdSpGjPu9gkgFwIuF9AUwAlIBCOCXJ0XPfQSKJCa6umzb/kF6JVFV7TSZvcVI1/sgM7O4XS+99Vn5cfZ+JDh2jDCpc9yo62ZPtGnfJtf3reM44Ag1KOgFTddfh7G/MFnSTbq3RLc/nWRxv3LlapoVKnvhrPZzXS8L27+9WqkA2NGQ/oBFINOjjYDtuRRcIpAFCHTZti1D++kxr+wxZ3us4UIevXpmxMLK+C8wehaL1nAm/5iOHdvdtgMhM/Wnt+yGDRvC9uzZM8zhcBwFkdKiPvMQIBr7w+nsquURMUY0supDChUuvAILAisb6bn6HWO1bk4FHLfC8ikRCGQEpAIQyG9Pyh6wCGA1/k2MKc8lIX+D/KpltFMLFizoj7LdzfJbb968/q+M1pXZciD9Qrt37x4eHh5xGPMbI9G14sLaISoWNDoX5o6uGFiPNGwBSNDFtIDwCCh01gxrBzYdP3788czKk5nykFYoACb5n4dMlzNTnywrEcgrCEgFIK+8CSlHgUMAJwN6b6YD45EygEctmPHTPTWHVf8YKXOY/oW7hdP+/ta1a1ccjZuzbtu2bcVg7n8Dlgis/GfvovVSoleGYFdB+J/C+lGzapUq91SpUuUPkGojkYQv5H8d6cPhjScgTFcY3onHj5+Yf+zYsapWZE4+QfgxtjWAh3OybdmWRCA7EZAKQHaiK+uWCKSAAEjaUAC8ZEe5C1+8ePXOFIrdlkQH/oBwv0M1ESJRZ8M6dOiw87aM2RixdevWUtu373wHB/cQ8b+FpopTcyb544Q+HdMAalnsBBhco0aNvSINuxUgMx0bLBxu9V1avnz5Udju1wTKzGYqbSSI787Yirft1KlTb+IugWAjIfu/oaCQAoJpC0MWhA9lf6uyBYlAziAgFYCcwVm2EqAI4Aef5qOTrADLqq6AKHd4Oc5LdqrKu6anjSJFitGo2VAadH1ex46xdGZ+jjiM+Gts2bJtPLYdHgXZv45GPRf9ILwDwPXDSsRKIP3RlStXTmI6xzG/dZE/yhT00l9/HaQrd1m5cuV2nD17ujlw/zf6RbsF4AQ+IVhEOALTCrugCPRFOnZTZq9LSEgoS6YJm5MKgA0M6Q1sBKQCENjvT0qfjQhMnDhRXFADE3ASBsiqJnXdvYLqEqNkW6U4Na9HWpWOefPmtUX5EWbxc263q192yWsTkW3ZsiV285YtM7HjYBfM9s8CoBBB0gIpvhRx99aqWbMeDgH6FncDJNjLWn6XpnXxKEC6Njc2NtZzCBKOEk6ENeBNKBCwBrC1VEZUbbyJSgh+F3f69I5Tp870BlbZ9jumqmo5atvmDtv80isRCGgEsu0PJ6BRkcIXeATGjftarMbPTjLFQsBdIC/vPneQGykDeNSYMWNGl9ReAsi/FNYR/IR8Ys0AphSeu/vuu0+lVi6j6WR637Rp0+MbN27ehJH4YgjaDXWZ2pGOkw35r+hB0zp1autAq+gAAEAASURBVMXiVsA5qWKnsYcMWQSrz/QnV9myZbfFxETfifsVBqF+04Jgqkw6qwHd7BfcFLgl7syZp7FGINRfHZmJw7kFHgUA7wr7KjVpAcgMoLJsnkIg3YuN8pT0UhiJQBYjQPPpFy5c6MC5a1Xfvk/ThTbZ6zhfjAboetskxwJjUPsPxM9NrvERI0YoIKPvGVfKiDy6/lvnu+6aklz+zMSvW7euoqKoAy5fvvIU9sPfIQwiNCtiTIzcYLo2AVMAY+rVq5NmcsSxwFXAp01JLnSddkTMTk5GKBIa0sZiS+A0bCf8CPl7Ca1DtE/KA6+L8FfBwcGjzp49+zXyjMuqK4FB+uXQvpgFwIOh7jT3Mbn+yHiJQF5BQFoA8sqbkHLkOgITJkwIOXvhQi/cKb94wIAB2U/+6DHO6pkpyN/ee+I0psVOnz492cWAzZo1ew2H/dwliunsPI7YHWSvIrN+MquD+LutW7d+Nsj9AOobhs8dol4hHzsL6Ue4XInlGzRoMKhevXrpIka3Wxdb+4TFQ2NTfdcH+JMfawNO4kjgh3SNd4DasFWoDshoiCNKlMD3P1xu98Fz584vOn/+fP8rV65QXIYdyL+cUb/4pimKYxmuTBaUCOQxBAwdPo8JJcWRCOQ0Ah988EHRoKCQfg6H8inI31x4lv1SwOIQqiiOU9AEitBIU/xHQ036n/O9CfG3GtKZAXZJ5syZ0w7kvwjpKuVHzsfvueeuH+x5Muqn0T6Rs6LwfhCggiEKWhEeerKDuLFoDGPub80rf9PdFG1zjI6OOQLRo6lerPrvBAVgUXoqgoKiYiHgM9h18B9IBauEwIu+TAw94US0sBAnC05FmYWwDBxJTztYBLgM+duK/jO21+l01khPeZlXIpCXEaBfD+kkAgUagU8++aQMSPhFtzvxjSFDhuT43vnffpvyFYjraSIZ+k/8T358QI4f9+jR/UXrBdG8f6LbvRmpZQQp6WxW1653W4f/WNnS9Vy7dm3hRE3rpTDlCRi726Beapz+N8mUPMp6hevvHTp0aGpmrxTeu3fv/WhiKjWA/h0B+VdGmMz86XaHD18sGhaW8BoKDkJ9YZDakFsIL0K+4QNIgkKgLII5/8/Q0NC/Umo0Pj7+MGSrYEDCp6BMr5TyyzSJQCAhINcABNLbkrJmOQKffvppNVxJ/z+Y3PvkBvlThzSNf6uo7GnfdQAU1pg+ePr0Wet79uz2A8374+qBH8BoZUhJQPo15BiYEVBwRK/z1q1bnbDD8fFEl/s+EBwW0IGDwY5k7Kbq4dFwNdEsN2cftGzaeClFZZF7RbSBL1gyvs0o+ZMsFSsWu4THMMz9f4gdCf9Elf3RBdslQ57eGHMFXK+C3mH9gf4csGRXr149h/Y3QSHYjPewTVH0w0g7Eh4efgpPFRaAaKvPCO+w/PIpEcgPCIi/8/zQEdkHiUB6ERjz6ae1HTqfhpFtt0GDBu1Lb/mszA8rwCqQbytzpClG3sTCIqzwRCzWGcCYEo24/4g4ysH14Tjtb1Ra5Zg5c0NYeOHrd+PGQYzA2b2opxgqMdpAJVSvGb4IZv4a5xGMa968+eG01p+WfDgiuAPaWCTG5hj1u92OyjVrVjySlrJpyYNpgQrYujcC6xZwQyN3GF2inznqp4kneVIP30K2v1BHNYEL8mNapDcsANjpIJ1EIH8gIC0A+eM9yl6kE4H/YeSvavoCkOhzgwYNzlXyN0RXcSa+NkP4bYNWEdaYE4vuv8GGO42I0xii6/uuXbuW6i2EmG8viZHtPRjZ3q/za11wQVCYBZWnGTroBmyH7+0K458GOR0/ZHR+36o7uSfa+Ke1gh9NzshK8qc2o6KijuDx5KlTF0c4ne6X0LGn0SamBrwOYaBofFNsMmGca8DFvQxWOk5blBYAL4zSlw8QsP9d5IPuyC5IBFJHAAv+KnDFsQIju5kvDhn0fOolsj8HzMt8ytRpW0Dw9cSIE3+Z9BT/4Um87w3DFqBwDP67/uEr2cKFC0tge2Bb5GjPFR6LMnVEaarL+lAhy8/5TYWzKZqmfNW2batlvvVlZRiXA7VCu6usPqEPrXA08JqsbMO3LuwCKJmYmDgIfX8Bn5Ki34Sqiaf/sIm1iRHVibLxWAAYgafnsCLftmRYIhBoCEgLQKC9MSlvphB4d9y4YnqCazZ+/52aO/H1TFWWhYVBLPrUqVOHYjC+iLbGEUla7rYwZzOJ/GfOnBmmKMG1YElviP0ADVCiNUapdVAXBvJmaXN0b9VlbWhH8kbU+7Xmcv3UNjaW5tGz3emce0b/EGtZdpM/dahw4cLn8BgBBevdixcvPgBcn4UlpZ3QgCiDGN4bY3wK2gwDRhBJpCzA7ZXkL3CQX/kIAetnIh91SXZFIuAfASyiCypcpPg8/KC3Zwp7bOiQIZP858y92N+mTv0FJNUbZGMoAfgLFf6k4X2IK4QcUYKcKM1MTznMQIYcJweqX3fo0Ab76HPO7dq1qwXaXg05yRGpdq1evfptFoyckAhWgeqwkjwFPakX5KhkyEM/hUIuD94+4R+DgoL+lhPyyTYkAjmFANYWSScRKBgIRBQu+hGGeO0x8l3998GDf8yLvXYoyisgnltiJGoXkAap3shq8OISHbINmM5Mvz2sn0KmcTitr+O5c2cjO3RoPySnyZ+mNzDip/UKYsABqbdWq1Yt2VMOrS5l1xNWgb1FixYdVqRI4cpY/d8A7bwF3DYBT49538DRgyZOaeRy/j+7XoisN9cQkFMAuQa9bDgnEXhvzJh+YJ/nRJsaex+jPu+ve04K4qctHAaErWlqB8zZd3S5tViMQ0NoiEz0Dr/B+96HGfak+gnzI0j9HVVMWbVy1WpYPjK0x96PqBmKwuj/UXA/LAAkKvqks9F5Bf+IiAiyhNCHpgnCsTWyCcAaDo3lbnoHltPdbigI0kkE8hcCUgHIX+9T9sYPAu+//34tnF43jrgUtHowOqaMsdreT96ciPr++ylRapCrI8xv2BKndIBU5a0rdcxBskGUJLDpbHQvYkh7saUex1kGaxSmL8bBOovuuqvTfqtcbj9x3kAYRv8jiUtNmXfhauBfclsu3/axPqDo9evXn4RF4DkIWt0GLpZN6DruGVjvW0aGJQKBjoBUAAL9DUr5U0Rg/PjxzivXrn8P4se2Lhxgy5SPMnuSXYoN+kmcNGlSMRyt356rrAO24XVk3FXT2AqH8T1YEQZy8I1J5+kLH0W/WmNB4HE/zeaJKBAnXWoUYwgDNUZTXsfo350nhIMQly5dagLSHwiZHkEwDIcJmQN/432YayhxeiC/kFdklnJIBLIKAakAZBWSsp48icDlq9dfw095I2JaTEW7mZaIRXDZ66B0hAUHh7fG+fMge94BnNIQMw4qztUD2dPI3RwLC7K3jeT9hlNUDsprOu+C3nydvT3KWO3bt28vi969SqVN0/+q2rVrTM9YbVlXCgN6JxYCPghyHwrLRDOrZoPszXdDMsNLM0V4/mnlkU+JQH5CQCoA+eltyr4kQWD06NGV8ev9Gg3pxI85Y3++8sortC0sSx1ZGRyO0OZihM/0jhgttkCLOI6WxvUmoXjIPdnwBSgH2BOvx6BUfauYR1BRzCxLkVaYs9G4H2Bmly5dznjy5h3PWIgSZpC/0HyG56ZoZOYH+T+LUT/dG1DWY3WBUAayXnztYbxPaf7PzRcn2842BKQCkG3QyopzGwHMi38I2gnBjz5+7/Fzz1mWbDujM/ljYmLqw6IgFu7hkNg2jGsR5vBesIkx0jcRAJv4jPxpXfxepK6BUKswd7/moYd67V66dKl6/vyFQxb5C+KkqQGTlzz0JDye1OKJiRpu52OP5Tbe9va3bdv2KGDvTuLjf3IzateuvdLw5uz3mTNnqtBlT9j69yT+HUSY8EEwA1FvWMi1DeGT9kWAKCctADn7ymRrOYSAVAByCGjZTM4i8N/Ro+9Ei91MO65oHObcDCsA48Z9XV1VXR2wd7wDtoTFwvReAgqFcB4qTn4ceQNcsx7kswqH+a5xuYPWPPHEA+eN0t7vX377rRtO8MHIlDjfZvrHKnWQUjziveZq5DGbJ8Xmb7gieD7WAkz01pZ7vq1bt5aChvORQf6QXFfcOJooxw9dOn36dCvM72MKgvfAMctYc2naY2yMb3oTcO/RVKSPLVSo0EosBiTLheUScWPgFisgnxKB/ISAVADy09uUffEgACL9tw+NujHvu82TIRXPxx9/GaOqbqzSZx2xsh5PdwxRsjmVAK4Q1GHTL4ywqQMcQ8IqMuljJLm6bNmyW2JjYz17zJNrGnlxLDHaQN0e8zSqxRqCf2Kb4A7Via1oOivum05hlPts9uzZm++9997tydWfU/HA6GPgU1IoKAAByszntWvX2ZkT7cPaw0H83aBs/QOaUWvxvqx3RSgJqMx3xdhxyDheVZWvsB0wziZfPcuP6rajrptWWD4lAvkJAWsQkZ/6JPtSwBF4993/NeSKtolgwI+39Tn86isvVUoOGlwLjDP0eSxKdMDiPSL+6vBbZfEUtSUJC5LmPBFtbMZ5+mtAFqs1zbG6f//HjifXTnLxP//8czWYqfdQA9QWfRn1s5UPPnB/Gyo3ffr0e6EazBRZzHQhF/mNMC410prCEnAluXayO37z5s24WliZBuGF/JDrtNvtqtGwYcNsPW54586dQcWLF++DVl8FFLUJD+/7M/A0w2B/bJdUlHE4DGgG8iVRzEiBgAXgIuKLUH7cV/AZLABQzKSTCOQ/BKQFIP+90wLfI/ymv4DfcUGKFhi6ph+w/PQcO3ZsREKCRsSKeXwdB/Do9cEZGOyT3QA//cakPWWFI84QjEaBcxjdY7EeX+NW9FXc7dowYMCAG5SQOecYjFbQvGjd06SucI/pvGfPnrN/nzHjX2jnHVNIPISaYAldDTX8ioOFumOrY0Lm5El/6U2bNt2BLowz8EN5goyzV7OT/M+ePVsoPj6+P5QOukchxjjfyYMihDDwxPdlIDVR17VxJUuW3JNc77BAsDwu/SlilUKdK5LLK+MlAoGOAKnJ0kkE8g0CY8aMCb0Vn3gGIzi6uc2rBHD+tcpVzJFrYmse0prj4xR5qPdmXp+whvBu0MkanaursJNvzfPPP02L97LU/fTTT2Uw+j8Iwgwx2jfl5nxOrwfvv9e3senTZ36NfE8ZBEsKAOVHLqsPTJm8bt3qPjl5AiCNnDdt2jITpxneS7IYMvFl9erVjYWsxKdZ6g4dOlTa4QgaAmvNQPS7mIUB4SdwMDFBeDvWbIzD9MoPpUqVupaaEFevXn0Q5X8z4CRceUxYWNiJ1MrJdIlAICIgLQCB+NakzMkicOtWYhf89kd4MhiTwIhiuBdee5p+2JM4pIMgKJ0cCEL/U2NYma+zNYmJt9YMHTo0W03X1Cjn6muQIsQjBeIQdnNde43SfV1cXNRzkWVOlUP+TlaaMWK1QlrvZi1aXUBooBWT3c+NG7cMwUI/KCuQxLCWJGK0TVfwZin5Hzt2rAoO63kZ9T6JqkOEBcTWeeHVWQJMONNgFRgH0l+enr5DkcEWTvxrwP/w7w8PD5fknx4AZd6AQkAqAAH1uqSwqSKgsK7C6mtmtHEDYkCr+GX3KgH6EZD/agXb8RSur7pw4fx2jJqTzAmn2l4mM/zwwxQsLnQ/45EJAtOiPoXxL3r16uV30eKAAU0Ssff/vvjExHno0J23Lwok/tKfmztvnr52zZpB2W0JWL9+fUMQ7igBhTlVAqQ/aNigQZYt/Dt48GATVVX/geuOHwD5q5536XnB4t2ewLsc73CoX91xxx2nMvZq6M4Co1K0syxjdchSEoHAQEAqAIHxnqSUaUVA55jXpx9wfGN0jx9xq2SCruHGNwVkjxG+K1FdM2zY4JNWYm49ueqiw3FwTDHkFORPPn4xISHojZRkwsE/17H1r6vbrS9EvqYir+Atg7yMMB/YqlWrElgT8Hh2rQnA4ruIGzdv/oz2gk3eBOZsz40bN0YIGTL5BVP/XaiCVvR3NI05CJqKnNFVQm2JhtF+TFTUdLzvDCtw+PfixBRAY/EuqBVdlwpAJt+fLJ63EfD8OuZtMaV0EoHUERg5cmQR7M+/iJzi3zWRv/XBsLrTsGEvL0q9lpzL8f33k6uoDm0HZAw2zM4kL8NKRGXIQw89+ElaJJk1a1YxqDlzUbKZ0HWsPpMaQSiIMFtw62bYgz17tr6aljrTk2f9+g3foY2+RlPUJndpqtK6Sf3669JTjz3vkiVLHNHR5R5SVRA/4w3obaJmqlt8zPAVhCdqmntchQoVdtvLZ9R/+fJlYMjXUTtoiKmKUg7z/8cyWp8sJxHI6wjAYiadRCB/IODivCp6QlyUxJElQFG0wkki80CAq+4PIYYxchby0JCW7bpw4dznIpiGr27dul0McjpwQJE+X5T2lKFRsuV459DQmxsWLlxYy4rJiidM/4PQRl9hujArBNSjM0r++/fvD967d29fnLK4E/35EXU1sNdtNKHvxQseDuIvX65c2cFZRf5UN/6ddBZPI3BIkj8BIV1+RkAqAPn57RawviluVu62LpPdGA638WFfd95xP/74Y3cQmWeFv0nXOCiQvYBthYnpkZSmA0BWPVHf76Icuuwlf8QAA4Sr4UChNfMXL+6RnrqTy/vnn3+2Q31jREtmY3hsL1w44t/JlUkuHqRfEp83ceTucYy8v4O41Yy8FiqM8JiMttqD8GuUL19+VMWKFbNjcaZQAAgsWAGWJSevjJcI5BcEpAKQX96k7AchcBvJm9yEGQCtaF6BaMKECSEgzw+FPBDQkhGeb/o89NDSjMiJkwZvXb9+rReUgE/sY39v5aLWwtyt/b5o0aJ3sS4gKCPtUJlVq1aVB0n/Cq/Tqh99SNQ19xNVq1aNT2u9u3fvroDPx1jVfwT1jUAdJa36qA6ET6I/I3BSX/lKlSo+DNLPNlLGfQG0bbQl5DBaZmwp+aSTCORnBKQCkJ/fbgHrG6ZtQ+1dJtO/5bBNvZjlz+2nIyhoGGSoRAxnSCi+T2NPO+a8M+6w0M/dtes9Q6DtDEItLqNymzpgNMahfAwvXqLE2sWLF9dOb2sbNmwIUxyOaajqDrIskKNvtPJ606ZNN4uIVL527NhRf8fOnZNA/PtRxWBkDxdSGtVR6aWosfflS5cqVK5c+S2M+jO4op+qSpsLDg5uB1mgFAkhsDmEL0hbSZlLIhC4CEgFIHDfnZTcBwHs30/2RD7sqaf1AbnuJk6cWIdp7DXiGYPvjG9s2/s7CJz27mfa3Xvv3WOx46E75tEvGbWjSuGxKwO8IQhvw8LFi1+CNQDb6lJ3UKh4YqLrG9TV0CJ/KoWqpzdt3Ph/qdUA4o/dtm3HH8i/GYUeRX6xC8kkfyxQ5J/h6N061apVjYUl4dcmTZqkayoktfZTSsf0w11WOvq5Bfv/s13psNqTT4lAbiEgFYDcQl62m+UIYHvfZX+VkiUAykG6R7v+6spMnDC7Y+U66gg2iNn4BhnOeeSRR2grXZY5KAFzQWpNUOFWo1Ib+YsIEabDh/5X8o5SZA1onFrja9asGQ2JH7ZUF8qP8OGE4KB+GDGbnUlaCykXm7dtewjXA/+JEf9iLNG8Gzlg2TccpNgNZWIQ9u7H1KhR7XkQf5adHWC1kZYn5Mf8v9EF+OempYzMIxEIdASkAhDob1DK70EABHPUE/B4zB91xqrjQJxcPffixq1b2NvPG3pEEx5+Cdz5XNK4rAnhUqCDIcFBONlO/zoJO0MhSuJ0vQkux/lz8dLlE7FToESSNDOAef/nsd3wFRH0Fo/HvP9DberVo62XSdyePXsKbdyy5dmq1artwpzDZDTZ1CiGb9LHGJ+FKZvOtWrWrF2rVq2xIP5cu8Do/PnzMVASa9o68IfNL70SgXyLQK7+IOZbVGXHcgUBh0Pf79aIXHDcj+mI60A05IKDIiKq4LlHhHL4C6b/5iDQYTTINA7LIzqEYDob1OfRPtm215wWB6KhZ+bOn78Wzw/QXoTRrGgd7RsAYV0ALkLSH3c4nF2WLl0+QtfdX1pXGIP8H4HsnwgYzfyG9PzFFi1abLRDuW7d1ooOhzb4+o2bTwN3bL1EKQN/ZNPjmK586dZc4xs0aHDCXi6X/TbzP7tcuHAhwko6iUC+R8Dzp5nveyo7WCAQ+O+7o8jkXc/eWZh0aVsXke2zw4e/+qU9LSf8YydPjgi/eWsjpKDb+oRCImRiyq+PPdand07IQG3MnTu3iqKo30OAFkb7hiyGTPAjj8CJZFT4HlygMxxR17iizkF8kE/6mJbNm79M9ZLDmQB3Qu8aiqK4DhhH9VIdiBftcL4SwbEOh2Nq7dq1c/yWQiFgCl8XL178DckPkqYCOafgmuBeKWSXSRKBfIOAtADkm1cpOyIQoONbOU+iAFA8rQPA73s3eHNUAUC7/NuJE7FwjldLOvLX4xRVz9F75u++++4DOGWvTWKim64Y/j+c3+/AyF4QNVkmyGM+cGkiqwEcf8fHjRTVshTAT/l+bdGs2atbt24Nv3kz4W+4BGgg4G1gLAPAhANl0fXrUCKw0l8d27hxXb93Goi6cvkrLi4uHO/oHmJ+Uljg5Py/gYP8LgAImP/mC0BPZRcLBALvvDMqFoS02Lez5kj0+q2b10tiLQCZxXPEff3tty8rOn9fEAyRDP7i8E3aSLe+ff82J0eE8NMIzgJoBrP/98ClmsCG8gj5SEaDDOnpiRPJ9HNBo3l9CAb5/ZDcF+lFRDbqlZEfJ/XpnyHjt1jF73dRJtLyjMP8fy8I/iv1mMTHwsmyJUqUOJ5nBJSCSASyEQHPXGk2tiGrlgjkGAJVq1ZcjnFscvPL4SEREbE5Jcw333zTDpwykkbEhrN8+oe5Sf4kS8eOHf/U3K5GsAB8bphHTBHpQdYSeohv8njDsGLQvD7m/fXBiMXBS/jGdYYgT5xCqN/VpHGjmiD+jwKB/Kl7WDDSy+io6ON2Sf7WS5fPgoCAVAAKwlsuQH2kw3AwlhufbJfdet9k07Iw4bvvvosGuf4ChjGn2QwShUKwPiQkmObWc93REcKdO8YOBHm/Z0gHkWxkLwT0CcO0T9Mr1p4/N/KPxEl9lXAI0P34LIAVwFNVrncwFQGOHTsWCmlxHLNHZCgx0kkECg4CUgEoOO+6wPTU4VBIAbjm22GxDoCxB0aPHh3pm5aVYaz4D3e53NPAK6UNajEJRmeXQDYPZ9fVvOnpw4IFC4osWLBo0MKFi3ZgKsA4gdAjplmTD/n7UQ5wgJBC5wfk2IE96eljanlDQ0O7IE+ELd80m196JQL5HgGpAOT7V1zwOvjqq6+ewaK7T+09N8mfooKw483Yz27PkEV+OvgmPsH1E7jT3PduVgxy1bjev2/fvoezqKkMVYOdAI3mzVvwBdYmYppEx70BzDggSZC/7bAgnZ2jBkS08Hh8RrumcoAcnV1ubcu6desepQWPRmJgfKMLWO1v9AvfR4oVK5amo4wDo3dSSolA6ghIBSB1jGSOAEQgIcE5CmLH+RMdRDVwzJgx0f7SMht38fLVjzBS7u6lS/jof51//NQTT9B2sxx3s2bNKvbHH388/8cf89Zjf99GrHfrD4lw/r7dCfI/iumTkQpn9YDRWHuq5TfKeEua4VKYFZi0fv2GxevWbapv5c3LT7p6GBjQrhBDBdC5HP3n5RcmZcsWBOQ2wGyBVVaa2wiMGDH00rvvjnoFBPVDUlmIsnhYYqI2Bh4ca5t17osvvoJlQX/Bs7VOUAunhWYr3Ik3s83q4K8HZIkICyvUCRcMPYn+3odeh9Aqd+Fo9G4FODvLdO1Xrig/xsa2X23N4S9duuwLgRQVMPMjnHQnI5JElWZGPNpzxb0ZZwJMw8mCbzVu3DjPbv/DXv/OEL+IEB1fXNGlAkDvWroChYD1k1CgOi07W3AQwMFAP6K3fajHYpua+RR+hd0/7JVXsmTh12dffPEI7iKYRFRCdRO/iifjJzTN1bh///6nSYbsdjNmzKiNLXp/AzM/jvZjIInB9UImEaLwNYj5O1P5j0GKssA68c+SbcWKFcVg1j+L8ir9QFA/qBBnygBFEdrAGwjHGP2zpYs8njDpQYu5rnx66ND+mbQ406o/LzxPnz49CUoKLiQifPjpEiWKR+OZp2TMCzhJGfI3AlIByN/vt8D3Dnv+I4KCw9Zj8FqDwBCkRURFpMbYeYfKG7788suZOop33Pjx94H8J6NWJyo22xDUEg/Tf/v+/ftl69Gy06ZNq8C54xE03Qefeh4ZkpJ/AnqMQ274Ty5Xwozu3bvfIAD8ucWLl/XGWQq/EEICJ6NPR8NCQ6rSDX04TCgkKCj0BWA6HLf3lfS258VXxJnlUQdu1uNTsGDw14YN6+IcAQ6jSO65M2fO0MI/TA/xcOof+vAltv89m3sSyZYlArmDgFQAcgd32WoOIvDOO+/V4Yq2Dk2G0Q8+fciJH3/Ot2KE3mbYsGFXRWQ6v8aN++IemI9/R61BHiJE9Qjj2Hvl2Wef7pctJw9OmTIlSlEcD2pM7wOTQ0vRK+oX/U99pP84i8djIWfqFFVl03ES4IW0dG/xkmVzUU0XARPVJerTn2/bti0d8ONxa9euLYy1AkMYVweit2VEPiokyhgYUFzSsELX7E7B1MRvOIRnla/1wVN5Nnow+oeFhP9gYsRUVe1avHhxeQFQNmIuq86bCOCvUzqJQP5H4N13R/fBMrcfQEhi4atFVoKgdLboxo2IHiNGDEh2VOwPoU8//byjorJZIJIQg+QE6Zrkyz/u3//pF/2Vy2gc5vXLcVV9ANYGOre+FRoypxsElRHjQgx+E19zFaZMCQlxzurcuXO6TuObv2xZVYem4zQ/qsokb0xjXL9+tTJuF4z3J/uGDRucWFPxAKYHBmFqobUoRihY5aka/+FryLMKvViGI/iWxcfHrycLg782sjIOCsAcSHSPIR6/XLJkyVKQI8/dUZCVfZZ1SQT8IYA/TekkAgUDASgBz4KHPkdv8XtvEBSRgElPy9zuhJ7Dhw9PE2F+PG5cG5Upf6B8uCgv6hMVE9XNKVq0cI+smPcG6VfHNMJ9OHrnQeguTUhwIlPxv2hTUCvm9Plshesg/ZA5dMBPRt/oosWLx6BGXOpDbcAnWuMD2rVr80Va6sQCwIbIB3M6fwiFS4hqCBFPfSS6/zDyXEfSGiw13KCqfBNG5puqVKlyCPG0Vi9LHM7+px0LJ1Cng0SC/f/bUiVL9suSymUlEoEAQ4D+BKSTCBQYBN55d/RQbHMbQ4REH3KWH6G94JoeWBOwLyVAMPLvzLg2DeVs5E/1idq2J8SHth4y5LEM3W8/YcKEkODg4PYgpq6okT6VqWKqW8gJhhT/c34Jyw1ncl2dcvlyoXn9+olrf1MSO9U0zO1HaJr+F9opZrSJdhnbpeta/fSa6skqoOtKJ0z3Y22CAgWGFxZ9QI0W3kZXUg1fxhz9ZnR6C7Yg7IT5ZiduFdxdsWJFHKqUfnfq1KlBkOcTC09dV7uULl1ifvprkiUkAoGPgPjJCvxuyB5IBNKOwLuj3vsn/uG/TSUsMqKnGb7GFDb0laFDvxIRPl+ffDIOZMZ+RvZgQY/wGHUQL/PTLofSfNAzzxz1KZZicNKkSeXduJFOYeq9qKQDqjTWKgiGpPpNORk/rmOkj7X5vzOXa3FWnyiIkwFHgGzfpAZFn4TUavfY2DazUuxAKom0aLBw4eKdoQzA7M7vxqei6Bq+DOyogwK/9IRPoPRulN8FcXdBhD0uV8iuqlWjzqYkzqlTcdjqyFpSu2jxdKlSd8jV/ykBJtPyNQL0VyCdRKDAIUDTARhBjwURwBRs/BnQ0/pgD9tC5uAvvjJkCJGLcB9+8sljmFufgGwO5CRWNvML8rqBhW0dBgwYQIsNU3QjlixxVDp27E5NwyhfYV1RTR1vfVQthUT9uNeA/QmFZJbK+RwQ/pYUK85EIkg60u3W9qPxCKt99Gdx+/btO2aiWr9FcY1wdWwDgMLD70Jbd6LNJNYBo+sGBiRLamHKgjoEZsh/Hl4oBUI52I2tfvT+9pYpU+Yo5v4r47a//UhDZhTC4UyRkaWydJ2G3w7LSIlAHkWA/nSkkwgUSARGjny/C8h1MszKhQWBCF4Q1GsQCueJUBK+193qu6qqdUIeUhgwgwBn5UUAJVyIvn/gwGeTHSl/9dVXVbCALxbr9jASZjiEhhe1eIieohZRJzuNB63cx5Y999xHH31UHMmb3S9o/vyFn6NnAwyZBJkmQEFp2KlTW48ClB0y0IFFtWvXrqtprA0UjtbAAQoBixYSEC70P+FC/xn4UERGwrTg8CKKlrXKQwNoERkZmarClh39lnVKBPICAvTLI51EoMAiMHLkmLrYIjgb5FDWQzAesiHSIWg4rrsFPQonwiYZGem4W6D/oOcHJJky+PLLL2OwwqwDMnZAiVgULUd14SnIiyo2wzfgWwFFZAG2DS7o26fPduTJskVvJG1qbuHChbVwvM9WCCSsIcaPAn+nY8fYf6VWNjvS9+7dG+1y6VjwyJrCQtIU+NDix+KEl8DN834yFT5YunSpqjmNdXbgJeuUCGQUAeNvPaOlZTmJQD5A4L333isFEv8OZHA3dQdP8yNCKYaRc8QLLwx867PPPqOtZLE6V2Ixyqd5fJAL6sJ/qID+N+phtNKdr0Nwha7y5dcuXVo1ZMgQv9vrcgJaGoEXKVJsBdQbMS9O8kLWg6GhIXVbtWp1MydkSEsbu3fvrgBzfgMoVQ2wTqEhsG4AUcsZ8hr4kuBpDWP0/5+oqKg30tK2zCMRyK8I4HdIOomARIBushv9vw9ewnTAf0EuQaQEkKOn8RGhJGGk7EPEXKQT4demnMb/4iHICOFzMB2s1rm+nGnKKk1L2Ih1Atm+110In4av+fPnv4T1Dv8TfTTIH9YH5a5OnWIXpqF4rmY5duxY8YSEBCgDagNYUBrAbtII/aglXh29CtEf810YkXgdRhjvuxbWBezO1Q7IxiUCuYyAVABy+QXI5vMWAu+//35jpqg/4R4fMg+bhEFUAucJw0sxt4evoMx2xG8EGW3EwTgbcQcALUjLUZN+WhGF6b8SzvzfBvnCqT/oDj7K2E6dOgxKax15IR9u9iuMrYGPQPq/oy81qR/i3Yg+Gf3yhimJb8Lov3FekF3KIBHITQTE71puCiDblgjkNQRGjRpVyOFwvo1T7V4AWYgLcQSBWIRPAlt+eiKI7XmfvDBwwIvInyfJ3hdjrPp33IqPXwLCx8l9Rh/QkQO6pjXIzEFCvu1kZxjEXxvTAjh9kD+OHohz/dGVFMjfVAYYewmj/w+yUzZZt0QgEBCQCkAgvCUpY64gMGbMmGZQAsaDURoIkhSkT6IQkVgfbxh5FyjM3W/gwIEnckXgdDQ6Z+7ckejBMIP8BTG6dVVp26Vjx9XpqCbHs8J0r+7bd7AHdgzgQB9GiyzpbZjvA+J4wuwqlIO50MYe8klPwJRMDCwAKZ4XkOMdkw1KBHIBAUx5SicRkAj4Q+Cll17688rlS01BKv9A+g2M8xldhut1ScOcaZ2xmHDbZ5990dubJ+/5Zs+e2xNdoT5Rl8QX+vV2Xib/PXv2VN+9d++7+/btPwojy1QI3cEUnToAh3eBfZMwxcyD/zGn0xmJPf+/Gv3zpDNdY7Mk+QvA5JdEAKqzdBIBiUCqCLz/6aflVbf2DkaTuHKXtgQKO4Ax4qRR521hfaZDVQc/k85TAVMVJJMZ5s6dW8WtsfWQt6gxMgZdcr746uVLd2XF3QWZFC9J8YMHDxbBIr+HAfIT+KVq5R3JC7BtI3++A8cETwxyOCaVK1fupFXJkSN//YQdA3RNsrAQ0BvDAsduMTFRs6088ikRKMgI0F+EdBIBiUAaEfjoo48a61wdDdOZYX72S/5ENYJ1rnNFeYtprg/zwsr/6dOn09qGlWDDehb5wx/ndKgNOnXqdDqNEGRrNtqWWLNmzY5MUfripMAHoGyFGlAKiQ0iNwj9DLSwnzAlMLFq1aqbfIU6fPhwCKYAzkBXK0QKAArSOzkZHV2mPOp0+eaXYYlAQURAKgAF8a3LPmcagY8/Hodz+/VRIJPagmCIXixlwGAce3gn05Xhzz77VLInBWZaoFQqoMt5TsWdmQnRugg5BasyF441vOvuu+9ekkrxbE2mBYklSpRoj9H5Q5DvAYhWUtA14YiPeBj4xmNEjz7wiZcvX56b0tXBf/31Vw9Ma0ynsqIOlEfZUdHR0cOztTOycolAACEgFYAAellS1LyFwIgRI5QSJe54CCb01zEarWcpAGL8L4jLIC9PmLFluOZ22FNPPZXjx8/OnDnraxDhUzbyZwpXXrrnni65shqeSL9o0aKxYOWHsG/ifshVkmQz9BJLmRJhmtdfjkV/vyQmJk6uV6/exbT8Kzh8+Oh3KNPXIn/UjYMWeU0oAHvTUl7mkQgUBASkAlAQ3rLsY7YiQIcIjR07vgc45l8gHDq2Fg/vyFWQkDeM3Ox3pirv9H/yyY3ZKphZ+YwZM97ADoW3hExiJI0Erky8t+vdT+RE+1YbK1euLBQcHHYXiPhewNEdonhG+iSbl/wVOnqZjkf+VXe7p9StWzdd0xM7d+4MCg8PjwPuxfAWxLvASodVWB/Q2pJFPiUCEgHxJydhkAhIBLIKgbFjP78b8/7YXqe3J/LxIX+fMMOKdfXdp57quyyr2vet5/ffZ76A8/Q/AaGSCkLi0F/9n+FhYe1iY2Nv+ebP6vDq1RurOJ1aN+yOuJczvS2kME5ZFNIQHCZBc+7GdMQKXVd+dTj4VFwQFJdRWY4cOXIvdgTMMvpr9pmxp6EAfJPROmU5iUB+RIB+DqSTCEgEshiBzz//vL7GlMGYGvgbOC6EyChZZYAxTAnwsVevXpqclfcC/P77jAFo9jPifosMMao+xjStZffu3bPlrAJc9Rt+/fr1Nrj5sDNM+xjp8+pGv0nvIDK2cBBhDYv0VsD3a1CQOiUzpG9/fVAAJkIBoMOBjPaYfjU0NLRMqVKlrtnzSb9EoKAjIBWAgv4vQPY/WxEYP358ScxzP4v96M+D7KIN/qM/O4OcfMJnkfINrAfj+/btezgzgk2dOv0pjPy/BOFCBxFUSE1eYrqjdY8ed+/MTN32srS48NatWy0wr9ERpn3aGdEC7TlFD5OSvUX+Go30Ucevbpj3mzVrluGRvl0Oy4/7AUITXa449Liw6DcEwRqNzyqUK/e8lUc+JQISAQMB+juVTiIgEchmBKAIOHHbbjeMwJ8GOd0NclIt8id6BjvS/4Ik4QNnYQ6c8e9drvjf+vXrdyk94k2d+ns/VPkV6rCTfzxM8F169OixLD11+eadjPn1UmfPNsYWO8ynC8JvA7HDiWyNPojeiH7YwleRPh9Z5oD0Z7do0SJdc/q+MqQUxtkB2DqoTCF5SCT6UhWlXtmyZbenVE6mSQQKIgL0JyKdREAikIMIfPbdd9EOt/4kCLkf9rpXNoiSuIrI0yJST/gWCG0259oUXHgzB4f1XE5JVJD/UJyJR7f7kTPrwz2EnPUB+U9Oqay/tAULFhQB2bfCFr07obK0gVm/KerF3nwiWCGtePoJ78cug9mwDMwuXDhsOcz7Cf7qz+q4gwcPTYZctJ3QUEgYX1mhQvk2Wd2OrE8ikB8QkApAfniLsg8BiQDtHvjmm4ntYap/AqR1H/4YixhE6iF/g8SETiDIPAF795bAqD1Ndzrn/u3BB49aHae6pk6d9jYKvG7oEAb5E0nrCht6f48eH1p5k3vStsZmzVrXcDi0ZlA6mqIuXBTE6kAmjyXBQ6zw0I8H1W+SfyKUjOVYxDdbdyqz2zRvvi+5drIrHscFF3I6g+IgU5gXA/ZYhQoVJmVXm7JeiUAgI0B/w9JJBCQCuYzAhAkT6OS6e7AroA9mALqBXr2jbOJYg9GIawXpCnrnfC/mChZAgZiv6LS1jtOiP3s69WrM/ff3fNlf92bOnFlOUZwY0bNm2LnQDKpCYxTGyXmonT5UyPL7DfPTiJ4D68AcLOKbD9P+FX/t5FQczP8DIfA4yGTIzfgZlyuxHE4KjM8pGWQ7EoFAQkD8jQeSwFJWiUB+R+Drr7/Gkb3BPTHu7g0y6wwytu0i8BK8h+wFORPzm2lmGI9ftm7d8uibb76pz5o1qwqsBA1B6A2x/KAhFiU2hOJQykv2vuWBMtVjfUSQ30TEKsQuwkLFRe3atduIdC2vvI8DBw5uh7hksQAUJLsysmLF8q/lFfmkHBKBvIaAVADy2huR8kgEbAjgbPyI+HgXHd97HwibRvnicBtBchbhG8xPUfgY5IeoG/B9DyWiFp4NELaN7Ikc0QjlNfMnE3YjxwbkEYQPC8XqnDg7wNb9NHv37dvXVlHUZQIKfEFmDbsSqlSoUCFTuynSLIDMKBEIQASkAhCAL02KXDARoONz4+Li2ulc6QlzPZQBpRKoziRyO/kTAXrDyZC7P/JPQEkQvr4cBLrC5XKt7Nq1a66a9dP6pvfvP/ALoOhNeAilhrPZlSpV6pbW8jKfRKAgIiAVgIL41mWf8wUCkyb9VhWn7HXRjW2F7UF95nY8O/mTJpBSmJ1F6te6yuffuFJ4be/erW4GGji7du2KcjidR0H8TksBwELJ7pUrV861y5cCDUMpb8FEQCoABfO9y17nMwTmzJkTjBP4sGpfxXSBuKq4AchQ9ZA/Ium/ZMIuTBXswBY/jP7ZRpj6N1y6dGkbthzmyNa9zL4KmP//jWH//1nkjz4cxOi/GhSCPLM+IbN9lOUlAtmBgFQAsgNVWadEIJcRoLUDqhqEU/lYJ8yF49AepRl2F+AwItAkfZJXBqx0F7LtQ7aNiNjIdX0jbuNbjymBPLWi/vDhw0UTEhMPoz9Fjb4J4F+sUqXKx7n8CmTzEoE8j4BUAPL8K5ICSgQyjwB2ARTDKXxtsG2wlcKUliB2urUwzFIGQPY0T2CRP3n9hW8hx26k7MW1xrvw3IPye2B52JdbigH2/r+NtRD/NMgfQnN22e1yla1Ro8ZVyCdc8eLFC4cGBXWxwtbTzdhOFVoSc7liTpw+7ZkugPIQfPPatR5IX4o1F5gikU4ikD8RkApA/nyvslcSgRQRoAWFN27caIDzg1qC7FuA8ekMf7GoMBnyT0Y5ID2Bu0G8h3HF8G6F6VAQ1L2wvu9KDAk5ENukybkUBclEIsi/DFpHWzyCFADIgP+VD6pWrfySvdrSpUuXwrnLIg7Z+omDlHR+iav6Al1TemBB5QtunVUB2R+hcmXKlO6Bw5h/xymN7Y+dOrXcXpf0SwTyEwJSAchPb1P2RSKQCQSwjoAu0KmHdQSNcWdBYxBgY1RXAwzv/yRAsKn4AaGn9UEBg4wpjgiZY8qAn8AWxlOIP4mbefBUTjKVHVIZO4WzCU42adLkCNLSPV+/e8+eH1A/blsUDVG7bqbr1eAOJQdDdFTpzarGHvzr9GmRp0xU1EdQAOrpOpt9Mi7ufSoXExX1I45Troz+vyoVgOSQlPH5AQFHfuiE7INEQCKQeQTMLX8rURN9hKO7ADBipgOE6jBdq6szpQ7otjYSi4Bsie3NnHiYYcQaioHhCUagEqIq4fAhIztWG+J/BElJUNjGTZtvbdy06ThCZ0Hi55HrgqKwC7BOXED6eUXR6TKhG1iceBnP65qm3YS/LCp41N4Q2p+REvl7BU3qg9i/od5HEft+mTJlwnRdK4p6j5K80kkE8jMCUgHIz29X9k0ikEkEOnfuTJcPLTU/ntqgGJRzOp1QBKAYcFaVRt5g8+rgzEihEvhXBgSnGumoCh7iWIzAQ2AZqAJPFRGGdgDy9ygLgofxpWlQGagwvuy6hygjvliq9x14OmD3KPo5tH+9bKlSld3M3RT+mZAl1p5F+iUC+REBqQDkx7eag32KiYkJVVyuSlhcFoPfYK5r2iXudO47fvz4hRwUQzaVwwhAMfgLTdLnD3vTa9euLYzdAlV1plZDfFUM8CuAriuA0MuDVMuCv50WexucjVweD9WEAMgfeU2XNAzVAP/IvOlWGLk2Va9eLcPz9ZiBmOxWlAdQc1OXrg9yMB5rSSCfEoH8ioAjJipyg2/noF2fPBEX18M3Pj3h6MjIn6GoV0lahn9w/NSp227mKhNVeirm28qJvJwtOX4y7tWk5WQoryGAyWFnXFTkSN3teg7nxYYZv+KQUsHPvdvFoqKiKpw6deqoXW5cCRu0c+fOgNhbbpdb+tOOgHkh0EaUoE8Sh62JaoUKFcpg3r8CEqAQ8NKYVogRT8aj8btTGgSMMAungha5W8pASmGcXvgRlcmwU5xTFd01H8rJsdOnT5+JLhOZ4apkQYlAoCDggOZMC32SOs4aly1dug7+EnYkTUhbqFzp0pVACr1RN/6ek7jSSUJmAMa+2shLIwb8/ek0qpAubyPA48pETsUvdHJHrV4F+XveI1kJmOYaduni+VLo1vN5u2tSuuxCAAcLYWcdO2Z+ViTXzurVq0PDw8NLuFW1hOp2l8D8fEmN6SUUrhSFdaAIFIVCmBAIQxiKAi9Kvxoul/vn5Oqzx2OXwG7NqXrPMtD187AoXDt+8viF6KjIXTAu4HZD8cN1Br9Ft+xlpV8ikN8QSHYKQFN5b3Q2QwqAW2EPo6wv+ec37Apsf2DdedAf+eOFX4EiF4E0+ncDL2PRpUt3g0WARme0CGwCxUknEUgJgVatxHHEx5GHPlnqYIGkxX4eh5X//7YCJ07F9bX8sEIOsvzyKRHIrwgkqwDgx/ohdPqNDHVc549I+s8QcgFRCPP998PQb5NV/9AZHPrWkSNHLiFSrVSsWIQnUWGfwx/tCafRExMZ2UxDOxjpVccITUWbRxh3zzp58sxCVGFvPI01ymwSAYmAREAiYEfAVwGg07NgXhOuRkzp0nWPnz693Qyn6REZGVkL5F/PzEw/1KlaAnSu9UM2zCNjClnRz5hl5SOPIgDyr2oT7a8Tp06/gjCZd8m5D128SCvHM+QwR1w0Mf7W1zD5YmZI/1bXlc+5qmBGyVVd19RHykRF/gvLwPr6ri/IUGOykERAIiARKMAIJFUAdLYUC/fagbULEya4IYysAOlSABww/2OOznA6Wwv6b2mGkn1gVLc62USZkBcRsJREGorj5DcP+WdKVjqyFeQ/D8w/minaSa6pdVFhaUzwnnJq2oYjZ0/3x5QCnW8/A4sMe0glIFNwy8ISAYlAAUdASdJ/hd3CD/p0T5wxDeAJpsUD8n/EyscVPU0Lc6z88hkgCHBs5TIdtmxftPyZfYYGB30K8v8E87RTmKb00rk+QmPaPdhZ8H+JDvUw1h48gTPb1+qKNlBl+vdoL1XrUmZlkuUlAhIBiUB+RSCpBYB6qemT8YP7uNnhGjExpeodP35mW1oAwClajbCtR6zmx2/zfvx4b8APelqKZjSPimmKWpg3wCEkWrDG2HXFzQ5h2oIuKrFM0umqG+eGV3QqSkONa1eCErUdR86ejUutAkx73KHqel1dZXdwjbtxbuoZTVF2njhx4nxqZZNLN3ZS8Jq6osMao97EimSciKbsykydaMuBufVGmqLTHqdwReOX3Jhbx0h6D8KW3SY5kfzGY4V2hsr5VkaHsKCiCiD/H2xpG0+eOv0AhWPKRI5G+n/g/Y4sRlAGDpSNiroLR7XOs+WXXomAREAiIBFIIwK3KQBFS5acf+nCeRrVFaM6dLeYBkiTAqAw7REPG/C0j/7xY74QekJFU+b5WI070PT7fcD8W17l+quwNjyM9koK7qIpY5IXNg1s54H8mD/m6n9Pnjx5zl8l0VFRq5CHiBDHnvN+IJKVIMePUM1A7DdG9Zxh1Kmhrqmqpg+zzg636sLeSWdcZOTf0OhgxNFRqQYVQgjMX+PL7cZe4vWo66OTJ0//gjweaKw6fJ9YPFckPjT4ZeR8EtpLWUoXh56gRqFGaW4N5zZsxoFo3xQrUeKrtO6pJyUO7xFnK/CeEKKQUScEQqW4vIVBzlPYSfVLolsfeebMmdO+clEYOJCSYI38hWwUj/51R9pB8pODOrAUitgmmOnF5SuI8m795KwX8rYTGSmv6r77+PGz+ynsdij3QJZfrbTbn/oFlEi04qFk/eLW9XsRlgqABYp8SgQkAhKBdCCQdAoABYlU8CM+zVuHUAC8weR9uDKc0dZB4TSd/2T5U33ihDDkqUQfEIqXMPwULFMmchCIYjfaegHJIH+/DsoLH4pj6XZBWWjjNwfTyyHebJOFlYmM/BCESFt/VFt+wqeXS1Ut4hNJsHRUxyE4tL5hAiIa4SP4WSR6v2ClZi1Atj9B2VhZvmTJKG/S7b5ykZG140OCt6PM/yGV8PDnFBB4Y5DrWChp20kR8pfJFufA5Sdv625lE0R8DPGeuXtbHmJxyMb/7lSVA7gJrU+SNG+gIrwCL+S340Er/o14en8cR8FyTsqjFWdXMql9K76S4sJVrKZT6GAYXRHKgBWHZ028l5How+dY+DcE7Q6x0hI0bR9Ar2CF5VMiIBGQCEgE0ocAfndvd/gBn2yLrU4jSFvYr7dMmVItkWASEt8KszItDstSByJ4HcrJJ6g01FMxx41iTJ8EFqNzwH/Dxz6CvQPKwh+0m8GT348HpNoWpErkf7vjbC2sCHuthOjo6GpQLFYiTMRvORc8SyHDeMjyJZ6rEMZA2HJ6K5fTsS45wqaRP5a50wEkNuLnRIZToOigv1SvGOnetGrEsxpe3gI6Xc8WZ/dy4DUBxP5PRNqVmiOo7wfg+CniCS+MrD0uAgrLJCgsf/fEeD2H4T0kPjCOeKPZNU880lFvHKYryIJk5GWMsLHcVXis+EOaw+05FRAKowvHCNuVBVEGfQyHbacP0Pw7TqecbVXkdGoOrBGw120lyadEQCIgEZAIpAGB235wqQzM4Ytgqj0Hrxhhw3xMI/uUpwE0xbP3H7bwtI/+qcE0OJjn24MEaQ7YcrcwInwJ0wVfIMJtRWIOP9yh8reQ9rIZF64r/Fv4m+CDKvw4rr+CFBrF4/Yx9glM+JsVXYElQnsQ29A81hBapc4191xUInARNXE2CzekvQAl4S97zaQoYBqAZGtnxpclE3eVKlXaHDhwIN6e91Zw8ItovJwZp4HwnsNcOBSJpI7uNXcoJI/eykjRq16+cOFJ+KmdJA4jZ7Ik0KjfcmfRx+dBokT6HkcKxOWL54cKbI2RPUTR34+OLr39xInTi6yMwLmG5ceUwQH4K1MYss70PVzFzDeWnlBCjiNXtIjDrWto/ykzPemD6/swH0GK2ixbwu7jcXGDoZDswL+pL3Gi4CrcMXBCpLsdpJR6FDNbGemVCEgEJAISgTQggAGWX4eRlT7Fm5LqNIAKJqAtg+R0l8ZozjtLHVjxPVRoyUskeT/I5DPEecifGsQ53tdPnIx7BWKMp7DpGtGCMStw2xPEBwKMU9xaM5wANgJz9tNBal8cP3W6y4lTpz638ocGBb2IfBWtMGT4CW3d50v+lI7FevuKFi9Bbf5h5cez6a3rV5+zhYUXFpcHrDjoIT/7I39KpzPKMe99H7w0whYOysr9lt960nQDFJnhVhjPizpX2vqSP6XTlA/6PApKDCl5GsXBqViFT9jaLQciIbu+XC6NLCAkw21KKd7Bl5haOIvjhF+z2sfovx8WXk61wvIpEZAISAQkAulDwCLU20tpzD4NUC06ulT92zMZMdib3Q7DRrGgDqO9NXFxcUeSy5uR+LKRkU1RP43gTad/CZKca4X8PhXH24i3CA0e7TaiTFJOZ28fO3PmYJI4W6BChQohWOH2ki3q2K3ExAEIJ1FAbOmCXN06ewJxHjM7CJ4sEz4kp5e1ynGmkYk8WQdsz0LZgoVF34JMUzCqX+Ob2R3kGIqceN4LAABAAElEQVQ47zQJ4y9CSdnjm88eRvrvUBqI9E2nV8XizJQxs7JmwdNYfKjMwWr/f/mpTsMCk08wHfI0KTfmOoUbx+Li1vvJK6MkAhIBiYBEIA0IJKsAYL/1MhoVe+rQkrcCYOX9I1Y+XKv5s+XPqid+/Xva6+IaE+Zle5yvHyNwmJ7ZhzTXTQsGUWaCbx57OMjttlk87CmGP/HmTZjd6eIRy+mfnTt3jua0U3RE2CDWb2yZykJhsikzIuWsN50/UbZsyTLe8O0+WB1ewOl7DWGW72U/y9zKif7eY/nxPI4R9I+2cLJeWG7eR6JHaaIjf5PNnA0JkPNNXWMNoQS8dTM+4a2ERHcfqxlYYz7lqiPa5XDch62Wg2/eSnjGSpNPiYBEQCIgEUg/AskqAKgK+9kxwvQ4/wpAY2wNgyn8QTOb25Go/eopklUenbewqiKlJK3HE4MgX6Y5ZJDkOJRZZ9Xh53ko1f3+Km9vL6dobKY9nJLfrfMZ9nRsMmxrD2NEv9gWLqu5HNtp9bu5g8HHWmDL6cdL6wQQXdubpJNpPVkrhTcfgDUsN1utOFgj2ln+HHq6ME0hpkNCg4OXO1X1JYz2e+LTHXgM1TXXbGBVD/e1d75w4cKVHJJJNiMRkAhIBPIlAikpAAzEZZ/LxzRAdANfFLAXnua5ixvxfEmqROpbQVrCnHlGxFA2tqelSLry6Oxwavmxsr2SLc9NXJW82xZO0etyuTbbM8CcLRbQWXGKS/sfpjjshFYcVoNhWDS4HIsx6W7yX2COf7LCHXdEWmWSe2J/Hq1RQHWWU5K0bcUm94TFxJafR1egqY+cdW6sSXgThzt1xF7/gzijoSHeeVOm6Be54ugFpW4grfPIWZFkaxIBiYBEIP8hkOLoElv5VmEVN1Zdm6u4NY0W+tHcs9dxcfWvCONSnyxf/W82RKNaw+FEPMubZU/uXVSXfJ28hDeNDqVJ26iaypw9e/YaiJxIK5zCwNNWF3ZdYO0BtlH24rpC0yemMiUy0lcxzPP3BqX3xsFEOi7D2UiLDxVH4s/Hjp076clleXjSuqEJpOtyJdzAd8Z+05/bfY3kub0dq71seponHk7KpupltRIBiYBEoMAjkKIFAOjQfLDdpE8KgMdhW1YoCMaan493OIKneRKzzkMy2knxZtZV7akp1ToxMi7iyc14RkagN7zlWZjNL7w43naB0+WG6V7/ABHJkTYMA7QYUv8fpgkOYXvcO8ibRInDMb+F7XUjf7pkhXXCLicOCDRuabTXKf0SAYmAREAiEPgIpKYAkApgmwbAynD7NIDb/f/tnQmcHEXZ/7t6ZncTkpCDJHvmAEIgBBRBTuW+kUNuBBFUQLwV8K+ivvgiKq8g+CovKjeIXIJynwrhEhAQBcIN5tjsEZJsIOfuznT9vzW7s5mdnemunuk5Nnnq89md7qqnnqr6dXfVU0899dQhrMmnBhxmpQ8uWLCgqwSQGCFkbQbfkRnX5btUamVGYUMG8Iy0fJdjMhIGDbLpeLN8gnHfWQ3tHS1s2zuQ+EvAd246Peu3DkHgXDQLV2fGq2TKMc9AFPn7tQ4DUb4XCAyjMwnYf5+zrpk0ci0ICAKCgCAw/BAIFADYDWCM5+YNNK1vGSB1y17s49PxHJ4TufV/mjfq7+XpawakTG1AOrr0vyrl3S5djlHhW++RN57+oM9YS9fGyVLe8KLj9LItz5yJcHZbe8c2CANTaffpZDBGmZnCkOHxOXwcDBgV6lhskBCGADDJENkG48o3g9aLxUYPbGHMiJdLQUAQEAQEgWGOQKAAQPvYDZa5DKCPNm3GH/5GrE0f0t/+VcmkvVV8fx77H+28myZGJb1N+jrot6Wx8SBmyL/Fgvw7GNEdgxc+Zs0Fh0yvcyPx3b+VLaeeurqPZdIC6HuZ90HXCAMLW9s6rzLb/hAGpiAQ3ZuZh22SJ6Tvk8nk21wz7qeDN6jsdGzeX8XBRutC27x587IFjnWpciUICAKCgCAwbBGwEQCydwNsaQ6uUZ5nBv+Uehn1/92ltMxm/f3vAwizIyDlZncgwvfiGFLPRID5BT4Er8IFb6YPe9+M2YmuVk9nxnmuc2jmvd81s+rDMtNjWj2bvjdYIqCcg7ByFSf9PWHsKtJpuX4RBpbUrek2Ln7x1tgftDM9fWm8BXL9Vvoeg0PznKy0FeYoZEQH7BAGgtH+SBAEBAFBQBBYDxGwEgDYDfAiA8M76fazqfwoBtRj0/eo/29OX5fiF1e59w3iq5NnDLrPcWMGUg7mOSKdhHHbY1wbe4KCQlKpJ8k4oA7H2c6XzbkDQcwQVsxywSkZdEs2njBhQABIuHpbBJSLqOsXmbbvrnt7982gzXn5XlfXByQMqPoRwAaWSEwG+N2dkXEK++iPy7jPexlT6tskrnsn9GBNQ96MvgmqeyDZHWxfMBAvF4KAICAICAJlR2BdZx9UdMYJgQwwJyAQfKo/S9f48RMfCspeTDqHEz1B/pcyeHyDw4F2yrgfcqmTyR8ROTGdwNLBVenrQn6ZeWMMp36XkXcahw5dxj12c3lDHOc15lCfjG1/+vfG//66HLG/cj2gZufgovN8TvhLZWNA34+LgbV9lgAGbc30HPc31GpA28EJf7+eMnny5uvKHHqFHcGBPNevZqR0ate9LeO+0MsBI0KEpvpCmUg+QUAQEAQEgWgRsBYAVCx5a7poZqpbc52a/eLb/o7BA1qaKtpflgHM7BTlA8Ec3uM6D5t1/dR9xj8zeKJS/y+IvpcRPQcPc/dn3Bd0WVNXdxED64A9AvU4FRuD23I56MFGYip79u9hdn5kRmHv9SS8CzPuHaPSB8Mb03FIEx9fvmzpncbnfTou85ejjXdmQL8pI26VUrGrM+4Nz4W41DVbBNNhohd3n0RoMssB2SEGXl/lUKG7SBh4HzDw/Faf0JNNHu6e9mRoKpzdeGanGGxSSx/GjkSCICAICAKCQEUQGLSH3K8Gra2LX2awewOaQcZvyi2h9X9GhXDp+zg+4n/ALLJvADX78jFO7KuTfpwZ/nLlOvXLly49gJnsgOdABuk2pIbPwwq5pbiAQdxyBq9jlZN8lIn/uH5ux+Cg51C89f2VElh7Z+h01CylvX1Ir80ocYnr6SOMU6CMuNSlct3vOWyppD3peh+cqInPQ4B4jLa8yiDq0e4GfremETtk5Me8QH27ddGipRlxqUvcH/8Eu4KPDSyDaKcR4vuwM3gNHk/A7wPwamCjv9EmNA/Or37W1tZxy+C4wu48R72EY6Hd+3PHaeN1YOMkaYzbZ0fyQGGcJZcgIAgIAoJAMQhYCwCmEAajWxk4zhsoUDntnBk/Z+C+xBfm2FpmkB8yiPyKotKDKwKJ2oq69Q3x5nddeB3Pdkd3tLfPWxdV3BWz4pcQAnZlELsTTlv2cxvB4N9vFMiQPLSI59GgnLiw/f0BO4pMEuP1Dp77wPNB4qf3p9XC50D4HpiWXNK//elr2Br4XTAxSwy5gseJiUfjLOiXAPMNCFLVgofR3mw9gNfg2q6C7JzMI5BzMQ4TR3m/o2BjszEiO19/XUQAyAZG7gUBQUAQKAMCRuVrVLTpPwaA/KH/bIA0bRcdu1FdM8HOHVzPTZAyQI8//YG17swcDAQfpung6VsHVPm/jXl6FuPW9fx9kMln4JpZP4PeuWyZ+zgGjK8PxGdcUKbJ21+3cM5uEALeGDdhk48gDH0NHq9msM28RBHgPMcAfgrb93Zrbc09+KczwPPNhKe36Rew5qXjc/wugee1YLANWwN/kyM9MyrJYP4tgwOagL+QMLAen0nE9WLw+hV0s6wGf7QH5Elhh1Wl7/My+KMS2RP+ZhcFsGcEpaZk3MmlICAICAKCQBkRSM0Ky1hepEWhC6/pqK/fAec3Da6TnOhod6mr9VsLOjpeo6DBg02kJQ9mhqV/C+rs2RQ4iT80687i7mTyX31n3A+mtb0z6+RstdxWuXosg+wIPPwtpp2LEBRehkdeocuP/3QO9unpWb29q2P1jvI2Aa9ljue9zUmJBq+CePqVl51G+ePWrl3b5Lpusra2dr74GMhGSO4FAUFAEBAEBAFBQBAQBAQBQUAQEAQEAUFAEBAEBAFBQBAQBAQBQUAQEAQEAUFAEBAEBAFBQBAQBAQBQUAQEAQEAUFAEBAEBAFBQBAQBAQBQUAQEAQEAUFAEBAEBAFBQBAQBAQBQUAQEAQEAUFAEBAEBAFBQBAQBAQBQUAQEAQEAUFAEBAEBAFBQBAQBAQBQWD9RCByV8DGPW9nS8tklUg0cXrQBI6x27gfOlMWx92rD5PKS+LadmXSXCeTC3KdkDeM4Y41Nja2xDyvwYs5Y2jHSOWp1EE4SqmEp7wVHOKzyvNibfjJX0g6nn4lCAK5ETDHW3d1ddWrZLKZUyPHcZ6GeadS35LJoV2XcxmSnuupDz3XNWdqLMBddL4zH0wWCYKAICAIpBAoVgBw8YP/EfzJ7+UovRsH2ZhT5mbihb8mHL56OX1aK+fovYsv/eeV1k/3av18Z2en70Ez4cqInhp//RPpfDkZ0N0F7jvRHW9G1zwlRPt7yPcfDup5TTnuU5xj8OTCjo6XiDOHKFVNaGlpGen29jYGVWhSZ+fCFx2nN4hO0vMiEG9paNgeiXBPviPzTm3D32b8hTq1E/ql5nvifXyXb/JZx3Wf4eyFF+TsBZCRIAgIAgMIFCQANNfX76KVOpHMRzPgpc+wH2Aa0QWDoHqM8+qvaOjouKtaBpaWlkkzdNI9jtPs+dMfjait69iYEw49589E/IGTDx/nt+IaAgalvbRyHltXydxXnCa4lTnVMHeqxOZBQIHvnp7SfE/qSGgQKksSehBMzXHTV/Bemd+SH/5UklYIU0FAEIgMgTACgNvUVH+c0uosSt8xshrYMFJO+6K2jlIJGjY1iNP2Y2n7tyBmpl+2sEA5+hJPxa6spFpXBICSPG/zTp3S/06ZmX4Zg/o3xz5vV8YCpShBQBCoQgSsVIt0VPtxpvtFjlaV6TS0U18J7Iw9Q3tTw5do+9nMnqZXoA5TtaN+pbT3/eaGhovQhPy6WjQhFcBivSmSpaNP80wv5J3asiKNUnpyRcqVQgUBQaCqEPAVACZMmLDxiLq6X7Im/0VqHUZbUFWNLKQyRi3bqZzLGfy3LiR/xHnqQf/ijsaGU5s9ffqizs5nI+Yv7MqAQENDw6SY6/yfo71jy1CcFCEICAKCgC8Cbr5UOqutR9bVvYAK+jRoNpjBf9KkSaObmxquNWveGCRWw+Cf+Yi2cVz1NPW7mEhf4S0zk1xXHoGW+vqdY0q/xKxfBv/KPw6pgSAgCIBATgEAdfPeMYX1sKO32JBQQjW7VW089g866VNpd7UKPS71Oxsh4GEzo9yQns9wbWtLY+NR7H99nFeqebi2QeotCAgC6x8CQwSAKY2NezD03UNTx0TUXCbSzsqIeJWMDXYOR7Au+w8KmFWyQqJkrB0jpD1vhJYo2QqvaBEw75VW+ha41kXE2ewKWRURL2EjCAgCGzACg9TIOLCZ5jnabEEbFRoT7bSxNfB+tu29xL7jl2t7e9+hl1qZ4eTHnTp16linu3t8IhYbG9N6Mj3ZLKSD2Uxpd+PXDLwVmXXTSR+PNfaNlD8Ij5AYrIX+WfZdP+e4+u2Ydt/WseRyt1et1LXJtaonNiIZ12NU0h3vuXpzfAdsDlY70eJdybdRyLLS5NNYT36M57YPToVeT0fKb3UggNp/W63VTdQmpF+MVP3n8W48wHv5L/xs/LtH63nxeHxFxm6QOD44xsYSibF8T+OU5zWab0i5+A7wnE+Qd0Z1oCC1EAQEgWpFIHPAc12lb0W9vEmIynpYqd+CA5srWzs6niCf3551b8GCBV3QmL90eCh9UV9fPzkWcw6jwzuauAP4i6XTSvmLevYkvKtdX2B53eB1Jx7+rovX1c0J4WhlTrpNZqdBR3P9Huyw+Cy8TNtDaV6QmBqw03iM5YB9Ojo6Xkvzld/KIjB9+vQRvd1rb6cWYYS7BE6hrlWecw2Gns+R12jP8oXEokWLlpJo/tLhvvQFwkGLTiYPRyA4Bi57EV8R4TpdH/kVBASB6kNgoFNgIDyDzuf3Iao4B8cvZzEjMZ7rIg2otacy6/kK3tC+CuPR/HmL2jsiFwiw9D8YY7974B+W92p2B1yG69WLaP+SqBpvdl1gePl1+n3ja2FCSL7zk9rZESHg/ZD5AsnFD0AgREMIsKP5EUPu+UMS8kVo5x7c+n6H9ylyR0oIAzMRBr7G93Q6xY+gXpX2q5EPBYkXBASBMiKQEgBmzJhRt3rVynlmNmlVtnJ+iWOe70JbUm9iCAITEQT+i1nMmZRXa1U3SyLU5rPQeDzD7GisZZY02R3x3sTX5y9Z0p6OiPqX2eO4nu7ui5jZfxHeA0JaUDkQPjl2wib7zZ0717gYjiyIABAOSpa6xid7exaQywivQQGtmf7hovbOCyH0m/EH8QlMN1oBRycvQE+3P94AxSAxEDEhEATWbwRc07w1q1YdZz34O/oHDMbnkK2kg7+pl5ldt3V0fMPTyqyTRxZMB82yxd0hB39ziM9JaCKOKeXgbxrJUsJyTgo6HQ3LQdxmqnh9MWD02P2DrqWX+BJJYskRSPT0GMHNZvBn5UefweD/c+hLOvibRrNk0Mq3e6qn1OHmXoIgIAhs2AikBAAgONkGBmakD/fPVGzII6PBwO3FyJjBKJnouZR5dRgjqYUq5n2yta3TGHSVLSAAPaxiyV0o0FotjBHiV4znxrJVUgoaggDCtNX3xJh/Y1tb59VDGJQ4IurvqcTVFfaCgCBQIgRcjO+w+Nd7WPDX+KT/BnR+hn4WbCpLYtb9mWudEqIWb6Hy37m1dfHLIfJERtra+v47CS/1fN6wZIqiQl05ceLEMZb0QhYhAik1u3K2tWDZk+w7V8OCVEgEAUFAEIgeAbfWdTFEt9mjrP9eCgOl6JuUn6Px8ofR3xX5KYakLEANv3+pVf5DSs2K4FjkxY4b25/o+VlJ+W6n19XE/jtfosSXEIFk0ixXoQQIDPeWwmAzsFQhEAQEAUGgHwGX6byl4xv3geGOWm08bk7za7Fsx0qs6g9G6DHGXBUPZv3WddQxVKTbrjKKpQB2U0goKwIs5Ft9T6hphv33VFZgpTBBQBCIHAFjA2A3SGi9MPLSy8jQGP6xenG2bZEYZ51WbfvqF7a3v4AGwxhg2oQ61/POsyEUmugQcJWy+p5wBDWsv6foEBNOgoAgUCkEMIbXVmvFdGydlapkFOUme3sZONU4G174Q7gS46xbbWjLTdPW1sFpcs4zNuUiLHwOG49NbWiFJhoEEBytvid8SAzr7ykatISLICAIVBIBxnU7N6We1mH3y1eyXYPKZl/9CAwdzxwUmf+mM15TZ3wcVGvQOIz5GpWz2YYZj7uucf4ioUwIIFBbuf1VyeSw/Z7KBKUUIwgIAiVGII4r3+Vs7wsshjXLxkCiKiVI9Kw5itm/nWc97fy/fpfFVdqalH+Ef+Jp7nZMzY4PrqT+wuzZs38ctXOg4HI3TAp2YCy3MQHkPIhh+z0V+2R5H2tXLF26Bf4ItqTnYcnEG8mZCWPpY3pxq70S5whdnkr+J5lU72AA+59iy6t0fmN87LruJP4mICCuqalJLI/FRi8L4Tq80k2oyvInT55cjxH7LL6lzbCPmsS7NEp7Ti3v0YccdLuWs1YWMsP9T4/nvc57NNwP0IpPnzRpoheLbcJHMqLG87qcurquYseqOCAttemweAP24u9/q/JNCKgUQo5xzGIT3sRD2h9tCCtNQ+d5EYcoWQgATv3ypUuN45fbK13nDaF8vFYuxRdDYMCV9F4Q3RJIuJ4QTJkysSnZGz+RAf6A5cuWmsOKOCMhDZRy0EQSmIqkovhitevEsVBqbmwwSyVPQ/Hn7kTirozDxUqCjDGc5WClnf2YU9WVnH3ygB8NfLZ3He8LNHFvmrR1Hy1XZPYScf7WJhDin6fBP+Pch3uzeaVOJ/VUoPfThNb3l3twM+e2xJXaM7vO2ffYIP1z4eLF72bHF3EfYxv3ASyzfZoXZl+w3dy8Lgjd696k/vco9W4ZrEmJuyrBe4TLevVXnu3NrZ2drxRRB6us1PMQ6uZ7qB6a3GcxMs9rC2QEx5pY7BS+jUModPfe/nNizHnwSZfG9fY4vENtAPAo/nny+h5paZk0w/HcQ/i2JgPVe0rF7+o/R8SJw2aBTYv4JPcze8uXLFmywoa+WmhS+7K95N529VE/hc5GtW7HroRUxplLU2PDEzy/PQKLUfoIaEQACAQqCgLN98RTCQzqU+y/rXmRzziQdBgTNDdP3pXe6vtewjmEjiy2btC3blQ9lEdhl3NUbTy2qqmx8Wo6/4v9Ok5rzjkIMYranU7yxhxJA1H0hW9zk1MAYODfkkEGOx1vXzM4+YQ4r8mu/BlhY4gAwKB2MmlH++RPJdUo97NclHXSElPqy9TtxwF1015NzVYBNFbJZtypq6nBB40+E0zZxcX3FQBuFuM49zuSaUftqu/Tb76AxuDnre3tdxLvZdFGc6ucy2C0qR8z3pPjSc8lAMRamhrOYcD+LukYr/sE5TSBx0lQ5BQAmhsbf6iTjo4h+MR7epauHTlyM9yBn4+A+TB2bne5Kh5/2od9ZtLoEbVxDOmGVwBkIz3Z9MjvN7S3D6sZGS+x5YevDgYDOl8JpUbAc2K231NLR0PDaaWuT6X4T62v36y5qeEeZh5/5+s7jHpE8f6NYq73DaW9t8xhS2YpoVLty1UuneoXqNs/ae++udJDxXn6Oht6ZsMn2NBFSYMWxww4QeFxZplvBREFpLtNTQ1fq6uJv8fgfQG0tlu4fdkyGHwcgfIOtALPtLRM/ogvcZkTp02c2Ei95jD4X0jR/oN/QN1amur5VvSLWnkdaAxu7h5Z9yAap6+M3Gj0WYwd26Ol2MltbW1dBB8ADg5U6uxqAyy41p4Z/CyC/uOwm43FYmZW32PRuE2YmRgHNRJKjAAz03/TwbAGaRGU898c4zzdgnI4kaimhoav0uG8zCzt0BJV3JxoeP7yZUueqxb8Whrrv8ms/Sray9JG8YFlgQeZ5HYEctLOAX1bnAMpIyEwgwaD8RZBzFiHvzKIxi/dCJAtDIQslf0Guol+tEWk7aQ99wVmycY/TMWDWSZL1MTnUJFPFlsZIxxjVzPLLFUpT41Dq/UHzgHZFYFgzJqVKw8bO36TnyI8fpFVNqbHyrnDssBROunew2AyxZK+omQpEFi6sKmEVrE/2NBVEw3C2zI6QqsZJw9+z2qq+3pcF/xHOUa1aBMmsZR3L8tUm9gQVzvNdHbboKK/kf7EqD991z+jaYvaLqac55vr6815GRULDCAnsyxwKRWw0TTa1jPBu3GjBXFtItF9pAVdJCTYHtnM/pfGa0f+udACm5vr90WAfJ7vaPdCeVjn02YXnL4UweZq8kShpbIuOpPQuOTXifgjxM3MjC/0uqurazYD/PPp/Hj8m0Ib92Kwn+LEYi8bo3AE1p6UANCb1L+F0HYtZCrrW//gON3SP5x07Qv8/XDZMqPeGR2YnfPRmblhJDL8Alavc2xqrR2PJWcJ5UCAWcv/2ZbDiDFbecnnWSv/qG2eaqTbbPz4sb1r1z6Kiv7EMtdvohNTD05pbPx4mctNFYeBFbNhfTk3UQ7+Kd4qqa+3aZOrbXYD2XAKpMFmzMbwWP+h0B0OLO18zvHUg9TEbtdWYJXtCJghf4ElK6PBSY2Jdrmio6pR6tcIPP3GosXzZc0/jiFtb5qTVupjCASXshzw6/TSDAM+prYEs9WGNZG70sRBv7zpDa7SfzMGBowqSFDVGQD0Y5Y1ewg6yIdfwCBnjk2tsaKuSAdpU7f1jQa12z8YD/5u2y5evE3NWjlrdl8nT0U6INu65qIzRlrddXUPMAQWusy0Fr6t/K3MxT8wTjtjsfa+L2XwG0gcLYFOxq6BY/Ako4BiF3Z2vkq2gVlcPhZoH/ZhKWRSvvSo4lsaG402tT6IH4dcFaT+h/9JvEMGz3hQGXnS3+dbMssmyTzp/tHaORUh4Mf+RNGnMjM/2AggUXLu0fo1+A1M+hj870bLfTjjwE+Npo40LvWIgc4m6TlnE7nauhJ9qpOfYMj0wpSGBiwsqy/QaDsBwHIWXX0tdJw1vb1Gc2EjvPCYSt9JVCNGlagTErcZzBMhyt6INbtfI1Q/yXOKbCYQovxCSeN18fhfQg7+83llLzVbIWvqRoxf1N4xkr8p/I1RsfhGHMA1i/7p27zVf6NSNu+2qftkrJv/VM4JidmqR7lFr9eayucL2F3ZaAHiTASOzscjqni0iBbqf/10IS7UU4Ogo6+jrnZqeJXaPXM/o9gZrLlt2tDeUcv7M7mtvaOR3xriJjuePgx+v+sXCuxg0M4PqMshdsSRUKHASRn8RcIszaRva6i3wmgW4b+WrYNrUztntPMImroT6GfOcLW6c0AASGkBMEpKM7D+Vc5HPOU8w9rflTgqaLDOVw5Cz9nOphgV94al+t+0rX9b5gKbdiJWb2pDJzTFI8DH9k+4/Do8J70b69ovNTfWX1JO467w9ezLQWd5KYO/rdX7Yobzr9BBz2Df8lloSh5HVbw8s2zsWtaA3RuL2tt/hU+O/egdd1aO82QmTd5r7ezS3tBQLoMutOGpbcM5q0OnOxdcfmIGIQ/tm/L0RxzX2432H4dM81MEnH/nzJgV6cbjNxPVnRWd49ZGNZ8jm2VU37Hx6tOB5AXM/s3WSSZrN8HbauaPtvovyk3O5j36FFv5rkTgmPfi4O202py0afwrQMOWRXdzBKnz4L8qsP5o4KjLFeU6Th2t3wm8J/l2IqzmfbmF+pxm3h3X09uad4n7/dEYfB3hx7wbebVmDe2d57Oc8mXX1V1jx0+8wbQdgfv7/ExRyqvj+0OAGhzi7JG8l8gDB0db31EZdaGKxS4xH7J1rhIRsp3CqIOCVFbdSI9jsl6gEtWoNGxp531wDpRaeWGO4YO5I2wt6OT34oV7LCgfM7et6LzfDKLbUNJbWlpG6mTicdpbqIZsGaPM+fXtnZdX4/vJDPh4DIlusXqeyrmvbk33Se91dX1gRZ9FhGr2fDrDH2VF57pdxdHZW5nTM3MlBsUZNTQDzI3+dPgB0PpLdNyPDqFTzrvk/zZ7rO8lDTkgf+j3kdCCoPOn/FQ4Q2pquA1Ox/rRkOa58cSUhQuXtAXQFZTMQHUiGqo/+mfWy1EzN9MHWGuSZ8yYUbd61coXGXNm+/NOpa5g8DsJbO+xoB1CwhLRTMdLPkzCtCGJQyMuQXgwWvGCAjsY3uPhb+qb2dhuKPVNXpPdsug8tGOXoz483wgyWWmDbo2zII5+/05rW8d5gxIybninD+Kd3J+xOYba/8OY59y6oKNjriEZ0AD00ydGrO0+nmvWMAsKrIXpC3Sy9222An2lkvt0+8ueZNGK96qxc7Wo9zoS5cxfd5P/ihdyav5USYkaASME1ySSh8P3jQJ5T2B991cdTQ2vp4yjbNWjBRYWJptZTmLw/41NHjqzy9iCdEShg78pg/z/xSB4jkV5uIP1vmNBVyzJGdkMENbuTCT1R/sHKD43/7Bo0eJnggZ/w0F5znX+nFKprk7EgoQECza5SRj8A9X/+Af4Y5jB35S0ZtWKH1kO/q3MgncvdPA3ZaWM39wYSzYpR04myi982bga9iMoNg2voQg9WYO/cj5gInUws/OvBw3+pnzjGdNv8Dc0TPoeNMIMWrVvme8oPfibtGwBwDEfad3a7gP42Mz6W4FBNSvl/B8uP99CcjxthwoYCi5durSJyg9p39AGqUVD44ZXDDsBjKYjMAzn8xwCG1elBPPef78DIWBvqvd8wVXE5SmzzevR9Mxl1v0Z+Fi81wWXZpWRZYqLIbQQsPUVpjODtjDDrIzaMFj+Ehxuy4jKeclAfBpq5Yk5EyOJ1M3U46hMVoz2D7W2dx5bCre84PcQ/XHgzJ5B2kzeIg/G9S9MDwhijIV5KOO/PlsX9d0gvqR3MSjuh8BktWzix89ohrDPMWr3Xj860kbihpfZeekCyxLmu8gMPaw/HI4QZbQUZQk5OxIjBPCxHcggbj7yQEnWp6bTeCmvTM1g2CsLnZ2Bhw9D2yQO3mixolV62AsAHHhhJQDwIEdZYSJEkSKQEgLqRuzBTNhYOBcTtmTWfROCwL9R6x0JIyZP5Q8t9fXbUupnLUqewzrk1yzorEm0434VYnM+gF/YyHWSJ/oRFJm2Eflr0zx4CK/1a07R2pYkJCkjYFmCcpWzC9uzp0Vdg1hMYbcQuD7/j7ADNDvJLrDgm0CwOD7KpUV4/RM8fx6Ik9KnQlPKMWt8Zh1YZj1zYXv7E5lxpb7OKQD0F5pEtfAdhv8TuGdtv4hgZjCOvoGO6xVUmUZNVfKOCxfAYy1rvMSSrmrJOGFsmVXlPGekFZ0QRY6A2RfNTO6LvPpnwtzCqMu3Ctuwpvdn1hmfL7PFcl+lXOd8Lvz6DvOFf9Cb9E6IenmNzpvvVQcaV3rGl355QiLB+nwxyxs21UwqdZ0FHUo+bQbrSAOdtYX6P5znP+O3AZukYKNCR1/Y1rb4kUgbBLPu3uRFtOtDX77aaaSe+/nSRJd4Q1tbx7XRsbPj5P8RwwNNwG1YHm7D5f12LH2pZtEx3IaF8z/x3nWoL2WRiaxHjbBiwfGcVnRVTKRdbTugmJmLhAoiwDrc7/mePkYVniq2Gmh0dmDWcB/f01PGULNYfjb5UdtOxy7B2DX4B63OX7x4cdBM3Z9HnlQcl11NUk+e5FQ0nfsOxrWqH00UaWh1fsda7WtR8PLjweFfr9N3PudHY9LQ2poJW2QhdZIcOzECGK7o7vVuCaAZlIzfBqP+DpoItia86LfImYqkTpXEPe6gSuW4wRov+F3PkS9k1Cq2v54bMk8k5IECgCmFl2++2XKBBaZZf4zgo1bbOa66x1ivs760aSQtGcrEcrbLudHDPmirNvD8BtSWw77Jw7gBpjPne9qDGdCXmM0O2gZXWLPUJ8wuDbRrN5vDRArjYZeL/eanQ+nfb2jnnXETJlxmxzE8VUqw0M6DATmVTtTsE0BTZDJW77HYj4tkYp9dW2kBtu/zTmjP1o/SS8ROJD1goNY3hzmmmd0xE+BpYbCozi2FTUW6vRhXXp++zvurrbe45mURlIAtwC8wGK7IUrT/h5xVcywwb4nV1JpZ/OX8BRlRZOXOeXsIZzW/ygzm+5HvGFCelQaAQTGKduRsXLkiXc/1nQ2l62F8P6ev5bfiCGisc6+I9ya3piY38OcVXSNmf4na+OvmMB54hfq27csOdvWLZuL3xte4Pc/wlPgwfTool+d4ewTRFJNurN4xKltaDI8weWvq6swsO1DY18l4ZMaAaBQC1f+u414Zph2O12sMKIMmaO8jRN4aim9I4oUdHcb/y+qAbFv2G0EGkBWcjJLD+W3BuYvMGLqTWLBgQRdbCb6KI4atsQ8wLyTfe1EBtbT62QfLlr7EPs3tiuKUmVm7Vm1DCqzLzDYcrz3Xs5vZu8Gdx3Bs/3Cu8/wlS9rRBpyCo5jtEKrvK7otuMWl074M7dqzUc4ETb36jf+m+9aRiUHC8wJVq748LBI53OS5IDIGaGOsWLLgOe7NJWOeg3HKaZK2OWgqGqdA/R5eZ+aoSmbUSxiuvZAZEXStPXVYEA3Dyo2lFiKpgzHa/GdQXWKxvI56grLapD9is93PhlEhNFaDZC7Gra3vv4N9wGfYnoExh344F02YOKSIrXHS8HdzpnaYfPlo4We3tm9rK5CvoKqIt7Z3sLUVqIpWbUiVaO3sfAXB+lDsA5i12p8j4IPRjtqLPc9uATPbiibE1CGBjHA1Wqq1/8yy3dralzPvc15rx9guBaivc+a0iZyHQeLfbQijpGHHz3UW/LaZ2tAw24LOl8Tq5D/thJr9pzS9ygk0rMOh0I2+lYsqUTmB7xGH6pj3qEQh5c2vRLyD2RYsAKRZmy0V7H89EGOYvYl7Kh1f4O9I1NRXs5Z5jfGiViCPVDa++iDVTj97r6hyiqljVHk579lquQNsI1hvjqrWwicXAtgHPImh4Cf6/ZgbFWXhAW0AuwVux5PcxTCJF86oL6endZAxmDFCe6LYcmzyo4k073KQb4HR+APYxIZfWBr6u0fJU6z2M2yxDrPtv5KpNShj0i36hEDeF31CQDmr6rq7bwqgGZS8bNkyo5XxNUam7/6QceVfgzKW6IaylgSz9qYF0xRG4cZ7/1ZYzmhyFS0ApKvBFqc5qDJ3RyOwO3GPp+ML+lXO53Gh+rBxc1hQfpPJ0rqffcX1BZdRPRmtnJ7gAKOjeqosNfFDoN+P+fbYqOwPXaCa0ocXCjrn7KbG+tuKdciF0eKOPuWkkjgJrlyzYjP4dgXVx00mS2MU6eqyDFA52ofQo2yWWE7Mkdc6Cs3RfhD7943auS3s9kcGnMB3iM77Wcpmabz0AT81ge8QUm1TiWqyuFSum23rW/SsILsgJLeniNuLWfynUL6dz/X22TSW95+srYndhQR/GDwtZ/ODOFtIdkY/iFev4R5cp9FmLoK0u3i4N3VDqz+Gt2bGtyNLY8eiwTmP61mFYMDgfWRHY8PNTnuHmdWZtc9QYfr06eN6u9e2BGWig9+BwaOgOgbxzk5Hu5EdNeTei6UGsVeGJBQZgVq4aK90hVYBQf569vt/3zc/vlfoO7c3GlpfujyJYBssQMTCef4zRVHv2exY8Q1MyhTv0Bm+RBEl0k6zJdc/mJMFSxAYeyolRA60JnIBIM0Z+wBj0HQ/L+ERSnsXcr1lOs36Vzv74NHrL9Cbtccgdd8gtvFkckFvPDYoLueNcgI7tZz5qigSKbbRTPOCAg6D2oJoJL0qEfAQBG6lZrdzjCcdc8qD2tQCano0p3Ze39beHmjZnc07kVhNeTYKQ31p8JuYzb2k977q5kJLxjHPa4XmLTYfg/qbvAdoWrL8yGcxdj3veKJCCwD02Rs52jsyi1327avmLIPsyKB73g2L95bT7hzHaL6qJZTEgyptrNg7lAbW5otO0xbyq3lZ7+S0vW379jzbrLcMLganIwegTTh3cGzwHe5XO6EK3DLDuDk99cIHs6xaCgb/LWwqF08k3rChE5qqRSCJfcAfcBqyFWvt36OWK8LWlHflxEJmV7pXWXTcYWtTenpb+5iQNTH9WrDqOCTTMORMoq8PomembbQ9AfPtoVyYdH2aWN/lV1wOhjL+GyhFqWkD18PlQpdmp5jV8kOJMSq1AJCq/ouc1Wz2PCc81D9O6sXxQrVLOf/FFqRAA6QsnghYzoKsuFy3sZjnFW0xm4txGeOC649rVrPlrIx1kqJKhIA5ZRA33f+Dvc1sBNhbwhbDN3gJQm84jZxSE8KWUxX0StWVoB5mSTKURjLqOtSuXWs0QmsC+E7F42rYfpNXSgWp/9c6bs2NAWXnSdbD7z1Szog8jSkqmm2qHxbFIILMZREA0vXEq9PitvbOM7CgPZS4MBJ0XMeUkTjDSbPKsVqnY00teB0o3Ygq++33/GZjBPh6lVVdqlMkAsxCF/ZtxU2t164KwW6UcrzLQ9Dz5amSqNJD1aEQYqZZhWTzzaMCfMj7Zo4m0RjfIcj9OZBbyN0A5phneB7gz1ffjhC6zJ8mb+rIvCkbWAIGvh9UusllFQDSjWXHwANu0tsRUfPldFzgr3a2xRDq8EC6DAKOyX0+4zbvJWvj++RNrPKEZE3NrlZV1Oo5KzohGnYIYB9ws4p5uyEev2tdeexrmB3uYk0f7LktBKthTuo5YYSt0jVWOddZMD8WGut+HsLj6Jdr/PiG9vw3mJkIAP144ISu4u+R9Ysx+BkWf7dw8eJ31/T07I54zgqBXcAKOpQtAI2zEgDoOPejBhXDwq71uamQIvfNnZIVq/XTWTFyux4h0Nq6+OVEMmUU9qZ1s5TytyS3ZrSBEbIAXg0tRvB7lHos8K+LauagqN39adalKjfwmOc38UXw5LoccjWcEajooIdTiA9jvQnjFrLTEsSdWLvcypLW6U4mX4C224J+k6amyWFmQxYsy0Sig71qpWoSi4W22C1TC6SYiBAwS2wqljTfk51xoHIOxf32JpbFB603W7IRsggRwJZKB/oE4NyE423KnDJ58ubM/v1tBvo8/xUjAK21qYvQlAeBkm0DtK2+MUxDtX86s/u7bfJgobo/dG/Y0JoTqpoaGx5Dy3BQED37ek+Ghq01wyekzk7wkjMDa8xSC4eWtAbSCcGwRwAX3W+3NNWfxdK3jZU2n1PSaJBuC2y45sRJi9V0DH1Hl/IEt8B6bmAELP1cp5MxoxnN/3S0czTp3+DP1/+D57rG+C8/H45gxvLxBmiKCObkUr8iDGv1M3a7/KCIQiSrJQIV1QCk64gq6x7eicfS936/ZlugX3p2Gso6K8GCfMfj7KQk1p7ZdYrs3ksaoSU4uM5dwURCsb4g0NrWeQ3f0ys27cES2ep70q62MtrF5L7eplyhiQYBcyYLnIKW9yaj4dw7sMSgk/+085fiD64J9ryHs6CGwLoKQSQIVIUAkGqJZ3kkoubQoDAhFrsHcptth+N7u7tPDcO6krT9ZyV81qYOeNYyzpQkbDgIeOhor7BpLgawVt9TzFNtNvwSMem8bXCKkgY7oOuC+Lk65rsMMKWx8ePw8N0aihB4VVA5Qen4oQh8j9i3IQJAEJARpVeNAFAzYsQjtMlmoJ4cpu39qu8HbfLwcv6/HRx/C1gbPuWg8RKJL1BOMBao/9ku9lI56iRlVA8Crpt8yKo2rsU7BCMdjwd23KY8BhrpvK2Aj46opydplnB8LcrZMnhU6iS+PMV6jndSnqS+aHaYoKn9my+NRSJbrm3eI3mHLLCMgqRqBIDUWdeBFq2pJpsTvjYK03gk5N/Z0DNr2rSjoeE0G9pK0syYMaMOT3DfsakDBkA2a8E2rIRmGCHQrxpeE1hlSz/n7Ptuh9fKIH58Q7OCaCQ9WgSWLFmyAo5BPgHGL1+y5IA8JcdYWj0hT1pftNZXc8HjLTJo/bYFh5nQxCzohKRIBKpGAOhvh5VziVpCmHYjud4P/XyrPMr5aX19ffDM2opZaYjWrFplBv9pFtxX1taOuNGCTkjWPwTorLXN92T7LXnYFbwaCJPSuwTSCEH0CHjBywBsdM65DMCEal/M8vLPupXTW5Pwro2k0p6V75fRLS2Tg72bRlKhDZtJtQkAvv6n048KbUHgTCRN2/+b5CyCn2XF5bsdX+O6v8qXWOn41FYdR59rUw8MIC/v16zYkAvN+oaAUjbfk/23pHWwZ03t7GU0VOsblNXeHo6PnkMd5/nVkz7w8H7boUFkHNbmq/7HTuRezlbpGJSpwBsdiwW/Q/D2Eu6BBRYh2UIgUFUCgK8Uuq5RRt3lu51lHem6K84iuIa7t9bF5L9ivewzhRyYkp9jNCmmY/Vi7k1ws/GmtQqQLo6mZOEy3BBIdfTaGRtYb23vkhvjrDmB/DhEZvXqFQdY0AlJtAh4LAve4McSldDGbPs8OJOmfzn1yMy47GvXbktpdrac98Z9NZqkd3MmZkTikOiojFu5LBECVSMATJ80qSH1ggY31GYNKReXBCtYP8qVkCsOIeB/CziAKBeryOLWrF55Ccx2smOoLy1+y45dSUJVfQho3TPTplYM6u/Y0Bkaz1PGCCzQUJeZ5hm2PIUuOgTcpL4ebnSj+QP2UFnLAMnDoR6TP4czH9ftdgalPkwGJWnnkUH3uW60swvLAB/JlSRx0SFQNQJAbzxujqAMDBirvBFIlIeAg1P+hKX/w3mSs6NHaFfdN7WhoSrWojj/+wd82l/JrmSe+/laxX6eJ02iNwAEdNK1+p74Hl63haNPoFTPBtJr55Dm5skfDaQTgkgRWNDZ+R4Mn/Blqp2DM5doENZ8Z9paO0ZzGij0+ZaZlcjSpNmaHRh0wrVa6gxkJAR5EXBbmhp+zAlQVnuB83KJJMH7rA0bJJbHbejy0GhPxU5nqeHDPOnZ0ZskHefhSgsBzY31fAj6guzK5btHyv8mqrbV+dIlvnQINDc1XNzY2DitdCVYcY6jDv6MDSUagLDf0w0WfPEw6P4SOj41CWVFQDvXBZQ3pnvVqr36aeKO1sazar6QVLGYEQAiDWgUHkZNEWxToJzjWKL4RKSFC7NBCLicmLdVTDnPNTc0fJmUimgEKPsU+gqbB60T2noGP6ih6RsGxgWUdU76PvBXOU1J13kad8X7BdJGTGAkdQ7yuJr6/tSatXauZdeDeP6zBixiQu183HX0i7jjPRHOFRkAm5oazqLsLS1a1r12be9jFnQDJLGaGrPnPFi4VM6+TX19ykDeclz47XUvR/mVLqMnmbydOvgadmLUd6ipJ4Lqrryi4/LWWTkPlMiFeMJVTuAZBtSLY5e8ayZNmmRjzJq3GQUkqOHiD6aAtg3Kkh7wR9NVXY7f/Od4KXYfRFHim9TsWjlmtmATHkcNOc+G0I8Gg8Arae/1fjSD0jCm4qyCB5jdnV+uFwP7g23XrFr5JDO0Lwyqi//NGwhIX/cnkdQyILAJvvj/2NzY8CgzmO3LUN5AEajed0XF+uOBCL8L7dxpDuTyI8lOW7BgQRfaqN9nx+e6RwtxKQLsXrnSShGH4e5Jy5ct+U0peA8Xnub8E/o2IwTkDfQpKQEgprTvpAY7qCvzMikyQcUSZqfVWgs2M2tjsZugK4tfgGkTJzYyDt7f2TJpukXdhj1JWgBINYTpipm9PNHS2PAEH+4hRA5Kj7q1prNif94T8N3Eire2dBdswaymdsSZfCjPWZCmSVCXOT/qQEgCmz3TkVH/Yr09oamx8ec6pl6E944h+HclOfRDDmIJgVjpSfdiBvMigsD9/QNhSTUCDIAHOZ5rDKxsdonw+hf2Pbnx5MWUYdN51zLY3NNcX79PKaE2Sy4tjfV/YcC60dEqeOdDKStTBbw5Z/66gGpMp59pBisfOw29qN9/SgCrwpIXLlzSxgtot7ygnMP4hm4psXbH5fs5PVETf4Xv4qDCWjX8cuUc4Fmf2Z0P9z5An8f680+YxWwVZdMmT55cz2z6cjorM/hPsOFNnV4wRnw2tDY07I9f68YSR0E7z4Y+g+ZjYDMHKfFBDtgw62c5Mcygt7o0+/tTA38yMQ/DrO8hbNRYZewj6nYd9Wm0I6+FyCOk5UPgYN6ZxzDkfNMYc+JoatMoi+b7nMq3egMD4H3wHWXJ+wHWYh+3pB1Eluq87ZelRjsx9SDLAWbZLZJvJV0Z2j3RfDNMWl7DONjK6DGdd33+5bmafvU93zYmk9uyFOBn4Hwt+UNvt/YtMyuRM0rOI2pJVnS+22OWL1v6VJ8flHwkhcWbya7RfvP9XAEHu8loYUVVXa54QI2msAzzQ2YxP2Sd/h1H6XuwB300qdRzYbeY8bFu5Gpt9qAeDdCHMcCNDig7MzmhvJRqGzkgumA6Mgwg98YGYg5cp4XhjJR4oKPdA+l456NyvdVzvb86TvxpW+M7s76/evXqHZVO7s5K1xGc3rIzA3+YKqRpu83WnoVtqY8+HVeZX+39CsFuRTkLV27827ipXVTOMgsvS29B3gvirrqADmcuj/teV6k5bk3Nc32qdXvOm40fP7ZnZO2nWGo42tGe0daNsM/trNLK/XYI+iGk4yZM+EXXsqUn8B34DSJ9+RBmWQ64iG/lM1p532trW8y3UtjLbhimjsHWyTNo98nchulHTPYNITC2O9eD+X/na6yn9U6kb5Yn3Utqhe1RaQN95RLGlbPRBFxvWdKO+EF5hUnpJY4bvxT7hKWW+YaQGbuCuhr3BL6fL9Prbs97vEEGxQO4hQeQtTfUCgsjYb7B4PceJ4AsYjA0bkdX8+bFAXSU66Y+zIlYmc5A0qOT0OZlK3AdR5+7qL2zZNvazIyMTnkO9ZvKX+EBl5l0a//h700wXcRH+AHHra7AkqUWwWkEnjomMMg3UYDBwvzVFl5YKudKsP/0okXFH9LhVw+jvjYzWD+aSqXhn3br9vZ2661spa4ng9wcytgzZDl8MuodvpU3EAbfQ6Brw/nKckd5K2lfHbxGufzxbdWTvgXvl9m1M50/osMH+H8R9e414XMOzmHsd1jCe5bYsIPwq7T3Fg6GuZ9B4BXy+840zbIYDmx2Ap+9eQ8Pg37W4Jpk3CGMoyk8ISMm1KWxI2CCcqN/JvU259XP9KepbCoTm+lMbN6lFvneETPznpirlryMD7W1d5RNDc6AjkGg+myuuvjEGUPUO9jGeCf96hNGmPChNUkx7Kq21q67G+/RIfTPxv5ho3x5VCw5k/M03s6XHhTPMvp74LipL512juddvc2XpsSJQRoAv+LNALYZHyRje+pfHy2XqTtaPxBRuLAPL3V1a3vHhWlupfhl3fw/U6ZM3NVLxP8C/50KLqNPbT+TSqc6ByRsAt2JwSKFywAoBReRkZGBwj2mbZGc9JeByXC95O1AO6AcNAQos3lNeGv4x9vf36K+N8eQFdtE9fO2to6iB39TiwUdHXOZQHyeSt7Kbb6BJleFt6EhF3Du+wUITKtp0zsQzafhH/C7GiGnljiECt3I/XSdTDSnmKTBSN3IPz8EjLE02rg54LhPHrqcg7+hZTmxZMZ/ueqiYjVn8IyNUBvGYNYM3ifznZzMe+TwHi3g05hHn9uJoLw89aVotTGNGUPydO43JZ08/Jf3aOAxFCMADDAp1QXdH4N/+5fgX3S3F1RHsxwwffr0PXu715p1IKNarN6gnbs5PvkU8fNfvY+oGmuGaHFhW3v7uVHWjRnM7Wx5/BKqVLMzIIwQkK7GRnTIxuMbf/0988DXLj11GqSCfj1U6yqvAJCPZWd9e/vdrflSSxDPEt4aNBYHxVznb/T02xZYxFTelql943v/e2N+ZLz3hbOQD9aXYSSJfar0cxj8T4NfMhKeFkyMYeCi9o7P8dKcCrlZ0qiqwLvcwXLCSXS6R8jgX1WPptorswZlwhcY/L9fioq2tnVexTfzRXj3lIK/8CwMAbYE30HOUDY5zJave9FhKbPMwdiUJZJsSwy3M6vMtVz/inOVa22FWabW639hM7Azg9wvy1TgkGIo+/qaRNIYN90+JLEyEStRC/9ixNrurehsb6pMFaRUSwSC1iIt2URDxiToSceNbYfa/9poOObmwjdzneN6eyEItOWmKEvsU8wWzi9LScOgELMlmH7jTyGqqtnieVUI+khJqe/ikRuN3tNofiNlHI7ZKjRRZ7H+/164bMOT2m1t6/g6gLOW4sytcBPm03l8HmO/j2PQ8VKF6+KY4y/RBhzreHpXsHmwQvXpRIf1U9b6N2Vrz3ff6+oya6QSqhgB3pkTeI+/wkzm3QpX8w3qcSz2M3tiLf1WOeqyaNHiZ1iaMga/ZjnAK0eZqTKwITB9GNjvIVthB6POjq3rBsf43GHoy8Bn7DEqFt55553ulOZXp5wVzStjRRJG8KCvnYWB56WUWzbNcxnbOKQoswSgAfxGrD63weJ4DyTGy4hbMISyNBEenZRZ9zm2ob1ji9QsosqA55ztZ8HmYHDZmb9rmFGF8pxWAGxGZXcHltpHgMkUBKIfWli4FlCMZCkRAgne498uauuYSWdyIEZKV5qlmxKVlc3WnHh5D3+HMhjOph5Gg0Xx5QtmaYp39ky0DjsgBBkL51IJApg0OI/xnZxAO2eZPoyyytrW8qFaeEnskHkKVKwGdfOuFl5StDl5pvfx/cxm19S34LwwWu6DuC1m2eN/Ep6eaQQP+tpSljWo4Gq46beWGFoVvGvNiinvE3xln+QFMkY6ZuvNiKGUIWOMilA5zyBtPYTf6rsXL17MLHf4BHPOuuf1HoFr4IOp9V78TY2o9gvQAPI+ggAAB7JJREFUNnx+3MSJT82dO7eq1lJT271c57yI2hkpm2HiB8BlC9JstisZnw+fwI5jW76pLQGiNgIwFvAtPc3I9wAHt9yHQVVV2a6Y7WhxV5v91sfR1u34y9vnWGDRBc0zdNj3O657dyk6a/yVfFI53jf86kJb2rGn+KYfTTWl4XzqZHZYHOZXJ/qzxIhRoz5vZuB+dJVIMx4Au7qWHMRW8+P5dj7FtzO2iHowz3Xm8gwfU653N1uoH4dXogh+ObNyyN5lfJOTcyamI5WHL4PFz6RvK/Eb5mOMtbRM2tTzarbBec0sGrcpHc94HsZ4tl6M4358fwNQpTgruF9BWge/77tKow5130Sn8joS6fxKNLRUZaZ8CCi1A7YUm+NcY3P6N2ONChZm/7YeQ7nT+IvZla9+jvopUittu3KFqgIIxBlsZijP24ayZ+EvYhozsPF0TuPMN0VcupPr4X3CcY/zAZ1WB9fvs83pbdbb34rFvLl9XvkqUPsCipw6der4ZE/PbghBH2Pr1qbapQ/RzsZMMjbmW+n7RpTDGix/nvN+qq2m79DqLfZvv8qA/yZpdCkSNmAEGIcmz9bJ2K68CjP5Zsw41Mx3M5I3Y1QfLgr3FPpDvpkPEWwYg3Q7/fFbvHNvrO7peSns+RfrM9Z8YxJKiUBK+nb09ZRhibX6EULABaWsk/AWBAQBQUAQEAQsZ6YCVKEIrFi58uWNx4xCpa/2teSxz5jRo1eT7++W9EImCAgCgoAgIAiERkAEgNCQhc+wYuWqpzYeMxo1p4PaKjiwpLI/QsBIhIC/BlMLhSAgCAgCgoAgEB4BEQDCY1ZQDgbzRzbeeLSxBzCGUIEBIeCT0NevWLHyAYhl3TMQMSEQBAQBQUAQCIOACABh0CqSduaKlfevGDN6R4wBZliy2nHsmFEfrR0x8n5ODqyqnQGW9RcyQUAQEAQEgSpFwNIwrUprPwyrxa6BUXHXeQibgE/YVp+H9Jp2Y0eWy6GLbb2EThAQBAQBQWD4ImAcAUkoIwLGPWdPwjuIQf1J22LR/2+tvOTz7Cg4kzwitNkCJ3SCgCAgCAgCeRGQwSQvNKVNmDRp0ujaeOxeStkzZEmPc1znOQvb218ImU/IBQFBQBAQBASBAQREABiAovwXfcsByggBe4UtHa3AQ8rTl40cM+aRkN67VHNz8xaynBAWcaEXBAQBQWD9QkAEgAo/T7zBbYQ3uLtR7O9bUFXwEEe+h3mQL+L16l+O5y1KxmIfxOPxle6aNXW9tbUbO8lks3b1Zq52jfesfRAeluArfqeCypNMgoAgIAgIAusFAiIAVMFjNL6uly9bag7i+FyZqvO8CABlQlqKEQQEAUGgShEQI8AqeDDm8B8G5FP6T74q1elpVdBSqYIgIAgIAoJAtSAgAkC1PAnq0dre+b+4/DmeyzVVVC2piiAgCAgCgsB6iIAIAFX2UM0Z7lj578Fuv7errGpSHUFAEBAEBIH1CAERAKrwYZotfj2JxPYYBl5O9WRJoAqfkVRJEBAEBIHhjoAIAFX6BN9///2Vi9o6vuo5aicEAbNVEON9CYKAICAICAKCQDQIiAAQDY4l49Le3v4igsBhrqc/QiF/4E/sA0qGtjAWBAQBQWDDQUAEgGHyrBd2dr7KToHPJTw9CV3AcfzdStUXh66+ctq1dh4NnU8yCAKCgCAgCKxXCIgfgGH+OFtaWpp1ImGOGN7KUXqc1mosUt0o7TrdjlbLldIf8NvlaN2aVGouGoX5w7zJUn1BQBAQBAQBQUAQEAQEAUFAEBAEBAFBQBAQBAQBQUAQEAQEAUFAEBAEBAFBQBAQBAQBQUAQEAQEAUFAEBAEBAFBQBAQBAQBQUAQEAQEAUFAEBAEBAFBQBAQBAQBQUAQEAQEAUFAEBAEBAFBQBAQBAQBQUAQEAQEAUFAEBAEBAFBQBAQBAQBQUAQEAQEAUFAEBAEBAFBQBAQBAQBQUAQEAQEAUFAEBAEBAFBQBAQBAQBQUAQEAQEAUFAEBAEBAFBQBAQBAQBQUAQEAQEAUFAEBAEBAFBQBAQBAQBQUAQEAQEAUFAEBAEBAFBQBAQBAQBQUAQEAQEAUFAEBAEBAFBQBAQBAQBQUAQEAQEAUFAEBAEBAFBQBAQBAQBQUAQEAQEAUFAEBAEBAFBQBAQBAQBQUAQEAQEAUFAEBAEBAFBQBAQBAQBQUAQEAQEAUFAEBAEBAFBQBAQBAQBQUAQEAQEAUFAEBAEBAFBQBAQBAQBQUAQEAQEAUFAEBAEBAFBQBAQBAQBQUAQEAQEAUFAEBAEBAFBQBAQBAQBQUAQEAQEAUFAEBAEBAFBQBAQBAQBQUAQEAQEAUFAEBAEBAFBQBAQBAQBQUAQEAQEAUFAEBAEBAFBQBAQBAQBQUAQEAQEAUFAEBAEBAFBQBAQBAQBQUAQEAQEAUFAEBAEBAFBQBAQBAQBQUAQEAQEAUFAEBAEBAFBQBAQBAQBQUAQEAQEAUFAEBAEBAFBQBAQBAQBQUAQEAQEAUFAEBAEBAFBQBAQBAQBQUAQEAQEAUFAEBAEBAFBQBAQBAQBQUAQEAQEAUFAEBAEBAFBQBAQBAQBQUAQEAQEAUFAEBAEBAFBQBAQBAQBQUAQEAQEAUGgShH4/7gzmTX70wrxAAAAAElFTkSuQmCC;" parent="1" vertex="1">
          <mxGeometry x="360" y="80" width="100" height="100" as="geometry" />
        </mxCell>
        <mxCell id="bgnx0h7IcL4RkXzsBH8I-1" value="&lt;span style=&quot;font-size: 24px;&quot;&gt;&lt;b&gt;Data Architecture&lt;/b&gt;&lt;/span&gt;" style="text;html=1;align=center;verticalAlign=middle;whiteSpace=wrap;rounded=0;" parent="1" vertex="1">
          <mxGeometry x="40" y="40" width="360" height="30" as="geometry" />
        </mxCell>
      </root>
    </mxGraphModel>
  </diagram>
</mxfile>
